<svg width="42" height="41" viewBox="0 0 42 41" fill="none" xmlns="http://www.w3.org/2000/svg">
<path fill-rule="evenodd" clip-rule="evenodd" d="M21.0557 1.29297L25.1141 1.62358L25.1133 1.63317L29.0773 8.45322L33.4904 8.60196L37.4878 8.92013L35.579 16.8341L41.0825 22.833L34.1367 27.0793L33.7864 35.2127L29.7375 34.8982L25.8725 33.3039L19.8767 38.8046L19.8763 38.8085L15.8187 38.4684L16.2461 33.3694L16.5654 33.3962L15.6273 31.8617L7.77863 26.5336L9.40265 23.5974L3.89917 17.5985L10.8449 13.3522L11.108 7.2273L19.1092 7.12759L20.6992 5.66888L21.0557 1.29297Z" fill="#144CC7"/>
<path d="M25.1141 1.62358L25.3134 1.63982C25.3224 1.52973 25.2404 1.43321 25.1303 1.42424L25.1141 1.62358ZM21.0557 1.29297L21.0719 1.09363C20.9618 1.08466 20.8653 1.16664 20.8563 1.27673L21.0557 1.29297ZM25.1133 1.63317L24.914 1.61693C24.9106 1.65763 24.9199 1.69837 24.9404 1.73367L25.1133 1.63317ZM29.0773 8.45322L28.9044 8.55372C28.939 8.61324 29.0018 8.65078 29.0706 8.6531L29.0773 8.45322ZM33.4904 8.60196L33.5063 8.40239L33.4972 8.40208L33.4904 8.60196ZM37.4878 8.92013L37.6822 8.96702C37.6959 8.91014 37.684 8.8501 37.6497 8.80273C37.6153 8.75536 37.5619 8.7254 37.5036 8.72076L37.4878 8.92013ZM35.579 16.8341L35.3846 16.7872C35.3689 16.852 35.3866 16.9202 35.4316 16.9693L35.579 16.8341ZM41.0825 22.833L41.1868 23.0036C41.2378 22.9724 41.2722 22.9201 41.2805 22.8609C41.2888 22.8017 41.2703 22.7418 41.2298 22.6978L41.0825 22.833ZM34.1367 27.0793L34.0324 26.9087C33.9756 26.9434 33.9398 27.0042 33.9369 27.0707L34.1367 27.0793ZM33.7864 35.2127L33.771 35.4121C33.825 35.4163 33.8785 35.3983 33.9191 35.3624C33.9597 35.3264 33.9839 35.2755 33.9863 35.2213L33.7864 35.2127ZM29.7375 34.8982L29.6613 35.083C29.6806 35.091 29.7011 35.0959 29.722 35.0976L29.7375 34.8982ZM25.8725 33.3039L25.9487 33.119C25.8769 33.0894 25.7945 33.104 25.7373 33.1565L25.8725 33.3039ZM19.8767 38.8046L19.7415 38.6572C19.7044 38.6912 19.6816 38.7378 19.6774 38.7879L19.8767 38.8046ZM19.8763 38.8085L19.8596 39.0078C19.9125 39.0123 19.9649 38.9955 20.0055 38.9613C20.046 38.927 20.0712 38.8781 20.0756 38.8252L19.8763 38.8085ZM15.8187 38.4684L15.6194 38.4517C15.6102 38.5618 15.6919 38.6585 15.802 38.6677L15.8187 38.4684ZM16.2461 33.3694L16.2628 33.1701C16.2099 33.1657 16.1575 33.1824 16.117 33.2167C16.0765 33.2509 16.0512 33.2998 16.0468 33.3527L16.2461 33.3694ZM16.5654 33.3962L16.5487 33.5955C16.6238 33.6018 16.696 33.5653 16.7356 33.5012C16.7752 33.4371 16.7753 33.3561 16.736 33.2918L16.5654 33.3962ZM15.6273 31.8617L15.7979 31.7573C15.783 31.733 15.7632 31.7122 15.7396 31.6962L15.6273 31.8617ZM7.77863 26.5336L7.60362 26.4368C7.55357 26.5273 7.58074 26.641 7.6663 26.6991L7.77863 26.5336ZM9.40265 23.5974L9.57767 23.6942C9.61928 23.619 9.60815 23.5255 9.55003 23.4622L9.40265 23.5974ZM3.89917 17.5985L3.79485 17.4279C3.74384 17.4591 3.70946 17.5115 3.70112 17.5707C3.69279 17.6299 3.71138 17.6897 3.75179 17.7337L3.89917 17.5985ZM10.8449 13.3522L10.9492 13.5228C11.0061 13.4881 11.0419 13.4273 11.0447 13.3608L10.8449 13.3522ZM11.108 7.2273L11.1056 7.02731C10.9994 7.02864 10.9128 7.11266 10.9082 7.21871L11.108 7.2273ZM19.1092 7.12759L19.1117 7.32758C19.1609 7.32696 19.2081 7.30823 19.2444 7.27497L19.1092 7.12759ZM20.6992 5.66888L20.8344 5.81625C20.8715 5.78218 20.8944 5.73535 20.8985 5.68512L20.6992 5.66888ZM25.1303 1.42424L21.0719 1.09363L21.0394 1.49231L25.0978 1.82292L25.1303 1.42424ZM25.3126 1.6494L25.3134 1.63982L24.9147 1.60735L24.914 1.61693L25.3126 1.6494ZM29.2502 8.35271L25.2862 1.53266L24.9404 1.73367L28.9044 8.55372L29.2502 8.35271ZM33.4972 8.40208L29.0841 8.25333L29.0706 8.6531L33.4837 8.80185L33.4972 8.40208ZM37.5036 8.72076L33.5063 8.4026L33.4746 8.80133L37.4719 9.1195L37.5036 8.72076ZM35.7734 16.881L37.6822 8.96702L37.2933 8.87324L35.3846 16.7872L35.7734 16.881ZM41.2298 22.6978L35.7264 16.6989L35.4316 16.9693L40.9351 22.9682L41.2298 22.6978ZM34.241 27.2499L41.1868 23.0036L40.9781 22.6623L34.0324 26.9087L34.241 27.2499ZM33.9863 35.2213L34.3365 27.0879L33.9369 27.0707L33.5866 35.2041L33.9863 35.2213ZM29.722 35.0976L33.771 35.4121L33.8019 35.0133L29.753 34.6988L29.722 35.0976ZM25.7962 33.4888L29.6613 35.083L29.8138 34.7133L25.9487 33.119L25.7962 33.4888ZM20.0119 38.952L26.0077 33.4513L25.7373 33.1565L19.7415 38.6572L20.0119 38.952ZM19.6774 38.7879L19.677 38.7918L20.0756 38.8252L20.076 38.8213L19.6774 38.7879ZM19.893 38.6092L15.8354 38.2691L15.802 38.6677L19.8596 39.0078L19.893 38.6092ZM16.018 38.4851L16.4454 33.3861L16.0468 33.3527L15.6194 38.4517L16.018 38.4851ZM16.2294 33.5687L16.5487 33.5955L16.5821 33.1969L16.2628 33.1701L16.2294 33.5687ZM15.4566 31.966L16.3948 33.5005L16.736 33.2918L15.7979 31.7573L15.4566 31.966ZM7.6663 26.6991L15.5149 32.0271L15.7396 31.6962L7.89096 26.3681L7.6663 26.6991ZM9.22764 23.5006L7.60362 26.4368L7.95364 26.6304L9.57767 23.6942L9.22764 23.5006ZM3.75179 17.7337L9.25528 23.7326L9.55003 23.4622L4.04655 17.4633L3.75179 17.7337ZM10.7406 13.1816L3.79485 17.4279L4.00349 17.7692L10.9492 13.5228L10.7406 13.1816ZM10.9082 7.21871L10.6451 13.3436L11.0447 13.3608L11.3079 7.23588L10.9082 7.21871ZM19.1067 6.92761L11.1056 7.02731L11.1105 7.42728L19.1117 7.32758L19.1067 6.92761ZM20.564 5.5215L18.974 6.98022L19.2444 7.27497L20.8344 5.81625L20.564 5.5215ZM20.8563 1.27673L20.4999 5.65264L20.8985 5.68512L21.255 1.30921L20.8563 1.27673Z" fill="#0D0D0D"/>
<path d="M21.0568 1.30273L25.3031 8.24847L33.4365 8.59875L31.5277 16.5127L37.0312 22.5116L30.0855 26.7579L29.7352 34.8913L21.8212 32.9825L15.8223 38.486L11.576 31.5403L3.44261 31.19L5.35138 23.276L-0.1521 17.2772L6.79364 13.0308L7.14392 4.89745L15.0579 6.80622L21.0568 1.30273Z" fill="white" stroke="#0D0D0D" stroke-width="0.4" stroke-linejoin="round"/>
<path fill-rule="evenodd" clip-rule="evenodd" d="M17.8543 15.324C17.8543 17.1274 16.4933 18.5893 14.8144 18.5893C13.1355 18.5893 11.7746 17.1274 11.7746 15.324C11.7746 13.5206 13.1355 12.0586 14.8144 12.0586C16.4933 12.0586 17.8543 13.5206 17.8543 15.324ZM13.3553 15.324C13.3553 16.1896 14.0086 16.8914 14.8144 16.8914C15.6203 16.8914 16.2736 16.1896 16.2736 15.324C16.2736 14.4583 15.6203 13.7566 14.8144 13.7566C14.0086 13.7566 13.3553 14.4583 13.3553 15.324ZM24.951 24.778C24.951 26.5814 23.59 28.0434 21.9112 28.0434C20.2323 28.0434 18.8713 26.5814 18.8713 24.778C18.8713 22.9746 20.2323 21.5126 21.9112 21.5126C23.59 21.5126 24.951 22.9746 24.951 24.778ZM20.452 24.778C20.452 25.6437 21.1053 26.3454 21.9112 26.3454C22.717 26.3454 23.3703 25.6437 23.3703 24.778C23.3703 23.9124 22.717 23.2106 21.9112 23.2106C21.1053 23.2106 20.452 23.9124 20.452 24.778ZM24.2259 13.904L11.5037 24.3181L12.6529 25.9381L25.3751 15.5239L24.2259 13.904Z" fill="#FFF066"/>
<path d="M11.5037 24.3181L11.3453 24.1247C11.2436 24.2079 11.2237 24.3556 11.2998 24.4628L11.5037 24.3181ZM24.2259 13.904L24.4298 13.7593C24.3897 13.7028 24.328 13.6655 24.2593 13.6562C24.1906 13.647 24.1212 13.6666 24.0675 13.7105L24.2259 13.904ZM12.6529 25.9381L12.449 26.0827C12.4891 26.1392 12.5508 26.1766 12.6195 26.1858C12.6882 26.1951 12.7576 26.1754 12.8112 26.1315L12.6529 25.9381ZM25.3751 15.5239L25.5335 15.7174C25.6351 15.6341 25.655 15.4864 25.579 15.3793L25.3751 15.5239ZM14.8144 18.8393C16.6479 18.8393 18.1043 17.2483 18.1043 15.324H17.6043C17.6043 17.0065 16.3387 18.3393 14.8144 18.3393V18.8393ZM11.5246 15.324C11.5246 17.2483 12.9809 18.8393 14.8144 18.8393V18.3393C13.2902 18.3393 12.0246 17.0065 12.0246 15.324H11.5246ZM14.8144 11.8086C12.9809 11.8086 11.5246 13.3996 11.5246 15.324H12.0246C12.0246 13.6415 13.2902 12.3086 14.8144 12.3086V11.8086ZM18.1043 15.324C18.1043 13.3996 16.6479 11.8086 14.8144 11.8086V12.3086C16.3387 12.3086 17.6043 13.6415 17.6043 15.324H18.1043ZM14.8144 16.6414C14.1632 16.6414 13.6053 16.0687 13.6053 15.324H13.1053C13.1053 16.3105 13.8539 17.1414 14.8144 17.1414V16.6414ZM16.0236 15.324C16.0236 16.0687 15.4657 16.6414 14.8144 16.6414V17.1414C15.7749 17.1414 16.5236 16.3105 16.5236 15.324H16.0236ZM14.8144 14.0066C15.4657 14.0066 16.0236 14.5793 16.0236 15.324H16.5236C16.5236 14.3374 15.7749 13.5066 14.8144 13.5066V14.0066ZM13.6053 15.324C13.6053 14.5793 14.1632 14.0066 14.8144 14.0066V13.5066C13.8539 13.5066 13.1053 14.3374 13.1053 15.324H13.6053ZM21.9112 28.2934C23.7447 28.2934 25.201 26.7024 25.201 24.778H24.701C24.701 26.4605 23.4354 27.7934 21.9112 27.7934V28.2934ZM18.6213 24.778C18.6213 26.7024 20.0777 28.2934 21.9112 28.2934V27.7934C20.3869 27.7934 19.1213 26.4605 19.1213 24.778H18.6213ZM21.9112 21.2626C20.0777 21.2626 18.6213 22.8537 18.6213 24.778H19.1213C19.1213 23.0955 20.3869 21.7626 21.9112 21.7626V21.2626ZM25.201 24.778C25.201 22.8537 23.7447 21.2626 21.9112 21.2626V21.7626C23.4354 21.7626 24.701 23.0955 24.701 24.778H25.201ZM21.9112 26.0954C21.2599 26.0954 20.702 25.5227 20.702 24.778H20.202C20.202 25.7646 20.9507 26.5954 21.9112 26.5954V26.0954ZM23.1203 24.778C23.1203 25.5227 22.5624 26.0954 21.9112 26.0954V26.5954C22.8716 26.5954 23.6203 25.7646 23.6203 24.778H23.1203ZM21.9112 23.4606C22.5624 23.4606 23.1203 24.0333 23.1203 24.778H23.6203C23.6203 23.7915 22.8716 22.9606 21.9112 22.9606V23.4606ZM20.702 24.778C20.702 24.0333 21.2599 23.4606 21.9112 23.4606V22.9606C20.9507 22.9606 20.202 23.7915 20.202 24.778H20.702ZM11.662 24.5116L24.3843 14.0974L24.0675 13.7105L11.3453 24.1247L11.662 24.5116ZM12.8568 25.7934L11.7076 24.1735L11.2998 24.4628L12.449 26.0827L12.8568 25.7934ZM25.2168 15.3305L12.4945 25.7446L12.8112 26.1315L25.5335 15.7174L25.2168 15.3305ZM24.022 14.0486L25.1712 15.6686L25.579 15.3793L24.4298 13.7593L24.022 14.0486Z" fill="#0D0D0D"/>
</svg>
