<svg width="41" height="41" viewBox="0 0 41 41" fill="none" xmlns="http://www.w3.org/2000/svg">
<path d="M38.4283 8.50105L13.7851 0.621094L3.14478 31.6888L28.4907 39.5686L38.4283 8.50105Z" fill="white" stroke="#0D0D0D" stroke-width="0.4" stroke-linejoin="round"/>
<path d="M38.4283 8.50105L13.7851 0.621094L3.14478 31.6888L28.4907 39.5686L38.4283 8.50105Z" fill="white" stroke="#0D0D0D" stroke-width="0.4" stroke-linejoin="round"/>
<path fill-rule="evenodd" clip-rule="evenodd" d="M5.76457 24.041L30.9531 31.8719L28.4907 39.5701L3.14478 31.6903L5.76457 24.041Z" fill="#144CC7"/>
<path d="M5.76457 24.041L5.82394 23.85C5.72059 23.8179 5.61042 23.8738 5.57536 23.9762L5.76457 24.041ZM30.9531 31.8719L31.1436 31.9328C31.1599 31.8821 31.1552 31.8269 31.1305 31.7796C31.1059 31.7323 31.0634 31.6968 31.0125 31.6809L30.9531 31.8719ZM28.4907 39.5701L28.4313 39.7611C28.5362 39.7937 28.6477 39.7356 28.6812 39.631L28.4907 39.5701ZM3.14478 31.6903L2.95556 31.6255C2.93806 31.6766 2.94198 31.7326 2.96644 31.7808C2.99089 31.829 3.0338 31.8652 3.0854 31.8813L3.14478 31.6903ZM5.70519 24.232L30.8938 32.0629L31.0125 31.6809L5.82394 23.85L5.70519 24.232ZM28.6812 39.631L31.1436 31.9328L30.7626 31.811L28.3002 39.5092L28.6812 39.631ZM3.0854 31.8813L28.4313 39.7611L28.5501 39.3791L3.20415 31.4993L3.0854 31.8813ZM5.57536 23.9762L2.95556 31.6255L3.33399 31.7551L5.95378 24.1058L5.57536 23.9762Z" fill="#0D0D0D"/>
<path d="M11.1125 15.7754L31.8666 22.7127" stroke="#0D0D0D" stroke-width="0.4" stroke-linejoin="round"/>
<path d="M10.1995 18.5078L30.9535 25.4451" stroke="#0D0D0D" stroke-width="0.4" stroke-linejoin="round"/>
<path d="M9.28638 21.2383L30.0404 28.1755" stroke="#0D0D0D" stroke-width="0.4" stroke-linejoin="round"/>
<path fill-rule="evenodd" clip-rule="evenodd" d="M7.37939 19.3242C8.34605 20.2626 9.53569 20.9642 10.8968 21.3289C15.5268 22.5695 20.3875 19.4424 21.7535 14.3444C23.1195 9.24636 20.4735 4.10789 15.8436 2.86729C14.928 2.62197 14.0034 2.54744 13.0987 2.62516L7.37939 19.3242Z" fill="#0D0D0D"/>
<path d="M10.8968 21.3289L10.845 21.5221L10.8968 21.3289ZM7.37939 19.3242L7.19018 19.2594C7.1651 19.3327 7.18454 19.4138 7.24009 19.4677L7.37939 19.3242ZM21.7535 14.3444L21.9467 14.3961L21.7535 14.3444ZM15.8436 2.86729L15.7918 3.06048L15.8436 2.86729ZM13.0987 2.62516L13.0815 2.42589C13.0026 2.43267 12.9351 2.4854 12.9094 2.56035L13.0987 2.62516ZM10.9485 21.1357C9.62186 20.7802 8.46201 20.0964 7.5187 19.1807L7.24009 19.4677C8.23009 20.4288 9.44951 21.1481 10.845 21.5221L10.9485 21.1357ZM21.5603 14.2926C20.2181 19.3019 15.4547 22.3431 10.9485 21.1357L10.845 21.5221C15.5988 22.7958 20.5569 19.5829 21.9467 14.3961L21.5603 14.2926ZM15.7918 3.06048C20.298 4.26791 22.9025 9.28336 21.5603 14.2926L21.9467 14.3961C23.3365 9.20935 20.6491 3.94787 15.8953 2.67411L15.7918 3.06048ZM13.1158 2.82442C13.998 2.74864 14.8992 2.8213 15.7918 3.06048L15.8953 2.67411C14.9568 2.42264 14.0089 2.34623 13.0815 2.42589L13.1158 2.82442ZM12.9094 2.56035L7.19018 19.2594L7.56861 19.389L13.2879 2.68996L12.9094 2.56035Z" fill="#0D0D0D"/>
<path d="M20.4684 12.7448C19.1024 17.8428 14.2417 20.9699 9.61175 19.7293C4.98178 18.4887 2.33582 13.3502 3.70183 8.25217C5.06784 3.15415 9.92855 0.0270835 14.5585 1.26768C19.1885 2.50828 21.8345 7.64675 20.4684 12.7448Z" fill="#FFF066" stroke="#0D0D0D" stroke-width="0.4" stroke-linejoin="round"/>
<path d="M18.9467 12.338C17.8594 16.3957 13.9059 18.862 10.1164 17.8466C6.32685 16.8312 4.13623 12.7186 5.2235 8.66084C6.31078 4.60308 10.2642 2.13676 14.0538 3.15217C17.8433 4.16757 20.0339 8.28019 18.9467 12.338Z" fill="white" stroke="#0D0D0D" stroke-width="0.4" stroke-linejoin="round"/>
<path d="M13.0316 5.12891L11.9294 10.7009L16.4299 11.8947" stroke="#0D0D0D" stroke-width="0.4" stroke-linejoin="round"/>
<ellipse cx="12.0852" cy="10.4987" rx="1.53656" ry="1.64532" transform="rotate(15 12.0852 10.4987)" fill="#8A8A8A" stroke="#0D0D0D" stroke-width="0.4" stroke-linejoin="round"/>
</svg>
