<svg width="41" height="40" viewBox="0 0 41 40" fill="none" xmlns="http://www.w3.org/2000/svg">
<path d="M31.8514 39.0117L38.241 17.0445C38.3788 16.5709 38.1137 16.0738 37.6437 15.9243L12.7937 8.01769C12.3003 7.86072 11.7757 8.14682 11.6405 8.64656L6.76052 26.6837C6.63138 27.161 6.90744 27.654 7.38188 27.7934L27.7096 33.7636L31.8514 39.0117Z" fill="#144CC7"/>
<path d="M31.8514 39.0117L38.241 17.0445C38.3788 16.5709 38.1137 16.0738 37.6437 15.9243L12.7937 8.01769C12.3003 7.86072 11.7757 8.14682 11.6405 8.64656L6.76052 26.6837C6.63138 27.161 6.90744 27.654 7.38188 27.7934L27.7096 33.7636L31.8514 39.0117Z" stroke="#0D0D0D" stroke-width="0.4" stroke-linejoin="round"/>
<path fill-rule="evenodd" clip-rule="evenodd" d="M35.4865 15.3668L32.2443 24.9834C31.5667 26.9935 29.4378 28.125 27.3926 27.5621L8.10425 22.2539L11.4444 9.90799C11.7419 8.80857 12.8961 8.17913 13.9814 8.52446L35.4865 15.3668Z" fill="#0D0D0D"/>
<path d="M3.13232 23.0723L9.61424 2.84461C9.94522 1.81174 11.0391 1.23091 12.0802 1.53532L33.969 7.93593C35.0553 8.25358 35.6618 9.40855 35.3067 10.4832L30.6889 24.4549C30.3514 25.4761 29.2666 26.0476 28.2336 25.7484L9.8075 20.4121L3.13232 23.0723Z" fill="white"/>
<path d="M3.13232 23.0723L9.61424 2.84461C9.94522 1.81174 11.0391 1.23091 12.0802 1.53532L33.969 7.93593C35.0553 8.25358 35.6618 9.40855 35.3067 10.4832L30.6889 24.4549C30.3514 25.4761 29.2666 26.0476 28.2336 25.7484L9.8075 20.4121L3.13232 23.0723Z" stroke="#0D0D0D" stroke-width="0.4" stroke-linejoin="round"/>
<circle cx="14.9018" cy="11.8168" r="2.28361" fill="#FFF066" stroke="#0D0D0D" stroke-width="0.4" stroke-linejoin="round"/>
<circle cx="20.5844" cy="13.5746" r="2.28361" fill="#FFF066" stroke="#0D0D0D" stroke-width="0.4" stroke-linejoin="round"/>
<circle cx="26.267" cy="15.3813" r="2.28361" fill="#FFF066" stroke="#0D0D0D" stroke-width="0.4" stroke-linejoin="round"/>
</svg>
