<svg width="31" height="35" viewBox="0 0 31 35" fill="none" xmlns="http://www.w3.org/2000/svg">
<path d="M6.50854 31.9362L8.18694 22.8086L20.8238 23.9776L19.0961 34.0945L13.4194 28.2942L6.50854 31.9362Z" fill="#FFF066" stroke="#0D0D0D" stroke-width="0.4" stroke-linejoin="round"/>
<ellipse cx="14.0395" cy="13.1942" rx="14.0395" ry="13.1942" transform="matrix(-1 0 0 1 30.8022 0.580078)" fill="#144CC7"/>
<path fill-rule="evenodd" clip-rule="evenodd" d="M10.6247 25.644C12.4789 26.4924 14.5617 26.9684 16.7627 26.9684C21.9363 26.9684 26.4563 24.3385 28.8916 20.4236L12.9289 16.9238L10.6247 25.644Z" fill="#3351FF"/>
<path d="M10.6247 25.644L10.5415 25.8258C10.4529 25.7853 10.4064 25.687 10.4313 25.5929L10.6247 25.644ZM28.8916 20.4236L28.9344 20.2282C28.9979 20.2422 29.0506 20.286 29.0759 20.3459C29.1011 20.4057 29.0957 20.4741 29.0614 20.5292L28.8916 20.4236ZM12.9289 16.9238L12.7355 16.8727C12.7629 16.7691 12.8671 16.7055 12.9717 16.7285L12.9289 16.9238ZM10.7079 25.4621C12.5363 26.2987 14.5907 26.7684 16.7627 26.7684V27.1684C14.5327 27.1684 12.4216 26.6861 10.5415 25.8258L10.7079 25.4621ZM16.7627 26.7684C21.8683 26.7684 26.3235 24.1733 28.7218 20.318L29.0614 20.5292C26.5891 24.5037 22.0043 27.1684 16.7627 27.1684V26.7684ZM12.9717 16.7285L28.9344 20.2282L28.8488 20.619L12.8861 17.1192L12.9717 16.7285ZM10.4313 25.5929L12.7355 16.8727L13.1223 16.9749L10.818 25.695L10.4313 25.5929Z" fill="#0D0D0D"/>
<ellipse cx="13.6668" cy="13.1942" rx="13.6668" ry="13.1942" transform="matrix(-1 0 0 1 27.3335 0)" fill="white" stroke="#0D0D0D" stroke-width="0.4" stroke-linejoin="round"/>
<ellipse cx="10.8201" cy="10.5783" rx="10.8201" ry="10.5783" transform="matrix(-1 0 0 1 24.3635 2.61523)" stroke="#0D0D0D" stroke-width="0.4" stroke-linejoin="round"/>
<path d="M14.9009 7.05055L12.1165 10.334L7.5683 10.1061L10.1363 13.5328L8.49294 17.4023L12.8645 16.2367L16.397 18.8559L16.5308 14.7089L20.3573 12.4582L16.0685 11.0608L14.9009 7.05055Z" fill="#FFF066" stroke="#0D0D0D" stroke-width="0.4" stroke-linejoin="round"/>
</svg>
