<svg width="352" height="200" viewBox="0 0 352 200" fill="none" xmlns="http://www.w3.org/2000/svg">
<g clip-path="url(#clip0_161_6843)">
<rect x="0.531738" width="351" height="200" rx="5" fill="#393838"/>
<g clip-path="url(#clip1_161_6843)">
<path opacity="0.1" d="M154.381 120.781L153.305 117.821M154.381 120.781L177.877 124.938M154.381 120.781L130.244 118.524M154.381 120.781L154.515 123.693M153.305 117.821L175.74 119.044M153.305 117.821L151.338 114.924M153.305 117.821L130.244 118.524M177.877 124.938L175.74 119.044M177.877 124.938L200.514 130.948M177.877 124.938L178.148 130.732M175.74 119.044L197.338 122.179M175.74 119.044L171.832 113.276M200.514 130.948L197.338 122.179M200.514 130.948L200.921 139.569M200.514 130.948L222.072 138.755M197.338 122.179L191.52 113.598M197.338 122.179L217.885 127.199M222.072 138.755L217.885 127.199M222.072 138.755L242.34 148.296M222.072 138.755L222.609 150.128M217.885 127.199L237.183 134.054M217.885 127.199L210.205 115.888M242.34 148.296L237.183 134.054M242.34 148.296L261.127 159.462M242.34 148.296L243.001 162.293M237.183 134.054L255.049 142.68M237.183 134.054L227.722 120.121M261.127 159.462L255.049 142.68M261.127 159.462L278.242 172.154M261.127 159.462L261.907 175.966M255.049 142.68L271.306 152.988M255.049 142.68L243.894 126.259M278.242 172.154L271.306 152.988M278.242 172.154L293.543 186.252M278.242 172.154L279.137 190.996M271.306 152.988L285.798 164.89M271.306 152.988L258.58 134.241M293.543 186.252L285.798 164.89M293.543 186.252L306.852 201.614M293.543 186.252L294.527 207.259M285.798 164.89L298.399 178.264M285.798 164.89L271.616 143.991M306.852 201.614L298.399 178.264M306.852 201.614L318.068 218.091M306.852 201.614L307.94 224.575M298.399 178.264L308.973 192.978M298.399 178.264L282.893 155.415L271.616 143.991M318.068 218.091L308.973 192.978M318.068 218.091L327.07 235.531M318.068 218.091L319.236 242.793M308.973 192.978L317.414 208.896L323.659 225.862L333.766 253.774M333.766 253.774L338.106 272.621M333.766 253.774L327.07 235.531M333.766 253.774L335.061 281.209M271.616 143.991L258.58 134.241M271.616 143.991L251.521 124.352L240.779 116.847M258.58 134.241L243.894 126.259M258.58 134.241L240.779 116.847M243.894 126.259L227.722 120.121M243.894 126.259L228.11 110.83M227.722 120.121L210.205 115.888M227.722 120.121L214.326 107.031M191.52 113.598L171.832 113.276M191.52 113.598L183.269 105.536M191.52 113.598L210.205 115.888M210.205 115.888L199.331 105.26M171.832 113.276L151.338 114.924M171.832 113.276L166.289 107.858M151.338 114.924L130.244 118.524M151.338 114.924L148.554 112.201M130.244 118.524L148.554 112.201M130.244 118.524L145.063 109.758M130.244 118.524L136.493 106.076M130.244 118.524L140.985 107.691M130.244 118.524L131.751 104.975M130.244 118.524L126.944 104.433M130.244 118.524L122.257 104.469M130.244 118.524L117.867 105.082M130.244 118.524L110.642 107.924M130.244 118.524L113.949 106.248M130.244 118.524L108.09 110.042M130.244 118.524L106.379 112.524M130.244 118.524L105.575 115.273M130.244 118.524L106.785 121.146M130.244 118.524L105.709 118.186M130.244 118.524L108.752 124.043M130.244 118.524L111.536 126.766M130.244 118.524L115.027 129.209M130.244 118.524L119.105 131.276M130.244 118.524L123.597 132.892M130.244 118.524L128.339 133.992M130.244 118.524L133.146 134.534M130.244 118.524L137.833 134.499M130.244 118.524L142.223 133.885M130.244 118.524L146.141 132.72M130.244 118.524L149.448 131.044M130.244 118.524L151.999 128.925M130.244 118.524L153.711 126.443M130.244 118.524L154.515 123.693M148.554 112.201L166.289 107.858M148.554 112.201L145.063 109.758M166.289 107.858L183.269 105.536M166.289 107.858L159.323 102.999M183.269 105.536L199.331 105.26M183.269 105.536L172.916 98.3039M199.331 105.26L214.326 107.031M199.331 105.26L185.684 95.7249M214.326 107.031L228.11 110.83M214.326 107.031L197.514 95.2847M228.11 110.83L240.274 116.494M228.11 110.83L208.296 96.9868M240.779 116.847L240.549 116.622L240.274 116.494M240.779 116.847L240.274 116.494M240.274 116.494L226.303 106.733L217.919 100.817L208.296 96.9868M208.296 96.9868L197.514 95.2847M208.296 96.9868L185.206 85.2629M197.514 95.2847L185.684 95.7249M197.514 95.2847L177.926 85.3365M185.684 95.7249L172.916 98.3039M185.684 95.7249L169.778 87.6495M172.916 98.3039L159.323 102.999M172.916 98.3039L160.845 92.1785M159.323 102.999L145.063 109.758M159.323 102.999L151.219 98.8803M145.063 109.758L140.985 107.691M140.985 107.691L136.493 106.076M140.985 107.691L151.219 98.8803M151.219 98.8803L160.845 92.1785M151.219 98.8803L142.279 95.6652M160.845 92.1785L169.778 87.6495M160.845 92.1785L147.542 87.3939M169.778 87.6495L177.926 85.3365M169.778 87.6495L152.231 81.3432M177.926 85.3365L185.206 85.2629M177.926 85.3365L156.307 77.5686M185.206 85.2629L159.737 76.1065M159.737 76.1065L156.307 77.5686M159.737 76.1065L132.856 69.8733M159.737 76.1065L162.477 76.9724M156.307 77.5686L152.231 81.3432M156.307 77.5686L133.51 72.2774M152.231 81.3432L147.542 87.3939M152.231 81.3432L133.719 77.0482M147.542 87.3939L142.279 95.6652M147.542 87.3939L133.492 84.1379M136.493 106.076L142.279 95.6652M136.493 106.076L131.751 104.975M142.279 95.6652L132.836 93.4768M131.751 104.975L132.836 93.4768M131.751 104.975L126.944 104.433M132.836 93.4768L133.492 84.1379M132.836 93.4768L123.273 92.3959M133.492 84.1379L133.719 77.0482M133.492 84.1379L119.256 82.5311M133.719 77.0482L133.51 72.2774M133.719 77.0482L114.951 74.9309M133.51 72.2774L132.856 69.8733M133.51 72.2774L110.393 69.6687M132.856 69.8733L105.613 66.7975M105.613 66.7975L110.393 69.6687M105.613 66.7975L79.0351 67.0017M105.613 66.7975L100.666 66.3438L70.3224 66.5765M110.393 69.6687L114.951 74.9309M110.393 69.6687L87.8386 69.843M114.951 74.9309L119.256 82.5311M114.951 74.9309L96.6475 75.0711M119.256 82.5311L123.273 92.3959M119.256 82.5311L105.373 82.6381M126.944 104.433L122.257 104.469M126.944 104.433L123.273 92.3959M123.273 92.3959L113.938 92.468M122.257 104.469L113.938 92.468M122.257 104.469L117.867 105.082M113.938 92.468L105.373 82.6381M113.938 92.468L105.207 93.6872M105.373 82.6381L96.6475 75.0711M105.373 82.6381L92.3771 84.4529M96.6475 75.0711L87.8386 69.843M96.6475 75.0711L79.5131 77.4637M87.8386 69.843L79.0351 67.0017M87.8386 69.843L66.7295 72.7915M79.0351 67.0017L70.3224 66.5765M79.0351 67.0017L54.1634 70.4753M70.3224 66.5765L41.9197 70.5433M41.9197 70.5433L54.1634 70.4753M41.9197 70.5433L16.5381 78.094M41.9197 70.5433L30.1267 72.9917L1.83641 81.4067M54.1634 70.4753L66.7295 72.7915M66.7295 72.7915L79.5131 77.4637M66.7295 72.7915L47.8757 78.3998M79.5131 77.4637L92.3771 84.4529M79.5131 77.4637L64.2038 82.0183M92.3771 84.4529L105.207 93.6872M92.3771 84.4529L80.7617 87.908M105.207 93.6872L117.867 105.082M105.207 93.6872L97.3982 96.0097M117.867 105.082L113.949 106.248M113.949 106.248L97.3982 96.0097M113.949 106.248L110.642 107.924M97.3982 96.0097L80.7617 87.908M97.3982 96.0097L90.8295 99.343M80.7617 87.908L64.2038 82.0183M80.7617 87.908L70.9849 92.868M64.2038 82.0183L47.8757 78.3998M64.2038 82.0183L51.3085 88.5588M47.8757 78.3998L31.9334 77.0879M47.8757 78.3998L31.9973 86.4551M16.5381 78.094L1.83641 81.4067M16.5381 78.094L31.9334 77.0879M16.5381 78.094L-4.83092 88.934M1.83641 81.4067L-12.0291 86.9958L-38.0707 100.207M1.83641 81.4067L-21.9859 93.4906M-38.0707 100.207L-21.9859 93.4906M-38.0707 100.207L-58.2394 116.922M-38.0707 100.207L-52.9496 109.019L-74.6346 126.997M-21.9859 93.4906L-4.83092 88.934M-21.9859 93.4906L-40.4237 108.779M31.9334 77.0879L13.2247 86.5809M-4.83092 88.934L13.2247 86.5809M-4.83092 88.934L-21.3791 102.651M13.2247 86.5809L31.9973 86.4551M13.2247 86.5809L-1.27241 98.5946M31.9973 86.4551L51.3085 88.5588M31.9973 86.4551L19.6958 96.6488M51.3085 88.5588L70.9849 92.868M51.3085 88.5588L41.3309 96.8316M70.9849 92.868L90.8295 99.343M70.9849 92.868L63.4146 99.1442M110.642 107.924L90.8295 99.343M110.642 107.924L108.09 110.042M90.8295 99.343L85.7338 103.563M108.09 110.042L85.7338 103.563M108.09 110.042L106.379 112.524M85.7338 103.563L63.4146 99.1442M85.7338 103.563L82.325 108.503M63.4146 99.1442L41.3309 96.8316M63.4146 99.1442L58.3388 106.495M41.3309 96.8316L19.6958 96.6488M41.3309 96.8316L34.6429 106.523M19.6958 96.6488L-1.27241 98.5946M19.6958 96.6488L11.4655 108.585M-1.27241 98.5946L-21.3791 102.651M-1.27241 98.5946L-10.979 112.664M-21.3791 102.651L-40.4237 108.779M-21.3791 102.651L-32.4611 118.715M-40.4237 108.779L-58.2394 116.922M-40.4237 108.779L-52.7837 126.686M-58.2394 116.922L-74.6346 126.997M-58.2394 116.922L-71.7445 136.496M-74.6346 126.997L-89.4602 138.91M-74.6346 126.997L-89.1646 148.052M-89.4602 138.91L-102.581 152.547L-118.724 175.943M-89.4602 138.91L-104.875 161.244M-118.724 175.943L-104.875 161.244M-118.724 175.943L-126.293 201.859M-118.724 175.943L-130.578 192.008M-104.875 161.244L-89.1646 148.052M-104.875 161.244L-112.102 185.983M-89.1646 148.052L-71.7445 136.496M-89.1646 148.052L-95.9815 171.378M-71.7445 136.496L-52.7837 126.686M-71.7445 136.496L-78.076 158.179M-52.7837 126.686L-32.4611 118.715M-52.7837 126.686L-58.5825 146.522M-32.4611 118.715L-10.979 112.664M-32.4611 118.715L-37.6581 136.511M-10.979 112.664L11.4655 108.585M-10.979 112.664L-15.5301 128.247M11.4655 108.585L34.6429 106.523M11.4655 108.585L7.59954 121.809M34.6429 106.523L58.3388 106.495M34.6429 106.523L31.5049 117.258M58.3388 106.495L82.325 108.503M58.3388 106.495L55.9667 114.638M106.379 112.524L82.325 108.503M106.379 112.524L105.575 115.273M82.325 108.503L80.7325 113.974M105.575 115.273L80.7325 113.974M105.575 115.273L105.709 118.186M80.7325 113.974L55.9667 114.638M80.7325 113.974L81.0034 119.769M55.9667 114.638L31.5049 117.258M55.9667 114.638L56.3733 123.259M31.5049 117.258L7.59954 121.809M31.5049 117.258L32.0402 128.625M7.59954 121.809L-15.5301 128.247M7.59954 121.809L8.26085 135.811M-15.5301 128.247L-37.6581 136.511M-15.5301 128.247L-14.7505 144.749M-37.6581 136.511L-58.5825 146.522M-37.6581 136.511L-36.7733 155.354M-58.5825 146.522L-78.076 158.179M-58.5825 146.522L-57.5903 167.525M-78.076 158.179L-95.9815 171.378M-78.076 158.179L-76.9979 181.141M-95.9815 171.378L-94.8141 196.074M-95.9815 171.378L-112.102 185.983M-112.102 185.983L-110.866 212.181M-112.102 185.983L-126.293 201.859M-126.293 201.859L-125.001 229.296M-126.293 201.859L-138.42 218.851M-130.578 192.008L-138.42 218.851M-130.578 192.008L-140.324 209.288M-138.42 218.851L-148.361 236.799M-138.42 218.851L-137.078 247.278M-140.324 209.288L-148.361 236.799M-140.324 209.288L-147.869 227.606L-153.138 246.795M-148.361 236.799L-156.024 255.519M-148.361 236.799L-146.988 265.925M-164.235 294.589L-164.707 314.547L-163.333 343.682M-164.235 294.589L-161.332 274.845M-164.235 294.589L-162.841 324.147M-163.333 343.682L-162.841 324.147M-163.333 343.682L-152.6 373.311M-163.333 343.682L-161.4 362.966M-161.332 274.845L-156.024 255.519M-161.332 274.845L-159.931 304.55M-162.841 324.147L-159.931 304.55M-162.841 324.147L-151.952 354.21M-156.024 255.519L-154.63 285.077M-159.931 304.55L-154.63 285.077M-159.931 304.55L-148.988 334.762M-154.63 285.077L-146.988 265.925M-154.63 285.077L-143.739 315.15M-146.988 265.925L-137.078 247.278M-146.988 265.925L-136.256 295.554M-125.001 229.296L-110.866 212.181M-125.001 229.296L-114.89 257.208M-125.001 229.296L-137.078 247.278M-137.078 247.278L-126.607 276.187M-110.866 212.181L-94.8141 196.074M-110.866 212.181L-101.216 238.818M-94.8141 196.074L-76.9979 181.141M-94.8141 196.074L-85.7184 221.193M-57.5903 167.525L-76.9979 181.141M-57.5903 167.525L-36.7733 155.354M-57.5903 167.525L-49.8553 188.882M-76.9979 181.141L-68.5345 204.492M-36.7733 155.354L-14.7505 144.749M-36.7733 155.354L-29.8275 174.519M-14.7505 144.749L8.26085 135.811M-14.7505 144.749L-8.67239 161.533M8.26085 135.811L32.0402 128.625M8.26085 135.811L13.4181 150.052M32.0402 128.625L56.3733 123.259M32.0402 128.625L36.2286 140.186M56.3733 123.259L81.0034 119.769M56.3733 123.259L59.5497 132.029M81.0034 119.769L105.709 118.186M81.0034 119.769L83.1407 125.663M105.709 118.186L106.785 121.146M106.785 121.146L83.1407 125.663M106.785 121.146L108.752 124.043M83.1407 125.663L59.5497 132.029M83.1407 125.663L87.0485 131.43M59.5497 132.029L36.2286 140.186M59.5497 132.029L65.3673 140.611M36.2286 140.186L13.4181 150.052M36.2286 140.186L43.9088 151.498M13.4181 150.052L-8.67239 161.533M13.4181 150.052L22.8791 163.985M-8.67239 161.533L-29.8275 174.519M-8.67239 161.533L2.47209 177.953M-29.8275 174.519L-49.8553 188.882M-29.8275 174.519L-17.101 193.27M-49.8553 188.882L-68.5345 204.492M-49.8553 188.882L-35.6625 209.789M-68.5345 204.492L-85.7184 221.193M-68.5345 204.492L-53.0283 227.342M-85.7184 221.193L-69.0316 245.775M-85.7184 221.193L-101.216 238.818M-101.216 238.818L-83.5219 264.889M-101.216 238.818L-114.89 257.208M-114.89 257.208L-96.3535 284.524M-114.89 257.208L-126.607 276.187M-126.607 276.187L-107.408 304.469M-126.607 276.187L-136.256 295.554M-136.256 295.554L-116.577 324.551M-136.256 295.554L-143.739 315.15M-143.739 315.15L-123.772 344.564M-143.739 315.15L-148.988 334.762M-148.988 334.762L-151.952 354.21M-148.988 334.762L-128.926 364.315M-151.952 354.21L-152.6 373.311M-151.952 354.21L-131.986 383.624M-152.6 373.311L-150.929 391.875M-152.6 373.311L-132.923 402.298M-161.4 362.966L-150.929 391.875M-161.4 362.966L-157.063 381.813L-150.363 400.045L-147.107 409.033M-150.929 391.875L-147.107 409.033M-150.929 391.875L-131.73 420.156M-147.107 409.033L-146.746 410.029M-147.107 409.033L-146.953 409.725L-146.746 410.029M-146.746 410.029L-140.711 426.691M-146.746 410.029L-128.418 437.032M-140.711 426.691L-132.264 442.608L-115.582 467.18M-140.711 426.691L-123.017 452.762M-115.582 467.18L-123.017 452.762M-115.582 467.18L-91.9576 490.273M-115.582 467.18L-106.182 480.171L-94.9088 491.595L-74.817 511.237L-49.5941 528.849M-123.017 452.762L-128.418 437.032M-123.017 452.762L-97.9602 477.247M-128.418 437.032L-131.73 420.156M-128.418 437.032L-102.167 462.69M-131.73 420.156L-132.923 402.298M-131.73 420.156L-104.541 446.732M-132.923 402.298L-131.986 383.624M-132.923 402.298L-105.056 429.539M-131.986 383.624L-128.926 364.315M-131.986 383.624L-103.708 411.267M-123.772 344.564L-116.577 324.551M-123.772 344.564L-95.4975 372.196M-123.772 344.564L-128.926 364.315M-128.926 364.315L-100.513 392.088M-116.577 324.551L-107.408 304.469M-116.577 324.551L-88.7092 351.791M-107.408 304.469L-96.3535 284.524M-107.408 304.469L-80.2195 331.045M-96.3535 284.524L-83.5219 264.889M-96.3535 284.524L-70.1041 310.182M-83.5219 264.889L-69.0316 245.775M-83.5219 264.889L-58.4595 289.382M-69.0316 245.775L-53.0283 227.342M-69.0316 245.775L-45.4081 268.857M-53.0283 227.342L-35.6625 209.789M-53.0283 227.342L-31.0671 248.811M-35.6625 209.789L-17.101 193.27M-35.6625 209.789L-15.5688 229.42M2.47209 177.953L22.8791 163.985M2.47209 177.953L18.2556 193.381M2.47209 177.953L-17.101 193.27M-17.101 193.27L0.920058 210.887M22.8791 163.985L43.9088 151.498M22.8791 163.985L36.2654 177.075M43.9088 151.498L65.3673 140.611M43.9088 151.498L54.7827 162.125M65.3673 140.611L87.0485 131.43M65.3673 140.611L73.6185 148.672M108.752 124.043L87.0485 131.43M108.752 124.043L111.536 126.766M87.0485 131.43L92.5915 136.849M111.536 126.766L92.5915 136.849M111.536 126.766L115.027 129.209M92.5915 136.849L73.6185 148.672M92.5915 136.849L99.5578 141.708M73.6185 148.672L54.7827 162.125M73.6185 148.672L83.9719 155.905M54.7827 162.125L36.2654 177.075M54.7827 162.125L68.4291 171.659M36.2654 177.075L18.2556 193.381M36.2654 177.075L53.0877 188.825M18.2556 193.381L38.0813 207.231M18.2556 193.381L0.920058 210.887M0.920058 210.887L23.5521 226.7M0.920058 210.887L-15.5688 229.42M-15.5688 229.42L9.64933 247.043M-15.5688 229.42L-31.0671 248.811M-31.0671 248.811L-3.48681 268.071M-31.0671 248.811L-45.4081 268.857M-45.4081 268.857L-15.7509 289.575M-45.4081 268.857L-58.4595 289.382M-58.4595 289.382L-27.0048 311.357M-58.4595 289.382L-70.1041 310.182M-70.1041 310.182L-37.1449 333.198M-70.1041 310.182L-80.2195 331.045M-80.2195 331.045L-46.0848 354.89M-80.2195 331.045L-88.7092 351.791M-88.7092 351.791L-53.719 376.224M-88.7092 351.791L-95.4975 372.196M-95.4975 372.196L-59.9971 396.991M-95.4975 372.196L-100.513 392.088M-100.513 392.088L-103.708 411.267M-100.513 392.088L-64.8411 417.006M-103.708 411.267L-105.056 429.539M-103.708 411.267L-68.2083 436.061M-105.056 429.539L-104.541 446.732M-105.056 429.539L-70.0703 453.973M-104.541 446.732L-102.167 462.69M-104.541 446.732L-70.4051 470.577M-102.167 462.69L-97.9602 477.247M-102.167 462.69L-69.2128 485.706M-97.9602 477.247L-91.9576 490.273M-97.9602 477.247L-66.5008 499.221M-91.9576 490.273L-84.2172 501.64L-56.6427 520.902M-91.9576 490.273L-62.2975 510.99M-49.5941 528.849L-56.6427 520.902M-49.5941 528.849L-20.2116 543.777M-49.5941 528.849L-41.2161 534.765L-14.8538 548.152M-56.6427 520.902L-62.2975 510.99M-56.6427 520.902L-24.522 537.211M-62.2975 510.99L-66.5008 499.221M-62.2975 510.99L-27.7389 528.535M-66.5008 499.221L-69.2128 485.706M-66.5008 499.221L-29.8446 517.832M-69.2128 485.706L-70.4051 470.577M-69.2128 485.706L-30.8174 505.209M-70.4051 470.577L-70.0703 453.973M-70.4051 470.577L-30.636 490.77M-68.2083 436.061L-70.0703 453.973M-68.2083 436.061L-64.8411 417.006M-68.2083 436.061L-26.8521 457.059M-70.0703 453.973L-29.3088 474.666M-64.8411 417.006L-59.9971 396.991M-64.8411 417.006L-23.2822 438.11M-59.9971 396.991L-53.719 376.224M-59.9971 396.991L-18.6418 417.998M-53.719 376.224L-46.0848 354.89M-53.719 376.224L-12.9699 396.92M-46.0848 354.89L-37.1449 333.198M-46.0848 354.89L-6.31285 375.082M-37.1449 333.198L-27.0048 311.357M-37.1449 333.198L1.24273 352.693M-27.0048 311.357L-15.7509 289.575M-27.0048 311.357L9.65239 329.968M-15.7509 289.575L-3.48681 268.071M-15.7509 289.575L18.8106 307.119M-3.48681 268.071L9.64933 247.043M-3.48681 268.071L28.6367 284.381M9.64933 247.043L23.5521 226.7M9.64933 247.043L39.0347 261.961M23.5521 226.7L38.0813 207.231M23.5521 226.7L49.922 240.086M38.0813 207.231L53.0877 188.825M38.0813 207.231L61.1606 218.952M53.0877 188.825L68.4291 171.659M53.0877 188.825L72.6755 198.774M68.4291 171.659L83.9719 155.905M68.4291 171.659L84.336 179.737M83.9719 155.905L99.5578 141.708M83.9719 155.905L96.0329 162.032M115.027 129.209L119.105 131.276M115.027 129.209L99.5578 141.708M99.5578 141.708L107.662 145.826M119.105 131.276L107.662 145.826M119.105 131.276L123.597 132.892M107.662 145.826L96.0329 162.032M107.662 145.826L116.611 149.039M96.0329 162.032L109.345 166.813M96.0329 162.032L84.336 179.737M84.336 179.737L72.6755 198.774M84.336 179.737L101.884 186.047M72.6755 198.774L61.1606 218.952M72.6755 198.774L94.2848 206.54M61.1606 218.952L86.6386 228.105M61.1606 218.952L49.922 240.086M49.922 240.086L79.0032 250.541M49.922 240.086L39.0347 261.961M39.0347 261.961L71.4592 273.613M39.0347 261.961L28.6367 284.381M28.6367 284.381L64.074 297.119M28.6367 284.381L18.8106 307.119M18.8106 307.119L56.9283 320.824M18.8106 307.119L9.65239 329.968M9.65239 329.968L50.0837 344.496M9.65239 329.968L1.24273 352.693M1.24273 352.693L43.6036 367.915M1.24273 352.693L-6.31285 375.082M-6.31285 375.082L-12.9699 396.92M-6.31285 375.082L37.5611 390.856M-12.9699 396.92L-18.6418 417.998M-12.9699 396.92L32.0064 413.082M-18.6418 417.998L-23.2822 438.11M-18.6418 417.998L26.9898 434.403M-23.2822 438.11L-26.8521 457.059M-23.2822 438.11L22.5634 454.59M-26.8521 457.059L-29.3088 474.666M-26.8521 457.059L18.7795 473.463M-29.3088 474.666L-30.636 490.77M-29.3088 474.666L15.658 490.83M-30.636 490.77L-30.8174 505.209M-30.636 490.77L13.238 506.544M-30.8174 505.209L-29.8446 517.832M-30.8174 505.209L11.5434 520.432M-29.8446 517.832L-27.7389 528.535M-29.8446 517.832L10.5887 532.37M-27.7389 528.535L-24.522 537.211M-27.7389 528.535L10.3789 542.239M-24.522 537.211L-20.2116 543.777M-24.522 537.211L10.9248 549.948M-20.2116 543.777L-14.8538 548.152M-20.2116 543.777L12.2129 555.429M-14.8538 548.152L14.2389 558.615M14.2389 558.615L12.2129 555.429M14.2389 558.615L16.9663 559.472L43.8498 565.715M12.2129 555.429L10.9248 549.948M12.2129 555.429L46.4214 563.359M10.9248 549.948L10.3789 542.239M10.9248 549.948L48.3138 558.621M10.3789 542.239L10.5887 532.37M10.3789 542.239L50.6028 551.569M10.5887 532.37L11.5434 520.432M10.5887 532.37L53.2504 542.26M11.5434 520.432L13.238 506.544M11.5434 520.432L56.2383 530.796M13.238 506.544L15.658 490.83M13.238 506.544L59.5289 517.285M15.658 490.83L18.7795 473.463M15.658 490.83L63.1058 501.839M18.7795 473.463L22.5634 454.59M18.7795 473.463L66.9241 484.626M26.9898 434.403L31.9162 413.466M26.9898 434.403L26.9054 434.788M22.5634 454.59L26.9054 434.788M22.5634 454.59L70.939 465.814M32.0064 413.082L37.4656 391.239M32.0064 413.082L31.9162 413.466M43.6036 367.915L50.0837 344.496M43.6036 367.915L43.5032 368.296M37.5611 390.856L43.5032 368.296M37.5611 390.856L37.4656 391.239M50.0837 344.496L56.9283 320.824M50.0837 344.496L92.7474 354.396M56.9283 320.824L64.074 297.119M56.9283 320.824L97.1522 330.154M64.074 297.119L71.4592 273.613M64.074 297.119L101.474 305.8M71.4592 273.613L79.0032 250.541M71.4592 273.613L105.67 281.552M79.0032 250.541L86.6386 228.105M79.0032 250.541L109.689 257.657M86.6386 228.105L94.2848 206.54M86.6386 228.105L113.511 234.34M94.2848 206.54L101.884 186.047M94.2848 206.54L117.09 211.826M109.345 166.813L116.611 149.039M109.345 166.813L123.386 170.074M109.345 166.813L101.884 186.047M101.884 186.047L120.394 190.332M116.611 149.039L123.597 132.892M116.611 149.039L126.045 151.23M123.597 132.892L128.339 133.992M128.339 133.992L126.045 151.23M128.339 133.992L133.146 134.534M126.045 151.23L123.386 170.074M126.045 151.23L135.617 152.309M123.386 170.074L137.622 171.677M123.386 170.074L120.394 190.332M120.394 190.332L117.09 211.826M120.394 190.332L139.162 192.45M117.09 211.826L113.511 234.34M117.09 211.826L140.218 214.436M113.511 234.34L140.765 237.419M113.511 234.34L109.689 257.657M109.689 257.657L140.805 261.172M109.689 257.657L105.67 281.552M105.67 281.552L105.619 281.844M101.474 305.8L101.423 306.089M101.474 305.8L105.619 281.844M97.1522 330.154L97.0998 330.442M97.1522 330.154L101.423 306.089M92.7474 354.396L92.6937 354.684M92.7474 354.396L97.0998 330.442M42.68 368.105L43.5032 368.296M43.5032 368.296L87.3769 378.479L88.2455 378.577M36.6376 391.047L37.4656 391.239M37.4656 391.239L82.9285 401.787M31.0829 413.272L31.9162 413.466M31.9162 413.466L78.5212 424.283L79.3957 424.381M26.0663 434.593L26.9054 434.788M26.9054 434.788L74.2108 445.756L75.0748 445.853M70.939 465.814L66.9241 484.626M70.939 465.814L75.0748 445.853M70.939 465.814L119.987 471.341M66.9241 484.626L63.1058 501.839M66.9241 484.626L115.732 490.143M63.1058 501.839L59.5289 517.285M63.1058 501.839L111.212 507.272M59.5289 517.285L56.2383 530.796M59.5289 517.285L106.463 522.573M56.2383 530.796L53.2504 542.26M56.2383 530.796L101.549 535.912M53.2504 542.26L50.6028 551.569M53.2504 542.26L96.5085 547.144M50.6028 551.569L48.3138 558.621M50.6028 551.569L91.3808 556.17M48.3138 558.621L46.4214 563.359M48.3138 558.621L86.2264 562.9M46.4214 563.359L44.9251 565.731L76.0385 569.237M46.4214 563.359L81.1022 567.27M76.0385 569.237L81.1022 567.27M76.0385 569.237L106.383 569.01M86.2264 562.9L91.3808 556.17M86.2264 562.9L123.201 562.627M86.2264 562.9L81.1022 567.27M91.3808 556.17L96.5085 547.144M91.3808 556.17L131.149 555.868M96.5085 547.144L101.549 535.912M96.5085 547.144L138.684 546.822M101.549 535.912L106.463 522.573M101.549 535.912L145.736 535.573M106.463 522.573L111.212 507.272M106.463 522.573L152.236 522.224M111.212 507.272L115.732 490.143M111.212 507.272L158.123 506.907M115.732 490.143L119.987 471.341M115.732 490.143L163.325 489.766M75.0748 445.853L123.017 451.263M75.0748 445.853L75.1344 445.565L79.3957 424.381M119.987 471.341L123.94 451.073M119.987 471.341L167.821 470.975M79.3957 424.381L126.625 429.707M79.3957 424.381L79.4542 424.09L83.852 401.597M83.852 401.597L88.2455 378.577M83.852 401.597L130.786 406.885M88.2455 378.577L132.686 383.586L133.587 383.579M88.2455 378.577L88.3005 378.289L92.6937 354.684M130.786 406.885L133.587 383.579M130.786 406.885L176.559 406.536M130.786 406.885L127.548 429.516M91.8238 354.586L92.6937 354.684M92.6937 354.684L135.082 359.47L135.978 359.463M96.2287 330.344L97.0998 330.442M97.0998 330.442L137.007 334.945L137.916 334.938M100.551 305.99L101.423 306.089M101.423 306.089L138.464 310.269L139.376 310.262M104.737 281.744L105.619 281.844M105.619 281.844L139.427 285.654L140.334 285.647M140.805 261.172L140.765 237.419M140.805 261.172L171.147 260.936M140.805 261.172L140.341 285.466L140.334 285.647M140.765 237.419L140.218 214.436M140.765 237.419L167.332 237.216M139.162 192.45L140.218 214.436M139.162 192.45L137.622 171.677M139.162 192.45L157.466 192.312M140.218 214.436L162.763 214.267M137.622 171.677L135.617 152.309M137.622 171.677L151.506 171.575M135.617 152.309L133.146 134.534M135.617 152.309L144.943 152.243M133.146 134.534L137.833 134.499M137.833 134.499L144.943 152.243M137.833 134.499L142.223 133.885M144.943 152.243L151.506 171.575M144.943 152.243L153.683 151.018M151.506 171.575L164.511 169.759M151.506 171.575L157.466 192.312M157.466 192.312L162.763 214.267M157.466 192.312L174.601 189.923M162.763 214.267L167.332 237.216M162.763 214.267L183.863 211.32M167.332 237.216L192.213 233.738M167.332 237.216L171.147 260.936M171.147 260.936L199.56 256.968M171.147 260.936L174.163 285.207M140.334 285.647L173.239 285.397M140.334 285.647L139.387 310.078L139.376 310.262M139.376 310.262L175.437 309.986M139.376 310.262L137.93 334.755L137.916 334.938M137.916 334.938L176.775 334.643M137.916 334.938L135.996 359.282L135.978 359.463M135.978 359.463L177.258 359.148M135.978 359.463L133.609 383.396L133.587 383.579M133.587 383.579L176.875 383.256M176.559 406.536L219.404 400.548M176.559 406.536L174.462 429.161M176.559 406.536L177.798 383.066M127.548 429.516L174.462 429.161M127.548 429.516L123.94 451.073M174.462 429.161L171.545 450.704M174.462 429.161L218.377 423.022M123.94 451.073L171.545 450.704M171.545 450.704L216.099 444.483M171.545 450.704L167.821 470.975M167.821 470.975L212.597 464.727M167.821 470.975L163.325 489.766M163.325 489.766L158.123 506.907M163.325 489.766L207.888 483.543M158.123 506.907L152.236 522.224M158.123 506.907L202.03 500.779M152.236 522.224L145.736 535.573M152.236 522.224L195.083 516.245M145.736 535.573L138.684 546.822M145.736 535.573L187.106 529.799M138.684 546.822L131.149 555.868M138.684 546.822L178.172 541.307M131.149 555.868L123.201 562.627M131.149 555.868L168.379 550.669M123.201 562.627L114.924 567.012M123.201 562.627L157.816 557.788M81.1022 567.27L114.924 567.012M106.383 569.01L114.924 567.012M106.383 569.01L134.786 565.044L146.579 562.594M114.924 567.012L146.579 562.594M146.579 562.594L157.816 557.788M146.579 562.594L174.868 554.176L188.734 548.589M157.816 557.788L168.379 550.669M157.816 557.788L188.734 548.589M168.379 550.669L178.172 541.307M168.379 550.669L201.644 540.769M178.172 541.307L187.106 529.799M178.172 541.307L213.458 530.811M187.106 529.799L195.083 516.245M187.106 529.799L224.065 518.8M195.083 516.245L202.03 500.779M195.083 516.245L233.36 504.855M202.03 500.779L207.888 483.543M202.03 500.779L241.271 489.102M212.597 464.727L216.099 444.483M212.597 464.727L252.595 452.825M212.597 464.727L207.888 483.543M207.888 483.543L247.702 471.708M216.099 444.483L218.377 423.022M216.099 444.483L255.91 432.638M218.377 423.022L219.404 400.548M218.377 423.022L257.61 411.356M219.404 400.548L219.166 377.282M219.404 400.548L257.683 389.168M177.798 383.066L178.181 358.958M177.798 383.066L219.166 377.282M178.181 358.958L217.669 353.442M178.181 358.958L177.698 334.452M217.669 353.442L214.929 329.253M217.669 353.442L252.955 342.947M217.669 353.442L219.166 377.282M219.166 377.282L256.127 366.293M177.698 334.452L214.929 329.253M177.698 334.452L176.36 309.796M214.929 329.253L210.975 304.957M214.929 329.253L248.195 319.363M176.36 309.796L210.975 304.957M176.36 309.796L174.163 285.207M210.975 304.957L205.827 280.788M210.975 304.957L241.893 295.759M174.163 285.207L205.827 280.788M205.827 280.788L199.56 256.968M205.827 280.788L234.116 272.369M199.56 256.968L192.213 233.738M199.56 256.968L224.932 249.418M192.213 233.738L183.863 211.32M192.213 233.738L214.433 227.125M174.601 189.923L183.863 211.32M174.601 189.923L164.511 169.759M174.601 189.923L189.911 185.37M183.863 211.32L202.725 205.707M164.511 169.759L153.683 151.018M164.511 169.759L176.117 166.306M153.683 151.018L142.223 133.885M153.683 151.018L161.482 148.697M142.223 133.885L146.141 132.72M146.141 132.72L161.482 148.697M146.141 132.72L149.448 131.044M161.482 148.697L176.117 166.306M161.482 148.697L168.05 145.359M176.117 166.306L185.903 161.342M176.117 166.306L189.911 185.37M189.911 185.37L202.725 205.707M189.911 185.37L202.804 178.823M202.725 205.707L214.433 227.125M202.725 205.707L218.604 197.651M214.433 227.125L233.152 217.631M214.433 227.125L224.932 249.418M224.932 249.418L246.3 238.574M224.932 249.418L234.116 272.369M234.116 272.369L257.939 260.285M234.116 272.369L241.893 295.759M241.893 295.759L267.936 282.552M241.893 295.759L248.195 319.363M248.195 319.363L276.203 305.146M248.195 319.363L252.955 342.947M252.955 342.947L282.662 327.874M252.955 342.947L256.127 366.293M256.127 366.293L287.254 350.5M256.127 366.293L257.683 389.168M257.683 389.168L289.925 372.808M257.683 389.168L257.61 411.356M257.61 411.356L255.91 432.638M257.61 411.356L290.661 394.591M255.91 432.638L252.595 452.825M255.91 432.638L289.439 415.637M252.595 452.825L247.702 471.708M252.595 452.825L286.283 435.73M247.702 471.708L241.271 489.102M247.702 471.708L281.228 454.697M241.271 489.102L233.36 504.855M241.271 489.102L274.313 472.34M233.36 504.855L224.065 518.8M233.36 504.855L265.602 488.496M224.065 518.8L213.458 530.811M224.065 518.8L255.185 503.019M213.458 530.811L201.644 540.769M213.458 530.811L241.992 516.333M201.644 540.769L188.734 548.589M201.644 540.769L229.654 526.561M188.734 548.589L214.784 535.372L229.654 526.561M229.654 526.561L241.992 516.333M241.992 516.333L243.165 515.738M241.992 516.333L244.811 513.997M243.165 515.738L244.811 513.997M243.165 515.738L266.173 496.666L279.286 483.037M255.185 503.019L265.602 488.496M255.185 503.019L279.286 483.037M255.185 503.019L244.811 513.997M265.602 488.496L274.313 472.34M265.602 488.496L290.56 467.811M274.313 472.34L281.228 454.697M274.313 472.34L299.89 451.14M281.228 454.697L286.283 435.73M281.228 454.697L307.187 433.181M286.283 435.73L289.439 415.637M286.283 435.73L312.369 414.109M289.439 415.637L290.661 394.591M289.439 415.637L315.397 394.12M289.925 372.808L287.254 350.5M289.925 372.808L314.883 352.123M289.925 372.808L290.661 394.591M290.661 394.591L316.236 373.382M287.254 350.5L282.662 327.874M287.254 350.5L311.346 330.52M282.662 327.874L276.203 305.146M282.662 327.874L305.661 308.804M276.203 305.146L267.936 282.552M276.203 305.146L297.889 287.17M267.936 282.552L257.939 260.285M267.936 282.552L288.094 265.834M257.939 260.285L246.3 238.574M257.939 260.285L276.378 245.002M246.3 238.574L233.152 217.631M246.3 238.574L262.849 224.862M233.152 217.631L218.604 197.651M233.152 217.631L247.64 205.624M218.604 197.651L202.804 178.823M218.604 197.651L230.895 187.457M185.903 161.342L168.05 145.359M185.903 161.342L193.474 155.068M185.903 161.342L202.804 178.823M202.804 178.823L212.783 170.554M168.05 145.359L149.448 131.044M168.05 145.359L173.147 141.144M149.448 131.044L151.999 128.925M151.999 128.925L173.147 141.144M151.999 128.925L153.711 126.443M173.147 141.144L193.474 155.068M173.147 141.144L176.556 136.204M193.474 155.068L198.548 147.71M193.474 155.068L212.783 170.554M212.783 170.554L230.895 187.457M212.783 170.554L219.47 160.859M230.895 187.457L247.64 205.624M230.895 187.457L239.137 175.526M247.64 205.624L262.849 224.862M247.64 205.624L257.347 191.555M262.849 224.862L273.94 208.791M262.849 224.862L276.378 245.002M276.378 245.002L288.094 265.834M276.378 245.002L288.737 227.092M288.094 265.834L301.608 246.256M288.094 265.834L297.889 287.17M297.889 287.17L312.42 266.122M297.889 287.17L305.661 308.804M305.661 308.804L311.346 330.52M305.661 308.804L321.079 286.471M311.346 330.52L314.883 352.123M311.346 330.52L327.488 307.126M314.883 352.123L316.236 373.382M314.883 352.123L331.606 327.885M316.236 373.382L315.397 394.12M316.236 373.382L333.373 348.552M315.397 394.12L312.369 414.109M315.397 394.12L332.785 368.921M312.369 414.109L307.187 433.181M312.369 414.109L329.842 388.792L332.785 368.921M307.187 433.181L299.89 451.14M307.187 433.181L324.575 407.981M299.89 451.14L290.56 467.811M299.89 451.14L317.034 426.298M290.56 467.811L279.286 483.037M290.56 467.811L307.283 443.572L317.034 426.298M244.811 513.997L251.339 508.585M317.034 426.298L324.575 407.981M324.575 407.981L332.728 380.059L338.036 360.733L340.938 340.999M332.785 368.921L333.373 348.552M332.785 368.921L340.938 340.999M333.373 348.552L331.606 327.885M333.373 348.552L341.41 321.031M331.606 327.885L327.488 307.126M331.606 327.885L339.447 301.049M327.488 307.126L321.079 286.471M327.488 307.126L335.061 281.209M312.42 266.122L301.608 246.256M312.42 266.122L319.236 242.793M312.42 266.122L321.079 286.471M321.079 286.471L328.299 261.729M301.608 246.256L288.737 227.092M301.608 246.256L307.94 224.575M273.94 208.791L257.347 191.555M273.94 208.791L279.137 190.996M273.94 208.791L288.737 227.092M288.737 227.092L294.527 207.259M257.347 191.555L239.137 175.526M257.347 191.555L261.907 175.966M239.137 175.526L219.47 160.859M239.137 175.526L243.001 162.293M198.548 147.71L176.556 136.204M198.548 147.71L200.921 139.569M198.548 147.71L219.47 160.859M219.47 160.859L222.609 150.128M176.556 136.204L153.711 126.443M176.556 136.204L178.148 130.732M153.711 126.443L154.515 123.693M154.515 123.693L178.148 130.732M178.148 130.732L200.921 139.569M200.921 139.569L222.609 150.128M222.609 150.128L243.001 162.293M243.001 162.293L261.907 175.966M261.907 175.966L279.137 190.996M279.137 190.996L294.527 207.259M294.527 207.259L307.94 224.575M307.94 224.575L319.236 242.793M319.236 242.793L328.299 261.729M328.299 261.729L335.061 281.209M328.299 261.729L327.07 235.531M335.061 281.209L339.447 301.049M339.447 301.049L338.106 272.621M341.41 321.031L340.938 340.999M341.41 321.031L340.044 291.904L338.106 272.621" stroke="white" stroke-linecap="round" stroke-linejoin="round"/>
</g>
<path d="M26.0507 22.9V26.514H22.6707V22.9H20.8767V32H22.6707V28.23H26.0507V32H27.8317V22.9H26.0507ZM33.3362 22.9H29.7222V32H33.3362C35.8452 32 37.7172 30.011 37.7172 27.45C37.7172 24.889 35.8452 22.9 33.3362 22.9ZM33.3362 30.284H31.5162V24.616H33.3362C34.9092 24.616 36.0012 25.773 36.0012 27.45C36.0012 29.127 34.9092 30.284 33.3362 30.284ZM44.6238 24.616V22.9H39.1898V32H40.9838V28.49H44.5198V26.774H40.9838V24.616H44.6238ZM50.447 32.182C52.124 32.182 53.593 31.337 54.36 30.037L52.813 29.14C52.384 29.933 51.487 30.427 50.447 30.427C48.666 30.427 47.496 29.192 47.496 27.45C47.496 25.695 48.666 24.46 50.447 24.46C51.487 24.46 52.371 24.954 52.813 25.76L54.36 24.863C53.58 23.563 52.111 22.718 50.447 22.718C47.691 22.718 45.715 24.785 45.715 27.45C45.715 30.102 47.691 32.182 50.447 32.182ZM64.7127 27.281C65.2457 26.852 65.5707 26.241 65.5707 25.461C65.5707 23.94 64.3357 22.9 62.8017 22.9H59.2137V32H63.0747C64.6477 32 65.9087 30.921 65.9087 29.361C65.9087 28.412 65.4407 27.697 64.7127 27.281ZM62.8017 24.577C63.3737 24.577 63.7767 25.006 63.7767 25.578C63.7767 26.15 63.3607 26.579 62.8017 26.579H61.0077V24.577H62.8017ZM63.0747 30.323H61.0077V28.178H63.0747C63.6857 28.178 64.1277 28.633 64.1277 29.244C64.1277 29.868 63.6857 30.323 63.0747 30.323ZM70.6143 32.182C72.6163 32.182 74.0983 30.986 74.0983 29.023V22.9H72.3043V28.88C72.3043 29.764 71.8363 30.427 70.6143 30.427C69.3923 30.427 68.9243 29.764 68.9243 28.88V22.9H67.1433V29.023C67.1433 30.986 68.6253 32.182 70.6143 32.182ZM79.0214 32.182C80.9584 32.182 82.3234 31.142 82.3234 29.439C82.3234 27.58 80.7894 27.099 79.3464 26.644C77.9684 26.228 77.6174 25.929 77.6174 25.37C77.6174 24.85 78.0594 24.46 78.8134 24.46C79.7364 24.46 80.2304 24.941 80.5554 25.63L82.0634 24.759C81.4524 23.485 80.3084 22.718 78.8134 22.718C77.2534 22.718 75.8234 23.706 75.8234 25.422C75.8234 27.151 77.1754 27.736 78.5664 28.139C79.9184 28.529 80.5294 28.789 80.5294 29.465C80.5294 29.972 80.1524 30.427 79.0734 30.427C77.9424 30.427 77.3054 29.881 76.9804 29.036L75.4464 29.933C75.9404 31.285 77.1624 32.182 79.0214 32.182ZM86.5212 32.182C88.4582 32.182 89.8232 31.142 89.8232 29.439C89.8232 27.58 88.2892 27.099 86.8462 26.644C85.4682 26.228 85.1172 25.929 85.1172 25.37C85.1172 24.85 85.5592 24.46 86.3132 24.46C87.2362 24.46 87.7302 24.941 88.0552 25.63L89.5632 24.759C88.9522 23.485 87.8082 22.718 86.3132 22.718C84.7532 22.718 83.3232 23.706 83.3232 25.422C83.3232 27.151 84.6752 27.736 86.0662 28.139C87.4182 28.529 88.0292 28.789 88.0292 29.465C88.0292 29.972 87.6522 30.427 86.5732 30.427C85.4422 30.427 84.8052 29.881 84.4802 29.036L82.9462 29.933C83.4402 31.285 84.6622 32.182 86.5212 32.182ZM91.1299 22.9V32H92.9239V22.9H91.1299ZM100.073 22.9V28.451L96.1734 22.9H94.8084V32H96.6024V26.436L100.502 32H101.867V22.9H100.073ZM105.549 30.284V28.243H108.994V26.553H105.549V24.616H109.319V22.9H103.755V32H109.384V30.284H105.549ZM113.956 32.182C115.893 32.182 117.258 31.142 117.258 29.439C117.258 27.58 115.724 27.099 114.281 26.644C112.903 26.228 112.552 25.929 112.552 25.37C112.552 24.85 112.994 24.46 113.748 24.46C114.671 24.46 115.165 24.941 115.49 25.63L116.998 24.759C116.387 23.485 115.243 22.718 113.748 22.718C112.188 22.718 110.758 23.706 110.758 25.422C110.758 27.151 112.11 27.736 113.501 28.139C114.853 28.529 115.464 28.789 115.464 29.465C115.464 29.972 115.087 30.427 114.008 30.427C112.877 30.427 112.24 29.881 111.915 29.036L110.381 29.933C110.875 31.285 112.097 32.182 113.956 32.182ZM121.456 32.182C123.393 32.182 124.758 31.142 124.758 29.439C124.758 27.58 123.224 27.099 121.781 26.644C120.403 26.228 120.052 25.929 120.052 25.37C120.052 24.85 120.494 24.46 121.248 24.46C122.171 24.46 122.665 24.941 122.99 25.63L124.498 24.759C123.887 23.485 122.743 22.718 121.248 22.718C119.688 22.718 118.258 23.706 118.258 25.422C118.258 27.151 119.61 27.736 121.001 28.139C122.353 28.529 122.964 28.789 122.964 29.465C122.964 29.972 122.587 30.427 121.508 30.427C120.377 30.427 119.74 29.881 119.415 29.036L117.881 29.933C118.375 31.285 119.597 32.182 121.456 32.182ZM138.483 22.9H136.637L134.037 27.203L131.424 22.9H129.578V32H131.372V26.111L133.933 30.323H134.141L136.702 26.098V32H138.483V22.9ZM144.681 32.182C147.307 32.182 149.413 30.102 149.413 27.45C149.413 24.785 147.307 22.718 144.681 22.718C142.055 22.718 139.962 24.785 139.962 27.45C139.962 30.102 142.055 32.182 144.681 32.182ZM144.681 30.427C143.03 30.427 141.743 29.192 141.743 27.45C141.743 25.695 143.03 24.46 144.681 24.46C146.332 24.46 147.619 25.695 147.619 27.45C147.619 29.192 146.332 30.427 144.681 30.427ZM156.139 22.9V28.451L152.239 22.9H150.874V32H152.668V26.436L156.568 32H157.933V22.9H156.139ZM161.615 30.284V28.243H165.06V26.553H161.615V24.616H165.385V22.9H159.821V32H165.45V30.284H161.615ZM174.117 22.9H172.089L170.113 26.696L168.137 22.9H166.109L169.216 28.451V32H170.997V28.451L174.117 22.9ZM180.688 27.281C181.221 26.852 181.546 26.241 181.546 25.461C181.546 23.94 180.311 22.9 178.777 22.9H175.189V32H179.05C180.623 32 181.884 30.921 181.884 29.361C181.884 28.412 181.416 27.697 180.688 27.281ZM178.777 24.577C179.349 24.577 179.752 25.006 179.752 25.578C179.752 26.15 179.336 26.579 178.777 26.579H176.983V24.577H178.777ZM179.05 30.323H176.983V28.178H179.05C179.661 28.178 180.103 28.633 180.103 29.244C180.103 29.868 179.661 30.323 179.05 30.323ZM189.11 32H191.06L187.862 22.9H185.639L182.454 32H184.391L184.937 30.362H188.564L189.11 32ZM185.509 28.685L186.757 24.967L188.005 28.685H185.509ZM196.13 32.182C197.807 32.182 199.276 31.337 200.043 30.037L198.496 29.14C198.067 29.933 197.17 30.427 196.13 30.427C194.349 30.427 193.179 29.192 193.179 27.45C193.179 25.695 194.349 24.46 196.13 24.46C197.17 24.46 198.054 24.954 198.496 25.76L200.043 24.863C199.263 23.563 197.794 22.718 196.13 22.718C193.374 22.718 191.398 24.785 191.398 27.45C191.398 30.102 193.374 32.182 196.13 32.182ZM208.456 32L204.959 27.32L208.326 22.9H206.259L203.139 26.917V22.9H201.345V32H203.139V27.736L206.389 32H208.456Z" fill="white"/>
<g clip-path="url(#clip2_161_6843)">
<path d="M36.0764 42.5117C34.3287 42.5117 32.7668 43.4176 32.7668 45.0913C32.7668 47.0107 35.5368 47.1433 35.5368 48.1076C35.5368 48.5136 35.0716 48.877 34.2769 48.877C33.149 48.877 32.3061 48.3692 32.3061 48.3692L31.9454 50.0581C31.9454 50.0581 32.9165 50.4871 34.2057 50.4871C36.1165 50.4871 37.6201 49.5367 37.6201 47.8344C37.6201 45.8062 34.8386 45.6776 34.8386 44.7826C34.8386 44.4645 35.2205 44.116 36.0129 44.116C36.907 44.116 37.6365 44.4854 37.6365 44.4854L37.9895 42.8541C37.9895 42.8541 37.1958 42.5117 36.0764 42.5117ZM20.0863 42.6348L20.0439 42.8811C20.0439 42.8811 20.7792 43.0156 21.4415 43.2841C22.2941 43.5919 22.3549 43.7711 22.4985 44.3276L24.0634 50.3601H26.1611L29.3928 42.6348H27.2999L25.2233 47.8873L24.376 43.4351C24.2982 42.9255 23.9046 42.6348 23.4228 42.6348H20.0863ZM30.2344 42.6348L28.5925 50.3601H30.5883L32.2244 42.6348H30.2344ZM41.3654 42.6348C40.8842 42.6348 40.6292 42.8925 40.4421 43.3427L37.5182 50.3601H39.6111L40.016 49.1906H42.5658L42.812 50.3601H44.6587L43.0477 42.6348H41.3654ZM41.6376 44.722L42.258 47.6209H40.596L41.6376 44.722Z" fill="white"/>
</g>
<path d="M54.6409 43L52.8009 43.65L53.0809 44.63L54.4909 44.23V50H55.6409V43H54.6409ZM58.7016 50H63.3116V48.89H60.4116L61.9916 47.31C62.6616 46.63 63.1816 45.9 63.1816 45.03C63.1816 43.64 62.0916 42.87 60.9416 42.87C60.0116 42.87 59.1316 43.33 58.6816 44.29L59.6516 44.86C59.9216 44.3 60.3716 43.99 60.9516 43.99C61.5516 43.99 62.0316 44.37 62.0316 45.07C62.0316 45.6 61.6416 46.11 61.1416 46.61L58.7016 49.1V50ZM68.9269 45.86L70.3469 43.98V43H66.0469V44.08H68.9769L67.4669 46.07L67.9269 46.76H68.1869C68.9769 46.76 69.4869 47.18 69.4869 47.88C69.4869 48.58 68.9769 49.01 68.1869 49.01C67.4869 49.01 67.0169 48.7 66.8169 48.11L65.8369 48.68C66.2269 49.66 67.1569 50.13 68.1869 50.13C69.4769 50.13 70.6369 49.35 70.6369 47.88C70.6369 46.79 69.8869 46.09 68.9269 45.86ZM78.715 47.67H77.915V45.85H76.755V47.67H74.565L76.975 43H75.725L73.315 47.67V48.74H76.755V50H77.915V48.74H78.715V47.67ZM88.1357 45.64H87.2557L87.3757 44.08H90.2157V43H86.3157L86.0457 46.76H88.0857C88.8457 46.76 89.3657 47.18 89.3657 47.88C89.3657 48.58 88.8457 49.01 88.0657 49.01C87.3357 49.01 86.8557 48.68 86.6757 48.06L85.6857 48.63C86.0557 49.64 87.0057 50.13 88.0657 50.13C89.3557 50.13 90.5157 49.35 90.5157 47.88C90.5157 46.42 89.4057 45.64 88.1357 45.64ZM95.565 45.35H95.435L97.035 43H95.725L93.505 46.33C93.235 46.72 93.085 47.2 93.085 47.74C93.085 49.15 94.105 50.13 95.565 50.13C97.015 50.13 98.035 49.15 98.035 47.74C98.035 46.33 97.015 45.35 95.565 45.35ZM95.565 49.04C94.795 49.04 94.235 48.54 94.235 47.74C94.235 46.94 94.795 46.44 95.565 46.44C96.325 46.44 96.885 46.94 96.885 47.74C96.885 48.53 96.325 49.04 95.565 49.04ZM105.939 50L103.749 46.4L105.819 43H104.509L103.089 45.33L101.669 43H100.369L102.439 46.4L100.239 50H101.549L103.089 47.47L104.629 50H105.939ZM113.935 50L111.745 46.4L113.815 43H112.505L111.085 45.33L109.665 43H108.365L110.435 46.4L108.235 50H109.545L111.085 47.47L112.625 50H113.935ZM126.431 50L124.241 46.4L126.311 43H125.001L123.581 45.33L122.161 43H120.861L122.931 46.4L120.731 50H122.041L123.581 47.47L125.121 50H126.431ZM134.427 50L132.237 46.4L134.307 43H132.997L131.577 45.33L130.157 43H128.857L130.927 46.4L128.727 50H130.037L131.577 47.47L133.117 50H134.427ZM142.423 50L140.233 46.4L142.303 43H140.993L139.573 45.33L138.153 43H136.853L138.923 46.4L136.723 50H138.033L139.573 47.47L141.113 50H142.423ZM150.419 50L148.229 46.4L150.299 43H148.989L147.569 45.33L146.149 43H144.849L146.919 46.4L144.719 50H146.029L147.569 47.47L149.109 50H150.419ZM157.375 50H161.985V48.89H159.085L160.665 47.31C161.335 46.63 161.855 45.9 161.855 45.03C161.855 43.64 160.765 42.87 159.615 42.87C158.685 42.87 157.805 43.33 157.355 44.29L158.325 44.86C158.595 44.3 159.045 43.99 159.625 43.99C160.225 43.99 160.705 44.37 160.705 45.07C160.705 45.6 160.315 46.11 159.815 46.61L157.375 49.1V50ZM167.411 50.13C169.171 50.13 170.161 48.66 170.161 46.5C170.161 44.34 169.171 42.87 167.411 42.87C165.651 42.87 164.661 44.34 164.661 46.5C164.661 48.66 165.651 50.13 167.411 50.13ZM167.411 49.01C166.381 49.01 165.811 48.11 165.811 46.5C165.811 44.89 166.381 43.99 167.411 43.99C168.451 43.99 169.011 44.89 169.011 46.5C169.011 48.11 168.451 49.01 167.411 49.01ZM172.723 50H177.333V48.89H174.433L176.013 47.31C176.683 46.63 177.203 45.9 177.203 45.03C177.203 43.64 176.113 42.87 174.963 42.87C174.033 42.87 173.153 43.33 172.703 44.29L173.673 44.86C173.943 44.3 174.393 43.99 174.973 43.99C175.573 43.99 176.053 44.37 176.053 45.07C176.053 45.6 175.663 46.11 175.163 46.61L172.723 49.1V50ZM180.016 50H184.626V48.89H181.726L183.306 47.31C183.976 46.63 184.496 45.9 184.496 45.03C184.496 43.64 183.406 42.87 182.256 42.87C181.326 42.87 180.446 43.33 179.996 44.29L180.966 44.86C181.236 44.3 181.686 43.99 182.266 43.99C182.866 43.99 183.346 44.37 183.346 45.07C183.346 45.6 182.956 46.11 182.456 46.61L180.016 49.1V50Z" fill="white"/>
<g clip-path="url(#clip3_161_6843)">
<path d="M234.792 25.61C234.792 19.8768 238.415 15.9512 244.476 15.9512C249.419 15.9512 252.336 18.5087 253.095 22.5892L250.51 22.8464C249.925 19.903 247.771 18.0944 244.349 18.0944C239.988 18.0944 237.403 21.0389 237.403 25.585C237.403 29.975 240.014 33.1518 244.425 33.1518C247.671 33.1518 249.851 31.4991 250.636 28.6272L253.091 29.0665C252.027 32.8112 249.234 35.3164 244.37 35.3164C238.138 35.3212 234.792 31.1895 234.792 25.61ZM254.617 28.3486C254.617 24.1645 257.532 21.5033 261.864 21.5033C266.196 21.5033 269.09 24.1645 269.09 28.3486C269.09 32.5326 266.203 35.1938 261.867 35.1938C257.532 35.1938 254.617 32.5326 254.617 28.3486ZM266.736 28.3486C266.736 25.223 264.86 23.4667 261.867 23.4667C258.875 23.4667 257 25.223 257 28.3486C257 31.4741 258.876 33.2303 261.867 33.2303C264.858 33.2303 266.736 31.4729 266.736 28.3486ZM277.663 21.5295C277.986 21.5278 278.308 21.5537 278.626 21.6069V23.8287C278.365 23.7965 278.102 23.779 277.839 23.7763C276.243 23.7763 275.254 24.2419 274.543 25.017C273.403 26.2077 273.225 27.883 273.225 29.5619V34.8009H270.995V21.8915H273.073V25.1718C273.732 23.0798 275.406 21.5295 277.663 21.5295ZM280.198 21.8867H282.353V24.4229C283.392 22.563 285.446 21.5009 287.905 21.5009C291.785 21.5009 294.37 24.2133 294.37 28.3712C294.37 32.4552 291.632 35.1938 287.778 35.1938C285.344 35.1938 283.265 34.0567 282.428 32.6112V39.8374H280.198V21.8867ZM292.013 28.3688C292.013 25.3219 290.237 23.487 287.322 23.487C284.407 23.487 282.378 25.2945 282.378 28.058V28.6534C282.378 31.4169 284.28 33.1994 287.17 33.1994C290.161 33.2042 292.013 31.3955 292.013 28.3736V28.3688ZM295.663 31.3646C295.663 30.1251 296.22 29.0665 297.235 28.4212C298.17 27.8521 299.39 27.4687 301.95 27.2305L306.666 26.8733V26.6352C306.666 24.3883 305.322 23.3298 302.737 23.3298C300.282 23.3298 298.756 24.2823 298.529 26.041H296.094C296.372 23.3381 298.907 21.5009 302.737 21.5009C306.894 21.5009 308.922 23.2346 308.922 26.9019V30.312C308.922 32.5076 309.024 33.6459 309.303 34.8056H306.965C306.84 33.978 306.773 33.1425 306.763 32.3052C305.799 34.165 303.797 35.1985 300.802 35.1985C297.691 35.1938 295.663 33.7197 295.663 31.3693V31.3646ZM306.691 29.1439V28.4986L301.548 28.9891C298.937 29.2737 298.05 29.9417 298.05 31.3134C298.05 32.6302 299.266 33.3792 301.422 33.3792C304.537 33.3839 306.691 31.7313 306.691 29.1487V29.1439ZM310.646 39.9398V37.9323C311.008 37.981 311.372 38.0068 311.737 38.0097C313.74 38.0097 314.957 37.106 315.616 35.4271L315.894 34.7294L309.633 21.8915H312.218L316.605 31.3693C316.769 31.7633 316.905 32.1692 317.01 32.5838H317.035C317.137 32.2742 317.269 31.8611 317.44 31.3693L321.545 21.8915H324.03L317.844 35.6319C316.402 38.8849 314.576 40.0482 311.961 40.0482C311.521 40.05 311.081 40.0154 310.646 39.9446V39.9398Z" fill="white"/>
<path d="M335.211 24.0202H332.554L330.491 19.4361L328.428 24.0202H325.771L329.162 16.4844H331.819L335.211 24.0202Z" fill="#BE1549"/>
</g>
<path d="M26.8697 180H28.4817L25.1927 170.9H23.3987L20.0967 180H21.7217L22.3587 178.167H26.2327L26.8697 180ZM22.8527 176.763L24.2957 172.655L25.7387 176.763H22.8527ZM30.7541 175.294C30.7541 174.826 31.1961 174.605 31.7031 174.605C32.2361 174.605 32.6911 174.839 32.9251 175.346L34.1081 174.683C33.6531 173.825 32.7691 173.331 31.7031 173.331C30.3771 173.331 29.3241 174.098 29.3241 175.32C29.3241 177.647 32.8211 176.997 32.8211 178.154C32.8211 178.674 32.3401 178.882 31.7161 178.882C31.0011 178.882 30.4811 178.531 30.2731 177.946L29.0641 178.648C29.4801 179.584 30.4161 180.169 31.7161 180.169C33.1201 180.169 34.2511 179.467 34.2511 178.167C34.2511 175.762 30.7541 176.477 30.7541 175.294ZM39.0281 173.331C38.1441 173.331 37.4421 173.656 37.0131 174.332V170.9H35.6091V180H37.0131V176.516C37.0131 175.19 37.7411 174.644 38.6641 174.644C39.5481 174.644 40.1201 175.164 40.1201 176.152V180H41.5241V176.009C41.5241 174.319 40.4841 173.331 39.0281 173.331ZM43.9379 172.525C44.4319 172.525 44.8349 172.109 44.8349 171.628C44.8349 171.134 44.4319 170.731 43.9379 170.731C43.4439 170.731 43.0409 171.134 43.0409 171.628C43.0409 172.109 43.4439 172.525 43.9379 172.525ZM43.2359 180H44.6399V173.5H43.2359V180ZM47.693 175.294C47.693 174.826 48.135 174.605 48.642 174.605C49.175 174.605 49.63 174.839 49.864 175.346L51.047 174.683C50.592 173.825 49.708 173.331 48.642 173.331C47.316 173.331 46.263 174.098 46.263 175.32C46.263 177.647 49.76 176.997 49.76 178.154C49.76 178.674 49.279 178.882 48.655 178.882C47.94 178.882 47.42 178.531 47.212 177.946L46.003 178.648C46.419 179.584 47.355 180.169 48.655 180.169C50.059 180.169 51.19 179.467 51.19 178.167C51.19 175.762 47.693 176.477 47.693 175.294ZM55.967 173.331C55.083 173.331 54.381 173.656 53.952 174.332V170.9H52.548V180H53.952V176.516C53.952 175.19 54.68 174.644 55.603 174.644C56.487 174.644 57.059 175.164 57.059 176.152V180H58.463V176.009C58.463 174.319 57.423 173.331 55.967 173.331ZM70.5798 180L66.7708 175.333L70.4498 170.9H68.6688L65.2108 174.982V170.9H63.7158V180H65.2108V175.671L68.7988 180H70.5798ZM76.2091 173.5V174.423C75.7151 173.747 74.9481 173.331 73.9341 173.331C72.1661 173.331 70.6971 174.813 70.6971 176.75C70.6971 178.674 72.1661 180.169 73.9341 180.169C74.9481 180.169 75.7151 179.753 76.2091 179.064V180H77.6131V173.5H76.2091ZM74.1551 178.83C72.9851 178.83 72.1011 177.959 72.1011 176.75C72.1011 175.541 72.9851 174.67 74.1551 174.67C75.3251 174.67 76.2091 175.541 76.2091 176.75C76.2091 177.959 75.3251 178.83 74.1551 178.83ZM80.6725 175.294C80.6725 174.826 81.1145 174.605 81.6215 174.605C82.1545 174.605 82.6095 174.839 82.8435 175.346L84.0265 174.683C83.5715 173.825 82.6875 173.331 81.6215 173.331C80.2955 173.331 79.2425 174.098 79.2425 175.32C79.2425 177.647 82.7395 176.997 82.7395 178.154C82.7395 178.674 82.2585 178.882 81.6345 178.882C80.9195 178.882 80.3995 178.531 80.1915 177.946L78.9825 178.648C79.3985 179.584 80.3345 180.169 81.6345 180.169C83.0385 180.169 84.1695 179.467 84.1695 178.167C84.1695 175.762 80.6725 176.477 80.6725 175.294ZM88.9465 173.331C88.0625 173.331 87.3605 173.656 86.9315 174.332V170.9H85.5275V180H86.9315V176.516C86.9315 175.19 87.6595 174.644 88.5825 174.644C89.4665 174.644 90.0385 175.164 90.0385 176.152V180H91.4425V176.009C91.4425 174.319 90.4025 173.331 88.9465 173.331ZM97.4083 173.5L95.7443 178.219L93.8073 173.5H92.2733L95.0293 179.883L94.9643 180.013C94.6393 180.871 94.1453 181.339 93.2353 181.287V182.6C94.7303 182.691 95.7963 181.859 96.4073 180.208L98.9033 173.5H97.4083ZM104.875 173.5V174.423C104.381 173.747 103.614 173.331 102.6 173.331C100.832 173.331 99.3633 174.813 99.3633 176.75C99.3633 178.674 100.832 180.169 102.6 180.169C103.614 180.169 104.381 179.753 104.875 179.064V180H106.279V173.5H104.875ZM102.821 178.83C101.651 178.83 100.767 177.959 100.767 176.75C100.767 175.541 101.651 174.67 102.821 174.67C103.991 174.67 104.875 175.541 104.875 176.75C104.875 177.959 103.991 178.83 102.821 178.83ZM111.795 173.331C110.781 173.331 110.014 173.747 109.52 174.436V173.5H108.116V182.6H109.52V179.077C110.014 179.753 110.781 180.169 111.795 180.169C113.563 180.169 115.032 178.687 115.032 176.75C115.032 174.826 113.563 173.331 111.795 173.331ZM111.574 178.83C110.404 178.83 109.52 177.959 109.52 176.75C109.52 175.541 110.404 174.67 111.574 174.67C112.744 174.67 113.628 175.541 113.628 176.75C113.628 177.959 112.744 178.83 111.574 178.83Z" fill="#D2D2D2"/>
<g filter="url(#filter0_ii_161_6843)">
<g clip-path="url(#clip4_161_6843)">
<rect x="20.5317" y="106" width="40" height="30" rx="6" fill="url(#paint0_linear_161_6843)"/>
<path d="M20.5317 106H28.3724C30.5816 106 32.3724 107.791 32.3724 110V112C32.3724 114.209 30.5816 116 28.3724 116H20.5317V106Z" stroke="#0D0D0D" stroke-width="0.5"/>
<path d="M20.5317 116H28.3724C30.5816 116 32.3724 117.791 32.3724 120V122C32.3724 124.209 30.5816 126 28.3724 126H20.5317V116Z" stroke="#0D0D0D" stroke-width="0.5"/>
<path d="M20.5317 126H28.3724C30.5816 126 32.3724 127.791 32.3724 130V132C32.3724 134.209 30.5816 136 28.3724 136H20.5317V126Z" stroke="#0D0D0D" stroke-width="0.5"/>
<path d="M61.3726 136L53.5319 136C51.3227 136 49.5319 134.209 49.5319 132L49.5319 130C49.5319 127.791 51.3227 126 53.5319 126L61.3726 126L61.3726 136Z" stroke="#0D0D0D" stroke-width="0.5"/>
<path d="M61.3726 126L53.5319 126C51.3227 126 49.5319 124.209 49.5319 122L49.5319 120C49.5319 117.791 51.3227 116 53.5319 116L61.3726 116L61.3726 126Z" stroke="#0D0D0D" stroke-width="0.5"/>
<line x1="35.5293" y1="110.75" x2="45.5344" y2="110.75" stroke="#0D0D0D" stroke-width="0.5"/>
<line x1="35.5293" y1="132.229" x2="45.5344" y2="132.229" stroke="#0D0D0D" stroke-width="0.5"/>
</g>
</g>
</g>
<defs>
<filter id="filter0_ii_161_6843" x="20.5317" y="106" width="40" height="30" filterUnits="userSpaceOnUse" color-interpolation-filters="sRGB">
<feFlood flood-opacity="0" result="BackgroundImageFix"/>
<feBlend mode="normal" in="SourceGraphic" in2="BackgroundImageFix" result="shape"/>
<feColorMatrix in="SourceAlpha" type="matrix" values="0 0 0 0 0 0 0 0 0 0 0 0 0 0 0 0 0 0 127 0" result="hardAlpha"/>
<feOffset dx="0.5" dy="0.5"/>
<feComposite in2="hardAlpha" operator="arithmetic" k2="-1" k3="1"/>
<feColorMatrix type="matrix" values="0 0 0 0 0.160784 0 0 0 0 0.14902 0 0 0 0 0.152941 0 0 0 1 0"/>
<feBlend mode="normal" in2="shape" result="effect1_innerShadow_161_6843"/>
<feColorMatrix in="SourceAlpha" type="matrix" values="0 0 0 0 0 0 0 0 0 0 0 0 0 0 0 0 0 0 127 0" result="hardAlpha"/>
<feOffset dx="-0.5" dy="-0.5"/>
<feComposite in2="hardAlpha" operator="arithmetic" k2="-1" k3="1"/>
<feColorMatrix type="matrix" values="0 0 0 0 0.160784 0 0 0 0 0.14902 0 0 0 0 0.152941 0 0 0 0.44 0"/>
<feBlend mode="normal" in2="effect1_innerShadow_161_6843" result="effect2_innerShadow_161_6843"/>
</filter>
<linearGradient id="paint0_linear_161_6843" x1="21.0359" y1="109.109" x2="58.7607" y2="134.259" gradientUnits="userSpaceOnUse">
<stop stop-color="#CACED2"/>
<stop offset="0.494666" stop-color="white"/>
<stop offset="1" stop-color="#C7CBCF"/>
</linearGradient>
<clipPath id="clip0_161_6843">
<rect x="0.531738" width="351" height="200" rx="5" fill="white"/>
</clipPath>
<clipPath id="clip1_161_6843">
<rect width="317" height="134" fill="white" transform="translate(0.531738 66)"/>
</clipPath>
<clipPath id="clip2_161_6843">
<rect width="24.6394" height="8" fill="white" transform="translate(20.0317 42.5)"/>
</clipPath>
<clipPath id="clip3_161_6843">
<rect width="102" height="26" fill="white" transform="translate(234 15)"/>
</clipPath>
<clipPath id="clip4_161_6843">
<rect x="20.5317" y="106" width="40" height="30" rx="6" fill="white"/>
</clipPath>
</defs>
</svg>
