<svg width="352" height="200" viewBox="0 0 352 200" fill="none" xmlns="http://www.w3.org/2000/svg">
<g clip-path="url(#clip0_161_6844)">
<rect x="0.531738" width="351" height="200" rx="5" fill="#B43F28"/>
<path d="M14.6807 221.75C73.5288 144.725 221.336 19.5897 363.883 94.7066" stroke="white" stroke-opacity="0.7" stroke-width="22"/>
<path d="M14.6807 221.75C73.5288 144.725 225.989 10.034 365.042 87.4681" stroke="#A72B1B" stroke-width="22"/>
<path d="M20.8767 22.9V32H22.6707V22.9H20.8767ZM28.8713 32.182C30.5483 32.182 32.0173 31.337 32.7843 30.037L31.2373 29.14C30.8083 29.933 29.9113 30.427 28.8713 30.427C27.0903 30.427 25.9203 29.192 25.9203 27.45C25.9203 25.695 27.0903 24.46 28.8713 24.46C29.9113 24.46 30.7953 24.954 31.2373 25.76L32.7843 24.863C32.0043 23.563 30.5353 22.718 28.8713 22.718C26.1153 22.718 24.1393 24.785 24.1393 27.45C24.1393 30.102 26.1153 32.182 28.8713 32.182ZM34.0863 22.9V32H35.8803V22.9H34.0863ZM42.0808 32.182C43.7578 32.182 45.2268 31.337 45.9938 30.037L44.4468 29.14C44.0178 29.933 43.1208 30.427 42.0808 30.427C40.2998 30.427 39.1298 29.192 39.1298 27.45C39.1298 25.695 40.2998 24.46 42.0808 24.46C43.1208 24.46 44.0048 24.954 44.4468 25.76L45.9938 24.863C45.2138 23.563 43.7448 22.718 42.0808 22.718C39.3248 22.718 37.3488 24.785 37.3488 27.45C37.3488 30.102 39.3248 32.182 42.0808 32.182ZM47.2959 22.9V32H49.0899V22.9H47.2959ZM60.2744 32H62.2244L59.0264 22.9H56.8034L53.6184 32H55.5554L56.1014 30.362H59.7284L60.2744 32ZM56.6734 28.685L57.9214 24.967L59.1694 28.685H56.6734ZM72.213 22.9H70.367L67.767 27.203L65.154 22.9H63.308V32H65.102V26.111L67.663 30.323H67.871L70.432 26.098V32H72.213V22.9ZM79.9586 32H81.9086L78.7106 22.9H76.4876L73.3026 32H75.2396L75.7856 30.362H79.4126L79.9586 32ZM76.3576 28.685L77.6056 24.967L78.8536 28.685H76.3576ZM89.9212 32L87.1262 27.32L89.7652 22.9H87.7372L86.1122 25.63L84.4872 22.9H82.4592L85.0982 27.333L82.3162 32H84.3442L86.1122 29.036L87.8802 32H89.9212ZM94.9346 32.182C97.5606 32.182 99.6666 30.102 99.6666 27.45C99.6666 24.785 97.5606 22.718 94.9346 22.718C92.3086 22.718 90.2156 24.785 90.2156 27.45C90.2156 30.102 92.3086 32.182 94.9346 32.182ZM94.9346 30.427C93.2836 30.427 91.9966 29.192 91.9966 27.45C91.9966 25.695 93.2836 24.46 94.9346 24.46C96.5856 24.46 97.8726 25.695 97.8726 27.45C97.8726 29.192 96.5856 30.427 94.9346 30.427ZM106.393 22.9V28.451L102.493 22.9H101.128V32H102.922V26.436L106.822 32H108.187V22.9H106.393ZM116.918 22.9H113.525V32H115.319V29.01H116.918C118.673 29.01 120.025 27.658 120.025 25.955C120.025 24.252 118.673 22.9 116.918 22.9ZM116.918 27.333H115.319V24.577H116.918C117.685 24.577 118.244 25.162 118.244 25.955C118.244 26.735 117.685 27.333 116.918 27.333ZM126.316 32H128.266L125.068 22.9H122.845L119.66 32H121.597L122.143 30.362H125.77L126.316 32ZM122.715 28.685L123.963 24.967L125.211 28.685H122.715ZM135.371 22.9H133.343L131.367 26.696L129.391 22.9H127.363L130.47 28.451V32H132.251V28.451L135.371 22.9Z" fill="white"/>
<g clip-path="url(#clip1_161_6844)">
<path d="M36.0764 42.5117C34.3287 42.5117 32.7668 43.4176 32.7668 45.0913C32.7668 47.0107 35.5368 47.1433 35.5368 48.1076C35.5368 48.5136 35.0716 48.877 34.2769 48.877C33.149 48.877 32.3061 48.3692 32.3061 48.3692L31.9454 50.0581C31.9454 50.0581 32.9165 50.4871 34.2057 50.4871C36.1165 50.4871 37.6201 49.5367 37.6201 47.8344C37.6201 45.8062 34.8386 45.6776 34.8386 44.7826C34.8386 44.4645 35.2205 44.116 36.0129 44.116C36.907 44.116 37.6365 44.4854 37.6365 44.4854L37.9895 42.8541C37.9895 42.8541 37.1958 42.5117 36.0764 42.5117ZM20.0863 42.6348L20.0439 42.8811C20.0439 42.8811 20.7792 43.0156 21.4415 43.2841C22.2941 43.5919 22.3549 43.7711 22.4985 44.3276L24.0634 50.3601H26.1611L29.3928 42.6348H27.2999L25.2233 47.8873L24.376 43.4351C24.2982 42.9255 23.9046 42.6348 23.4228 42.6348H20.0863ZM30.2344 42.6348L28.5925 50.3601H30.5883L32.2244 42.6348H30.2344ZM41.3654 42.6348C40.8842 42.6348 40.6292 42.8925 40.4421 43.3427L37.5182 50.3601H39.6111L40.016 49.1906H42.5658L42.812 50.3601H44.6587L43.0477 42.6348H41.3654ZM41.6376 44.722L42.258 47.6209H40.596L41.6376 44.722Z" fill="white"/>
</g>
<path d="M54.6409 43L52.8009 43.65L53.0809 44.63L54.4909 44.23V50H55.6409V43H54.6409ZM58.7016 50H63.3116V48.89H60.4116L61.9916 47.31C62.6616 46.63 63.1816 45.9 63.1816 45.03C63.1816 43.64 62.0916 42.87 60.9416 42.87C60.0116 42.87 59.1316 43.33 58.6816 44.29L59.6516 44.86C59.9216 44.3 60.3716 43.99 60.9516 43.99C61.5516 43.99 62.0316 44.37 62.0316 45.07C62.0316 45.6 61.6416 46.11 61.1416 46.61L58.7016 49.1V50ZM68.9269 45.86L70.3469 43.98V43H66.0469V44.08H68.9769L67.4669 46.07L67.9269 46.76H68.1869C68.9769 46.76 69.4869 47.18 69.4869 47.88C69.4869 48.58 68.9769 49.01 68.1869 49.01C67.4869 49.01 67.0169 48.7 66.8169 48.11L65.8369 48.68C66.2269 49.66 67.1569 50.13 68.1869 50.13C69.4769 50.13 70.6369 49.35 70.6369 47.88C70.6369 46.79 69.8869 46.09 68.9269 45.86ZM78.715 47.67H77.915V45.85H76.755V47.67H74.565L76.975 43H75.725L73.315 47.67V48.74H76.755V50H77.915V48.74H78.715V47.67ZM88.1357 45.64H87.2557L87.3757 44.08H90.2157V43H86.3157L86.0457 46.76H88.0857C88.8457 46.76 89.3657 47.18 89.3657 47.88C89.3657 48.58 88.8457 49.01 88.0657 49.01C87.3357 49.01 86.8557 48.68 86.6757 48.06L85.6857 48.63C86.0557 49.64 87.0057 50.13 88.0657 50.13C89.3557 50.13 90.5157 49.35 90.5157 47.88C90.5157 46.42 89.4057 45.64 88.1357 45.64ZM95.565 45.35H95.435L97.035 43H95.725L93.505 46.33C93.235 46.72 93.085 47.2 93.085 47.74C93.085 49.15 94.105 50.13 95.565 50.13C97.015 50.13 98.035 49.15 98.035 47.74C98.035 46.33 97.015 45.35 95.565 45.35ZM95.565 49.04C94.795 49.04 94.235 48.54 94.235 47.74C94.235 46.94 94.795 46.44 95.565 46.44C96.325 46.44 96.885 46.94 96.885 47.74C96.885 48.53 96.325 49.04 95.565 49.04ZM105.939 50L103.749 46.4L105.819 43H104.509L103.089 45.33L101.669 43H100.369L102.439 46.4L100.239 50H101.549L103.089 47.47L104.629 50H105.939ZM113.935 50L111.745 46.4L113.815 43H112.505L111.085 45.33L109.665 43H108.365L110.435 46.4L108.235 50H109.545L111.085 47.47L112.625 50H113.935ZM126.431 50L124.241 46.4L126.311 43H125.001L123.581 45.33L122.161 43H120.861L122.931 46.4L120.731 50H122.041L123.581 47.47L125.121 50H126.431ZM134.427 50L132.237 46.4L134.307 43H132.997L131.577 45.33L130.157 43H128.857L130.927 46.4L128.727 50H130.037L131.577 47.47L133.117 50H134.427ZM142.423 50L140.233 46.4L142.303 43H140.993L139.573 45.33L138.153 43H136.853L138.923 46.4L136.723 50H138.033L139.573 47.47L141.113 50H142.423ZM150.419 50L148.229 46.4L150.299 43H148.989L147.569 45.33L146.149 43H144.849L146.919 46.4L144.719 50H146.029L147.569 47.47L149.109 50H150.419ZM157.375 50H161.985V48.89H159.085L160.665 47.31C161.335 46.63 161.855 45.9 161.855 45.03C161.855 43.64 160.765 42.87 159.615 42.87C158.685 42.87 157.805 43.33 157.355 44.29L158.325 44.86C158.595 44.3 159.045 43.99 159.625 43.99C160.225 43.99 160.705 44.37 160.705 45.07C160.705 45.6 160.315 46.11 159.815 46.61L157.375 49.1V50ZM167.411 50.13C169.171 50.13 170.161 48.66 170.161 46.5C170.161 44.34 169.171 42.87 167.411 42.87C165.651 42.87 164.661 44.34 164.661 46.5C164.661 48.66 165.651 50.13 167.411 50.13ZM167.411 49.01C166.381 49.01 165.811 48.11 165.811 46.5C165.811 44.89 166.381 43.99 167.411 43.99C168.451 43.99 169.011 44.89 169.011 46.5C169.011 48.11 168.451 49.01 167.411 49.01ZM172.723 50H177.333V48.89H174.433L176.013 47.31C176.683 46.63 177.203 45.9 177.203 45.03C177.203 43.64 176.113 42.87 174.963 42.87C174.033 42.87 173.153 43.33 172.703 44.29L173.673 44.86C173.943 44.3 174.393 43.99 174.973 43.99C175.573 43.99 176.053 44.37 176.053 45.07C176.053 45.6 175.663 46.11 175.163 46.61L172.723 49.1V50ZM180.016 50H184.626V48.89H181.726L183.306 47.31C183.976 46.63 184.496 45.9 184.496 45.03C184.496 43.64 183.406 42.87 182.256 42.87C181.326 42.87 180.446 43.33 179.996 44.29L180.966 44.86C181.236 44.3 181.686 43.99 182.266 43.99C182.866 43.99 183.346 44.37 183.346 45.07C183.346 45.6 182.956 46.11 182.456 46.61L180.016 49.1V50Z" fill="white"/>
<g clip-path="url(#clip2_161_6844)">
<path d="M230.867 23.8877C230.867 17.6222 234.838 13.332 241.48 13.332C246.897 13.332 250.092 16.1271 250.925 20.5865L248.092 20.8675C247.451 17.6509 245.091 15.6743 241.341 15.6743C236.562 15.6743 233.729 18.8922 233.729 23.8604C233.729 28.658 236.59 32.1298 241.424 32.1298C244.981 32.1298 247.369 30.3236 248.23 27.1851L250.92 27.6652C249.754 31.7576 246.693 34.4954 241.364 34.4954C234.534 34.5006 230.867 29.9853 230.867 23.8877ZM252.592 26.8806C252.592 22.308 255.787 19.3997 260.534 19.3997C265.28 19.3997 268.452 22.308 268.452 26.8806C268.452 31.4531 265.288 34.3614 260.537 34.3614C255.787 34.3614 252.592 31.4531 252.592 26.8806ZM265.872 26.8806C265.872 23.4648 263.816 21.5455 260.537 21.5455C257.259 21.5455 255.204 23.4648 255.204 26.8806C255.204 30.2963 257.26 32.2156 260.537 32.2156C263.815 32.2156 265.872 30.295 265.872 26.8806ZM277.847 19.4284C278.2 19.4265 278.553 19.4548 278.902 19.5129V21.941C278.616 21.9059 278.328 21.8868 278.04 21.8838C276.29 21.8838 275.207 22.3926 274.428 23.2397C273.178 24.541 272.983 26.3717 272.983 28.2065V33.932H270.539V19.8239H272.817V23.4089C273.539 21.1226 275.373 19.4284 277.847 19.4284ZM280.625 19.8187H282.986V22.5904C284.125 20.5578 286.375 19.3971 289.07 19.3971C293.321 19.3971 296.155 22.3613 296.155 26.9053C296.155 31.3685 293.154 34.3614 288.931 34.3614C286.264 34.3614 283.985 33.1187 283.068 31.539V39.4362H280.625V19.8187ZM293.571 26.9027C293.571 23.5728 291.626 21.5676 288.431 21.5676C285.237 21.5676 283.013 23.5429 283.013 26.5631V27.2137C283.013 30.2338 285.097 32.1818 288.265 32.1818C291.542 32.187 293.571 30.2104 293.571 26.9079V26.9027ZM297.571 30.1766C297.571 28.822 298.182 27.6652 299.294 26.9599C300.319 26.3379 301.656 25.919 304.461 25.6587L309.629 25.2683V25.0081C309.629 22.5526 308.156 21.3958 305.323 21.3958C302.633 21.3958 300.96 22.4369 300.712 24.3587H298.044C298.349 21.4049 301.127 19.3971 305.323 19.3971C309.879 19.3971 312.101 21.2917 312.101 25.2996V29.0263C312.101 31.4258 312.212 32.6698 312.518 33.9372H309.957C309.82 33.0327 309.746 32.1196 309.735 31.2046C308.678 33.2371 306.484 34.3666 303.203 34.3666C299.793 34.3614 297.571 32.7505 297.571 30.1818V30.1766ZM309.656 27.7498V27.0445L304.02 27.5806C301.159 27.8917 300.187 28.6217 300.187 30.1207C300.187 31.5598 301.52 32.3783 303.882 32.3783C307.295 32.3835 309.656 30.5774 309.656 27.755V27.7498ZM313.99 39.5481V37.3543C314.386 37.4074 314.785 37.4356 315.185 37.4389C317.38 37.4389 318.714 36.4512 319.436 34.6165L319.741 33.8539L312.88 19.8239H315.713L320.52 30.1818C320.701 30.6124 320.849 31.056 320.964 31.509H320.991C321.102 31.1707 321.247 30.7192 321.435 30.1818L325.934 19.8239H328.656L321.877 34.8403C320.298 38.3952 318.296 39.6665 315.431 39.6665C314.948 39.6685 314.466 39.6307 313.99 39.5533V39.5481Z" fill="black"/>
<path d="M340.909 22.1516H337.997L335.737 17.1418L333.476 22.1516H330.565L334.28 13.916H337.192L340.909 22.1516Z" fill="#BE1549"/>
</g>
<path d="M26.8697 180H28.4817L25.1927 170.9H23.3987L20.0967 180H21.7217L22.3587 178.167H26.2327L26.8697 180ZM22.8527 176.763L24.2957 172.655L25.7387 176.763H22.8527ZM30.7541 175.294C30.7541 174.826 31.1961 174.605 31.7031 174.605C32.2361 174.605 32.6911 174.839 32.9251 175.346L34.1081 174.683C33.6531 173.825 32.7691 173.331 31.7031 173.331C30.3771 173.331 29.3241 174.098 29.3241 175.32C29.3241 177.647 32.8211 176.997 32.8211 178.154C32.8211 178.674 32.3401 178.882 31.7161 178.882C31.0011 178.882 30.4811 178.531 30.2731 177.946L29.0641 178.648C29.4801 179.584 30.4161 180.169 31.7161 180.169C33.1201 180.169 34.2511 179.467 34.2511 178.167C34.2511 175.762 30.7541 176.477 30.7541 175.294ZM39.0281 173.331C38.1441 173.331 37.4421 173.656 37.0131 174.332V170.9H35.6091V180H37.0131V176.516C37.0131 175.19 37.7411 174.644 38.6641 174.644C39.5481 174.644 40.1201 175.164 40.1201 176.152V180H41.5241V176.009C41.5241 174.319 40.4841 173.331 39.0281 173.331ZM43.9379 172.525C44.4319 172.525 44.8349 172.109 44.8349 171.628C44.8349 171.134 44.4319 170.731 43.9379 170.731C43.4439 170.731 43.0409 171.134 43.0409 171.628C43.0409 172.109 43.4439 172.525 43.9379 172.525ZM43.2359 180H44.6399V173.5H43.2359V180ZM47.693 175.294C47.693 174.826 48.135 174.605 48.642 174.605C49.175 174.605 49.63 174.839 49.864 175.346L51.047 174.683C50.592 173.825 49.708 173.331 48.642 173.331C47.316 173.331 46.263 174.098 46.263 175.32C46.263 177.647 49.76 176.997 49.76 178.154C49.76 178.674 49.279 178.882 48.655 178.882C47.94 178.882 47.42 178.531 47.212 177.946L46.003 178.648C46.419 179.584 47.355 180.169 48.655 180.169C50.059 180.169 51.19 179.467 51.19 178.167C51.19 175.762 47.693 176.477 47.693 175.294ZM55.967 173.331C55.083 173.331 54.381 173.656 53.952 174.332V170.9H52.548V180H53.952V176.516C53.952 175.19 54.68 174.644 55.603 174.644C56.487 174.644 57.059 175.164 57.059 176.152V180H58.463V176.009C58.463 174.319 57.423 173.331 55.967 173.331ZM70.5798 180L66.7708 175.333L70.4498 170.9H68.6688L65.2108 174.982V170.9H63.7158V180H65.2108V175.671L68.7988 180H70.5798ZM76.2091 173.5V174.423C75.7151 173.747 74.9481 173.331 73.9341 173.331C72.1661 173.331 70.6971 174.813 70.6971 176.75C70.6971 178.674 72.1661 180.169 73.9341 180.169C74.9481 180.169 75.7151 179.753 76.2091 179.064V180H77.6131V173.5H76.2091ZM74.1551 178.83C72.9851 178.83 72.1011 177.959 72.1011 176.75C72.1011 175.541 72.9851 174.67 74.1551 174.67C75.3251 174.67 76.2091 175.541 76.2091 176.75C76.2091 177.959 75.3251 178.83 74.1551 178.83ZM80.6725 175.294C80.6725 174.826 81.1145 174.605 81.6215 174.605C82.1545 174.605 82.6095 174.839 82.8435 175.346L84.0265 174.683C83.5715 173.825 82.6875 173.331 81.6215 173.331C80.2955 173.331 79.2425 174.098 79.2425 175.32C79.2425 177.647 82.7395 176.997 82.7395 178.154C82.7395 178.674 82.2585 178.882 81.6345 178.882C80.9195 178.882 80.3995 178.531 80.1915 177.946L78.9825 178.648C79.3985 179.584 80.3345 180.169 81.6345 180.169C83.0385 180.169 84.1695 179.467 84.1695 178.167C84.1695 175.762 80.6725 176.477 80.6725 175.294ZM88.9465 173.331C88.0625 173.331 87.3605 173.656 86.9315 174.332V170.9H85.5275V180H86.9315V176.516C86.9315 175.19 87.6595 174.644 88.5825 174.644C89.4665 174.644 90.0385 175.164 90.0385 176.152V180H91.4425V176.009C91.4425 174.319 90.4025 173.331 88.9465 173.331ZM97.4083 173.5L95.7443 178.219L93.8073 173.5H92.2733L95.0293 179.883L94.9643 180.013C94.6393 180.871 94.1453 181.339 93.2353 181.287V182.6C94.7303 182.691 95.7963 181.859 96.4073 180.208L98.9033 173.5H97.4083ZM104.875 173.5V174.423C104.381 173.747 103.614 173.331 102.6 173.331C100.832 173.331 99.3633 174.813 99.3633 176.75C99.3633 178.674 100.832 180.169 102.6 180.169C103.614 180.169 104.381 179.753 104.875 179.064V180H106.279V173.5H104.875ZM102.821 178.83C101.651 178.83 100.767 177.959 100.767 176.75C100.767 175.541 101.651 174.67 102.821 174.67C103.991 174.67 104.875 175.541 104.875 176.75C104.875 177.959 103.991 178.83 102.821 178.83ZM111.795 173.331C110.781 173.331 110.014 173.747 109.52 174.436V173.5H108.116V182.6H109.52V179.077C110.014 179.753 110.781 180.169 111.795 180.169C113.563 180.169 115.032 178.687 115.032 176.75C115.032 174.826 113.563 173.331 111.795 173.331ZM111.574 178.83C110.404 178.83 109.52 177.959 109.52 176.75C109.52 175.541 110.404 174.67 111.574 174.67C112.744 174.67 113.628 175.541 113.628 176.75C113.628 177.959 112.744 178.83 111.574 178.83Z" fill="#D2D2D2"/>
<g filter="url(#filter0_ii_161_6844)">
<g clip-path="url(#clip3_161_6844)">
<rect x="20.5317" y="106" width="40" height="30" rx="6" fill="url(#paint0_linear_161_6844)"/>
<path d="M20.5317 106H28.3724C30.5816 106 32.3724 107.791 32.3724 110V112C32.3724 114.209 30.5816 116 28.3724 116H20.5317V106Z" stroke="#0D0D0D" stroke-width="0.5"/>
<path d="M20.5317 116H28.3724C30.5816 116 32.3724 117.791 32.3724 120V122C32.3724 124.209 30.5816 126 28.3724 126H20.5317V116Z" stroke="#0D0D0D" stroke-width="0.5"/>
<path d="M20.5317 126H28.3724C30.5816 126 32.3724 127.791 32.3724 130V132C32.3724 134.209 30.5816 136 28.3724 136H20.5317V126Z" stroke="#0D0D0D" stroke-width="0.5"/>
<path d="M61.3726 136L53.5319 136C51.3227 136 49.5319 134.209 49.5319 132L49.5319 130C49.5319 127.791 51.3227 126 53.5319 126L61.3726 126L61.3726 136Z" stroke="#0D0D0D" stroke-width="0.5"/>
<path d="M61.3726 126L53.5319 126C51.3227 126 49.5319 124.209 49.5319 122L49.5319 120C49.5319 117.791 51.3227 116 53.5319 116L61.3726 116L61.3726 126Z" stroke="#0D0D0D" stroke-width="0.5"/>
<line x1="35.5293" y1="110.75" x2="45.5344" y2="110.75" stroke="#0D0D0D" stroke-width="0.5"/>
<line x1="35.5293" y1="132.229" x2="45.5344" y2="132.229" stroke="#0D0D0D" stroke-width="0.5"/>
</g>
</g>
</g>
<defs>
<filter id="filter0_ii_161_6844" x="20.5317" y="106" width="40" height="30" filterUnits="userSpaceOnUse" color-interpolation-filters="sRGB">
<feFlood flood-opacity="0" result="BackgroundImageFix"/>
<feBlend mode="normal" in="SourceGraphic" in2="BackgroundImageFix" result="shape"/>
<feColorMatrix in="SourceAlpha" type="matrix" values="0 0 0 0 0 0 0 0 0 0 0 0 0 0 0 0 0 0 127 0" result="hardAlpha"/>
<feOffset dx="0.5" dy="0.5"/>
<feComposite in2="hardAlpha" operator="arithmetic" k2="-1" k3="1"/>
<feColorMatrix type="matrix" values="0 0 0 0 0.160784 0 0 0 0 0.14902 0 0 0 0 0.152941 0 0 0 1 0"/>
<feBlend mode="normal" in2="shape" result="effect1_innerShadow_161_6844"/>
<feColorMatrix in="SourceAlpha" type="matrix" values="0 0 0 0 0 0 0 0 0 0 0 0 0 0 0 0 0 0 127 0" result="hardAlpha"/>
<feOffset dx="-0.5" dy="-0.5"/>
<feComposite in2="hardAlpha" operator="arithmetic" k2="-1" k3="1"/>
<feColorMatrix type="matrix" values="0 0 0 0 0.160784 0 0 0 0 0.14902 0 0 0 0 0.152941 0 0 0 0.44 0"/>
<feBlend mode="normal" in2="effect1_innerShadow_161_6844" result="effect2_innerShadow_161_6844"/>
</filter>
<linearGradient id="paint0_linear_161_6844" x1="21.0359" y1="109.109" x2="58.7607" y2="134.259" gradientUnits="userSpaceOnUse">
<stop stop-color="#CACED2"/>
<stop offset="0.494666" stop-color="white"/>
<stop offset="1" stop-color="#C7CBCF"/>
</linearGradient>
<clipPath id="clip0_161_6844">
<rect x="0.531738" width="351" height="200" rx="5" fill="white"/>
</clipPath>
<clipPath id="clip1_161_6844">
<rect width="24.6394" height="8" fill="white" transform="translate(20.0317 42.5)"/>
</clipPath>
<clipPath id="clip2_161_6844">
<rect width="111" height="27" fill="white" transform="translate(230 13)"/>
</clipPath>
<clipPath id="clip3_161_6844">
<rect x="20.5317" y="106" width="40" height="30" rx="6" fill="white"/>
</clipPath>
</defs>
</svg>
