<svg width="1086" height="311" viewBox="0 0 1086 311" fill="none" xmlns="http://www.w3.org/2000/svg">
<mask id="path-1-inside-1_31_2" fill="white">
<path d="M219.505 20.4685C224.658 24.5356 229.459 28.9546 234.187 33.531C234.822 34.0969 235.456 34.6628 236.11 35.2458C245.701 44.2299 254.258 57.861 258.456 70.531C258.456 71.191 258.456 71.851 258.456 72.531C259.441 72.8616 259.441 72.8616 260.447 73.199C264.152 74.9232 267.085 77.286 270.287 79.8435C271.668 80.9296 273.051 82.0142 274.435 83.0974C275.154 83.6609 275.873 84.2244 276.614 84.8049C280.331 87.6858 284.105 90.4841 287.881 93.281C288.985 94.0994 288.985 94.0994 290.11 94.9343C291.528 95.9856 292.947 97.0366 294.365 98.0872C297.061 100.084 299.753 102.087 302.442 104.093C303.219 104.672 303.996 105.251 304.797 105.847C307.193 107.685 309.523 109.596 311.846 111.531C310.526 114.716 309.213 116.357 306.473 118.343C305.427 119.112 305.427 119.112 304.359 119.896C303.606 120.435 302.854 120.975 302.078 121.531C301.301 122.098 300.524 122.666 299.723 123.25C297.298 125.019 294.865 126.775 292.431 128.531C290.947 129.61 289.463 130.689 287.98 131.769C285.884 133.295 283.788 134.82 281.69 136.341C272.291 143.117 272.291 143.117 263.146 150.246C261.368 151.531 261.368 151.531 259.427 151.531C259.169 152.384 258.911 153.238 258.645 154.117C249.339 181.5 228.586 203.036 203.905 216.183C187.842 223.87 170.388 226.587 152.828 226.847C151.654 226.868 150.48 226.889 149.27 226.91C145.542 226.975 141.813 227.035 138.085 227.093C135.548 227.137 133.011 227.18 130.474 227.224C124.275 227.331 118.075 227.433 111.875 227.531C111.865 228.105 111.855 228.679 111.845 229.271C111.74 235.224 111.629 241.177 111.514 247.129C111.471 249.354 111.431 251.578 111.392 253.802C111.336 256.992 111.275 260.181 111.211 263.371C111.195 264.372 111.179 265.373 111.162 266.404C111.143 267.325 111.124 268.246 111.104 269.195C111.089 270.01 111.073 270.825 111.058 271.664C110.904 273.531 110.904 273.531 109.934 274.531C108.038 274.641 106.139 274.68 104.24 274.692C103.022 274.702 101.804 274.711 100.549 274.721C99.2092 274.726 97.8691 274.73 96.5291 274.734C95.164 274.74 93.7989 274.746 92.4338 274.751C89.5686 274.762 86.7035 274.768 83.8383 274.771C80.1613 274.777 76.4847 274.801 72.8079 274.829C69.9873 274.848 67.1669 274.853 64.3463 274.855C62.9905 274.858 61.6346 274.866 60.2789 274.879C58.3848 274.896 56.4905 274.892 54.5963 274.887C53.5171 274.891 52.438 274.895 51.3261 274.898C50.485 274.777 49.6439 274.656 48.7774 274.531C46.7342 271.374 46.596 270.657 46.6155 267.06C46.6157 266.159 46.6158 265.258 46.616 264.33C46.626 263.361 46.636 262.392 46.6463 261.394C46.6491 260.4 46.6518 259.405 46.6547 258.38C46.6655 255.201 46.6899 252.022 46.7146 248.843C46.7243 246.689 46.7332 244.535 46.7411 242.381C46.7625 237.097 46.795 231.814 46.8359 226.531C45.9818 226.534 45.9818 226.534 45.1104 226.538C39.2057 226.56 33.3011 226.575 27.3964 226.586C25.1901 226.591 22.9838 226.598 20.7776 226.606C17.6139 226.618 14.4503 226.624 11.2866 226.629C10.2936 226.634 9.30067 226.639 8.27761 226.644C7.36425 226.644 6.45089 226.644 5.50985 226.645C4.70149 226.647 3.89313 226.649 3.06028 226.651C1.21146 226.531 1.21146 226.531 0.240727 225.531C0.139278 223.578 0.106228 221.622 0.0997146 219.666C0.0935214 218.411 0.0873283 217.156 0.0809475 215.864C0.0794637 214.483 0.0783822 213.103 0.077674 211.722C0.074557 210.316 0.0712915 208.91 0.0678831 207.504C0.0620611 204.552 0.0602733 201.6 0.0608473 198.649C0.060946 194.861 0.0476891 191.074 0.0309711 187.286C0.0201935 184.38 0.0182074 181.475 0.0187214 178.569C0.0175732 177.173 0.0132758 175.776 0.00579031 174.379C-0.00368781 172.428 0.000283641 170.477 0.00491639 168.525C0.00353307 167.414 0.00214976 166.302 0.000724531 165.156C0.240727 162.531 0.240727 162.531 2.18219 160.531C4.07404 160.253 4.07404 160.253 6.41256 160.212C7.72419 160.182 7.72419 160.182 9.06232 160.152C10.4806 160.135 10.4806 160.135 11.9274 160.117C13.3777 160.088 13.3777 160.088 14.8573 160.058C17.9531 159.998 21.049 159.952 24.145 159.906C26.2407 159.868 28.3364 159.829 30.432 159.789C35.5763 159.693 40.7206 159.608 45.8652 159.531C45.8709 158.872 45.8766 158.212 45.8824 157.533C45.9453 150.571 46.0274 143.61 46.12 136.649C46.1519 134.063 46.1792 131.476 46.2015 128.89C46.5255 92.212 52.533 61.8413 77.8994 34.531C78.4925 33.8568 79.0857 33.1826 79.6968 32.488C95.5746 15.0526 117.588 5.60404 140.026 1.531C140.925 1.34408 141.823 1.15717 142.749 0.964591C169.46 -2.76929 197.531 4.46341 219.505 20.4685ZM121.859 83.5622C112.529 95.429 109.932 106.276 110.904 121.531C112.346 131.315 116.97 140.297 123.524 147.531C124.165 147.531 124.805 147.531 125.465 147.531C125.465 148.191 125.465 148.851 125.465 149.531C137.38 159.17 149.475 162.146 164.295 160.531C174.088 158.594 183.85 153.275 190.504 145.531C190.504 144.871 190.504 144.211 190.504 143.531C191.145 143.531 191.786 143.531 192.446 143.531C200.446 132.152 203.463 120.469 202.153 106.531C199.592 92.8845 192.783 81.6139 181.768 73.531C160.957 61.6761 137.569 64.3931 121.859 83.5622Z"/>
</mask>
<path d="M219.505 20.4685C224.658 24.5356 229.459 28.9546 234.187 33.531C234.822 34.0969 235.456 34.6628 236.11 35.2458C245.701 44.2299 254.258 57.861 258.456 70.531C258.456 71.191 258.456 71.851 258.456 72.531C259.441 72.8616 259.441 72.8616 260.447 73.199C264.152 74.9232 267.085 77.286 270.287 79.8435C271.668 80.9296 273.051 82.0142 274.435 83.0974C275.154 83.6609 275.873 84.2244 276.614 84.8049C280.331 87.6858 284.105 90.4841 287.881 93.281C288.985 94.0994 288.985 94.0994 290.11 94.9343C291.528 95.9856 292.947 97.0366 294.365 98.0872C297.061 100.084 299.753 102.087 302.442 104.093C303.219 104.672 303.996 105.251 304.797 105.847C307.193 107.685 309.523 109.596 311.846 111.531C310.526 114.716 309.213 116.357 306.473 118.343C305.427 119.112 305.427 119.112 304.359 119.896C303.606 120.435 302.854 120.975 302.078 121.531C301.301 122.098 300.524 122.666 299.723 123.25C297.298 125.019 294.865 126.775 292.431 128.531C290.947 129.61 289.463 130.689 287.98 131.769C285.884 133.295 283.788 134.82 281.69 136.341C272.291 143.117 272.291 143.117 263.146 150.246C261.368 151.531 261.368 151.531 259.427 151.531C259.169 152.384 258.911 153.238 258.645 154.117C249.339 181.5 228.586 203.036 203.905 216.183C187.842 223.87 170.388 226.587 152.828 226.847C151.654 226.868 150.48 226.889 149.27 226.91C145.542 226.975 141.813 227.035 138.085 227.093C135.548 227.137 133.011 227.18 130.474 227.224C124.275 227.331 118.075 227.433 111.875 227.531C111.865 228.105 111.855 228.679 111.845 229.271C111.74 235.224 111.629 241.177 111.514 247.129C111.471 249.354 111.431 251.578 111.392 253.802C111.336 256.992 111.275 260.181 111.211 263.371C111.195 264.372 111.179 265.373 111.162 266.404C111.143 267.325 111.124 268.246 111.104 269.195C111.089 270.01 111.073 270.825 111.058 271.664C110.904 273.531 110.904 273.531 109.934 274.531C108.038 274.641 106.139 274.68 104.24 274.692C103.022 274.702 101.804 274.711 100.549 274.721C99.2092 274.726 97.8691 274.73 96.5291 274.734C95.164 274.74 93.7989 274.746 92.4338 274.751C89.5686 274.762 86.7035 274.768 83.8383 274.771C80.1613 274.777 76.4847 274.801 72.8079 274.829C69.9873 274.848 67.1669 274.853 64.3463 274.855C62.9905 274.858 61.6346 274.866 60.2789 274.879C58.3848 274.896 56.4905 274.892 54.5963 274.887C53.5171 274.891 52.438 274.895 51.3261 274.898C50.485 274.777 49.6439 274.656 48.7774 274.531C46.7342 271.374 46.596 270.657 46.6155 267.06C46.6157 266.159 46.6158 265.258 46.616 264.33C46.626 263.361 46.636 262.392 46.6463 261.394C46.6491 260.4 46.6518 259.405 46.6547 258.38C46.6655 255.201 46.6899 252.022 46.7146 248.843C46.7243 246.689 46.7332 244.535 46.7411 242.381C46.7625 237.097 46.795 231.814 46.8359 226.531C45.9818 226.534 45.9818 226.534 45.1104 226.538C39.2057 226.56 33.3011 226.575 27.3964 226.586C25.1901 226.591 22.9838 226.598 20.7776 226.606C17.6139 226.618 14.4503 226.624 11.2866 226.629C10.2936 226.634 9.30067 226.639 8.27761 226.644C7.36425 226.644 6.45089 226.644 5.50985 226.645C4.70149 226.647 3.89313 226.649 3.06028 226.651C1.21146 226.531 1.21146 226.531 0.240727 225.531C0.139278 223.578 0.106228 221.622 0.0997146 219.666C0.0935214 218.411 0.0873283 217.156 0.0809475 215.864C0.0794637 214.483 0.0783822 213.103 0.077674 211.722C0.074557 210.316 0.0712915 208.91 0.0678831 207.504C0.0620611 204.552 0.0602733 201.6 0.0608473 198.649C0.060946 194.861 0.0476891 191.074 0.0309711 187.286C0.0201935 184.38 0.0182074 181.475 0.0187214 178.569C0.0175732 177.173 0.0132758 175.776 0.00579031 174.379C-0.00368781 172.428 0.000283641 170.477 0.00491639 168.525C0.00353307 167.414 0.00214976 166.302 0.000724531 165.156C0.240727 162.531 0.240727 162.531 2.18219 160.531C4.07404 160.253 4.07404 160.253 6.41256 160.212C7.72419 160.182 7.72419 160.182 9.06232 160.152C10.4806 160.135 10.4806 160.135 11.9274 160.117C13.3777 160.088 13.3777 160.088 14.8573 160.058C17.9531 159.998 21.049 159.952 24.145 159.906C26.2407 159.868 28.3364 159.829 30.432 159.789C35.5763 159.693 40.7206 159.608 45.8652 159.531C45.8709 158.872 45.8766 158.212 45.8824 157.533C45.9453 150.571 46.0274 143.61 46.12 136.649C46.1519 134.063 46.1792 131.476 46.2015 128.89C46.5255 92.212 52.533 61.8413 77.8994 34.531C78.4925 33.8568 79.0857 33.1826 79.6968 32.488C95.5746 15.0526 117.588 5.60404 140.026 1.531C140.925 1.34408 141.823 1.15717 142.749 0.964591C169.46 -2.76929 197.531 4.46341 219.505 20.4685ZM121.859 83.5622C112.529 95.429 109.932 106.276 110.904 121.531C112.346 131.315 116.97 140.297 123.524 147.531C124.165 147.531 124.805 147.531 125.465 147.531C125.465 148.191 125.465 148.851 125.465 149.531C137.38 159.17 149.475 162.146 164.295 160.531C174.088 158.594 183.85 153.275 190.504 145.531C190.504 144.871 190.504 144.211 190.504 143.531C191.145 143.531 191.786 143.531 192.446 143.531C200.446 132.152 203.463 120.469 202.153 106.531C199.592 92.8845 192.783 81.6139 181.768 73.531C160.957 61.6761 137.569 64.3931 121.859 83.5622Z" fill="url(#paint0_linear_31_2)" stroke="black" stroke-width="6" mask="url(#path-1-inside-1_31_2)"/>
<path d="M261.5 76.5V76.4904V76.4807V76.471V76.4613V76.4516V76.4419V76.4322V76.4225V76.4128V76.4031V76.3934V76.3837V76.374V76.3643V76.3546V76.3449V76.3352V76.3255V76.3158V76.3061V76.2964V76.2867V76.277V76.2673V76.2576V76.2479V76.2382V76.2285V76.2188V76.2091V76.1994V76.1897V76.1799V76.1702V76.1605V76.1508V76.1411V76.1314V76.1217V76.112V76.1023V76.0926V76.0829V76.0731V76.0634V76.0537V76.044V76.0343V76.0246V76.0149V76.0051V75.9954V75.9857V75.976V75.9663V75.9566V75.9468V75.9371V75.9274V75.9177V75.908V75.8982V75.8885V75.8788V75.8691V75.8594V75.8496V75.8399V75.8302V75.8205V75.8107V75.801V75.7913V75.7816V75.7718V75.7621V75.7524V75.7427V75.7329V75.7232V75.7135V75.7037V75.694V75.6843V75.6745V75.6648V75.6551V75.6453V75.6356V75.6259V75.6161V75.6064V75.5967V75.5869V75.5772V75.5674V75.5577V75.548V75.5382V75.5285V75.5187V75.509V75.4993V75.4895V75.4798V75.47V75.4603V75.4505V75.4408V75.4311V75.4213V75.4116V75.4018V75.3921V75.3823V75.3726V75.3628V75.3531V75.3433V75.3336V75.3238V75.3141V75.3043V75.2945V75.2848V75.2763C266.747 77.6321 271.311 80.4858 276.009 84.1235L276.009 84.1236L276.02 84.1319C277.543 85.2894 279.067 86.4465 280.591 87.6033C280.592 87.6038 280.593 87.6044 280.593 87.6049L282.936 89.3953L282.939 89.3978C286.056 91.767 289.201 94.0914 292.338 96.409L261.5 76.5ZM261.5 76.5H261.502H261.506H261.51H261.513H261.517H261.521H261.525H261.528H261.532H261.536H261.54H261.543H261.547H261.551H261.555H261.558H261.562H261.566H261.57H261.573H261.577H261.581H261.585H261.588H261.592H261.596H261.6H261.604H261.607H261.611H261.615H261.619H261.622H261.626H261.63H261.634H261.637H261.641H261.645H261.649H261.652H261.656H261.66H261.664H261.667H261.671H261.675H261.679H261.682H261.686H261.69H261.694H261.697H261.701H261.705H261.709H261.712H261.716H261.72H261.724H261.727H261.731H261.735H261.739H261.742H261.746H261.75H261.754H261.758H261.761H261.765H261.769H261.773H261.776H261.78H261.784H261.788H261.791H261.795H261.799H261.803H261.806H261.81H261.814H261.818H261.821H261.825H261.829H261.833H261.836H261.84H261.844H261.848H261.851H261.855H261.859H261.863H261.866H261.87H261.874H261.878H261.881H261.885H261.889H261.893H261.896H261.9H261.904H261.908H261.911H261.915H261.919H261.923H261.926H261.93H261.934H261.938H261.941H263.273L263.431 77.8224C263.748 80.4862 264.067 83.1453 264.399 85.802C266.291 99.2028 266.921 112.5 267.324 125.955L267.37 127.5H265.824H265.821H265.817H265.813H265.809H265.805H265.801H265.797H265.793H265.79H265.786H265.782H265.778H265.774H265.77H265.766H265.763H265.759H265.755H265.751H265.747H265.743H265.739H265.736H265.732H265.728H265.724H265.72H265.716H265.712H265.709H265.705H265.701H265.697H265.693H265.689H265.685H265.682H265.678H265.674H265.67H265.666H265.662H265.658H265.655H265.651H265.647H265.643H265.639H265.635H265.632H265.628H265.624H265.62H265.616H265.612H265.608H265.605H265.601H265.597H265.593H265.589H265.585H265.582H265.578H265.574H265.57H265.566H265.562H265.559H265.555H265.551H265.547H265.543H265.539H265.536H265.532H265.528H265.524H265.52H265.516H265.512H265.509H265.505H265.501H265.497H265.493H265.489H265.486H265.482H265.478H265.474H265.47H265.467H265.463H265.459H265.455H265.451H265.447H265.444H265.44H265.436H265.432H265.428H265.424H265.421H265.417H265.413H265.409H265.405H265.401H265.398H265.394H265.39H265.386H265.382H265.379H265.375H265.371H265.367H265.363H265.359H265.356H265.352H265.348H265.344H265.34H265.336H265.333H265.329H265.325H265.321H265.317H265.314H265.31H265.306H265.302H265.298H265.294H265.291H265.287H265.283H265.279H265.275H265.272H265.268H265.264H265.26H265.256H265.253H265.249H265.245H265.241H265.237H265.234H265.23H265.226H265.222H265.218H265.215C265.054 128.858 264.892 130.215 264.73 131.573L264.73 131.573L264.462 133.801C264.462 133.802 264.462 133.802 264.462 133.803C264.046 137.312 263.613 140.824 263.09 144.337C263.636 144.191 264.223 144.124 264.85 144.053C264.898 144.048 264.947 144.042 264.996 144.037C266.259 143.778 266.764 143.67 267.182 143.525C267.57 143.39 267.895 143.219 268.769 142.741L270.528 141.471L270.534 141.467L272.815 139.836C272.818 139.834 272.82 139.832 272.822 139.831C274.329 138.73 275.839 137.629 277.356 136.535L277.357 136.535C280.78 134.07 284.195 131.592 287.598 129.099L261.5 76.5ZM306.159 115.603L306.166 115.598C307.468 114.654 308.366 113.839 309.089 112.925C309.639 112.229 310.116 111.44 310.589 110.435C304.661 105.569 298.53 100.985 292.338 96.4091L306.159 115.603ZM306.159 115.603L304.051 117.151L301.778 118.781L301.778 118.781M306.159 115.603L301.778 118.781M301.778 118.781L301.767 118.788M301.778 118.781L301.767 118.788M301.767 118.788L299.417 120.503C299.417 120.503 299.417 120.503 299.417 120.503C297.798 121.683 296.177 122.858 294.554 124.03L294.553 124.031M301.767 118.788L294.553 124.031M294.553 124.031C292.227 125.711 289.911 127.403 287.599 129.099L294.553 124.031Z" fill="#FA9304" stroke="black" stroke-width="3"/>
<path d="M396.25 261H367V243.25C357.333 255.083 344.083 261 327.25 261C312.25 261 299.5 255 289 243C278.5 231 273.25 216.5 273.25 199.5C273.25 182.5 278.5 168 289 156C299.5 144 312.25 138 327.25 138C344.083 138 357.333 143.917 367 155.75V138H396.25V261ZM334.75 231.75C343.917 231.417 351.5 228.25 357.5 222.25C363.667 216.25 366.833 208.667 367 199.5C366.833 190.333 363.667 182.75 357.5 176.75C351.5 170.583 343.917 167.417 334.75 167.25C325.583 167.417 318 170.583 312 176.75C306 182.75 302.833 190.333 302.5 199.5C302.833 208.667 306 216.25 312 222.25C318 228.25 325.583 231.417 334.75 231.75ZM483.398 308.75H447.398V279.5H483.398C488.565 279.333 492.898 277.5 496.398 274C499.898 270.5 501.732 266.083 501.898 260.75V244.5C496.732 250.167 490.898 254.333 484.398 257C477.898 259.667 472.065 261 466.898 261C458.898 261 451.898 259.583 445.898 256.75C426.232 247.583 416.398 228.5 416.398 199.5V138H445.648V199.5C445.648 220.833 454.065 231.583 470.898 231.75C478.232 231.75 485.232 228.667 491.898 222.5C498.565 216.333 501.898 208.667 501.898 199.5V138H531.148V260.75C531.148 274.083 526.482 285.417 517.148 294.75C507.815 304.083 496.565 308.75 483.398 308.75ZM543.402 282.5L562.652 263.5L563.152 263.75C569.486 269.583 576.986 273.917 585.652 276.75C594.319 279.583 602.986 281 611.652 281C613.486 281 615.819 280.833 618.652 280.5C621.652 280.333 624.569 279.833 627.402 279C630.236 278.333 632.652 277.25 634.652 275.75C636.819 274.417 637.902 272.667 637.902 270.5C637.902 268.167 636.902 266.333 634.902 265C632.902 263.667 630.402 262.583 627.402 261.75C624.402 261.083 621.402 260.75 618.402 260.75C615.402 260.583 612.986 260.5 611.152 260.5C605.319 260.5 599.402 260.833 593.402 261.5C587.569 262.167 581.902 263.417 576.402 265.25H576.152L559.402 248.75L571.152 213.75C566.319 209.583 562.569 204.917 559.902 199.75C557.236 194.417 555.902 188.583 555.902 182.25C555.902 175.25 557.402 169 560.402 163.5C563.402 157.833 567.402 153.083 572.402 149.25C577.402 145.25 583.069 142.25 589.402 140.25C595.736 138.083 602.152 137 608.652 137C620.152 137 631.569 137.083 642.902 137.25C654.402 137.25 665.902 137.25 677.402 137.25H677.902V164.25L652.902 160.5C658.402 167 661.152 174.5 661.152 183C661.152 189.5 659.652 195.5 656.652 201C653.652 206.333 649.736 211 644.902 215C640.069 218.833 634.569 221.833 628.402 224C622.402 226.167 616.319 227.25 610.152 227.25C604.319 227.25 598.986 226.417 594.152 224.75L590.902 234.25C597.569 232.917 603.986 232.25 610.152 232.25C616.152 232.25 622.486 232.833 629.152 234C635.819 235 641.902 237 647.402 240C652.902 242.833 657.402 246.667 660.902 251.5C664.569 256.333 666.402 262.5 666.402 270C666.402 277.5 664.736 283.833 661.402 289C658.069 294.167 653.736 298.333 648.402 301.5C643.069 304.667 637.069 306.917 630.402 308.25C623.902 309.75 617.402 310.5 610.902 310.5C604.902 310.5 598.736 309.917 592.402 308.75C586.236 307.583 580.236 305.833 574.402 303.5C568.569 301.333 562.986 298.5 557.652 295C552.486 291.5 547.819 287.5 543.652 283L543.402 282.5ZM586.652 183C586.652 185.833 587.319 188.417 588.652 190.75C590.152 193.083 591.902 195.083 593.902 196.75C596.069 198.25 598.402 199.417 600.902 200.25C603.569 201.083 606.152 201.5 608.652 201.5C611.152 201.5 613.736 201.083 616.402 200.25C619.069 199.417 621.402 198.25 623.402 196.75C625.569 195.083 627.319 193.083 628.652 190.75C630.152 188.417 630.902 185.833 630.902 183C630.902 180 630.236 177.333 628.902 175C627.569 172.667 625.819 170.667 623.652 169C621.486 167.333 619.069 166.083 616.402 165.25C613.736 164.417 611.152 164 608.652 164C606.152 164 603.569 164.417 600.902 165.25C598.402 166.083 596.069 167.333 593.902 169C591.736 170.667 589.986 172.667 588.652 175C587.319 177.333 586.652 180 586.652 183ZM748.318 261C731.318 261 716.818 255 704.818 243C692.818 231 686.818 216.5 686.818 199.5C686.818 182.5 692.818 168 704.818 156C716.818 144 731.318 138 748.318 138C763.318 138 776.402 142.75 787.568 152.25C798.735 161.583 805.818 173.5 808.818 188C809.485 191.833 809.818 195.667 809.818 199.5V202.5C809.652 205 809.318 207.5 808.818 210H717.818L718.318 211C723.985 224.167 733.985 231.083 748.318 231.75C756.318 231.583 763.318 229 769.318 224H804.818C799.985 235 792.485 243.917 782.318 250.75C772.318 257.583 760.985 261 748.318 261ZM778.568 188C772.735 174.833 762.652 167.917 748.318 167.25C733.985 167.917 723.985 174.833 718.318 188H778.568ZM881.619 261C864.619 261 850.119 255 838.119 243C826.119 231 820.119 216.5 820.119 199.5C820.119 182.5 826.119 168 838.119 156C850.119 144 864.619 138 881.619 138C898.619 138 913.119 144 925.119 156C937.119 168 943.119 182.5 943.119 199.5C943.119 216.5 937.119 231 925.119 243C913.119 255 898.619 261 881.619 261ZM881.619 231.75C890.786 231.417 898.369 228.25 904.369 222.25C910.536 216.25 913.702 208.667 913.869 199.5C913.869 190.5 910.702 182.917 904.369 176.75C898.202 170.417 890.619 167.25 881.619 167.25C872.786 167.25 865.202 170.417 858.869 176.75C852.536 182.917 849.369 190.5 849.369 199.5C849.369 208.333 852.536 215.917 858.869 222.25C865.202 228.583 872.786 231.75 881.619 231.75ZM1074.41 261H1045.16V199.5C1045.16 178 1036.75 167.25 1019.91 167.25C1012.58 167.25 1005.58 170.333 998.914 176.5C992.247 182.5 988.914 190.167 988.914 199.5V261H959.664V138H988.914V154.5C994.081 148.833 999.914 144.667 1006.41 142C1012.91 139.333 1018.75 138 1023.91 138C1032.08 138 1039.08 139.333 1044.91 142C1064.58 151.167 1074.41 170.333 1074.41 199.5V261Z" fill="black"/>
<defs>
<linearGradient id="paint0_linear_31_2" x1="155.923" y1="0" x2="155.923" y2="274.898" gradientUnits="userSpaceOnUse">
<stop offset="0.22" stop-color="#10253F"/>
<stop offset="0.565" stop-color="#00C4C4"/>
<stop offset="1" stop-color="#023D61"/>
</linearGradient>
</defs>
</svg>
