<svg width="700" height="708" viewBox="0 0 700 708" fill="none" xmlns="http://www.w3.org/2000/svg">
<g style="mix-blend-mode:plus-darker">
<g clip-path="url(#clip0_0_1)">
<rect x="60" y="302" width="600" height="365.517" rx="16" fill="url(#paint0_radial_0_1)"/>
<g filter="url(#filter0_d_0_1)">
<path d="M404.838 615.352V613.816H406.806L408.486 614.08L408.606 613.792L407.238 612.784L405.846 611.392L406.926 610.312L408.318 611.68L409.326 613.072L409.614 612.952L409.35 611.248V609.304H410.886V611.248L410.622 612.952L410.91 613.072L411.918 611.68L413.31 610.312L414.39 611.392L413.022 612.784L411.63 613.792L411.75 614.08L413.43 613.816H415.398V615.352H413.43L411.75 615.088L411.63 615.376L413.022 616.384L414.39 617.776L413.31 618.856L411.918 617.464L410.91 616.072L410.622 616.192L410.886 617.896V619.84H409.35V617.896L409.614 616.192L409.326 616.072L408.318 617.464L406.926 618.856L405.846 617.776L407.238 616.384L408.606 615.376L408.486 615.088L406.806 615.352H404.838ZM416.605 615.352V613.816H418.573L420.253 614.08L420.373 613.792L419.005 612.784L417.613 611.392L418.693 610.312L420.085 611.68L421.093 613.072L421.381 612.952L421.117 611.248V609.304H422.653V611.248L422.389 612.952L422.677 613.072L423.685 611.68L425.077 610.312L426.157 611.392L424.789 612.784L423.397 613.792L423.517 614.08L425.197 613.816H427.165V615.352H425.197L423.517 615.088L423.397 615.376L424.789 616.384L426.157 617.776L425.077 618.856L423.685 617.464L422.677 616.072L422.389 616.192L422.653 617.896V619.84H421.117V617.896L421.381 616.192L421.093 616.072L420.085 617.464L418.693 618.856L417.613 617.776L419.005 616.384L420.373 615.376L420.253 615.088L418.573 615.352H416.605ZM428.371 615.352V613.816H430.339L432.019 614.08L432.139 613.792L430.771 612.784L429.379 611.392L430.459 610.312L431.851 611.68L432.859 613.072L433.147 612.952L432.883 611.248V609.304H434.419V611.248L434.155 612.952L434.443 613.072L435.451 611.68L436.843 610.312L437.923 611.392L436.555 612.784L435.163 613.792L435.283 614.08L436.963 613.816H438.931V615.352H436.963L435.283 615.088L435.163 615.376L436.555 616.384L437.923 617.776L436.843 618.856L435.451 617.464L434.443 616.072L434.155 616.192L434.419 617.896V619.84H432.883V617.896L433.147 616.192L432.859 616.072L431.851 617.464L430.459 618.856L429.379 617.776L430.771 616.384L432.139 615.376L432.019 615.088L430.339 615.352H428.371ZM440.138 615.352V613.816H442.106L443.786 614.08L443.906 613.792L442.538 612.784L441.146 611.392L442.226 610.312L443.618 611.68L444.626 613.072L444.914 612.952L444.65 611.248V609.304H446.186V611.248L445.922 612.952L446.21 613.072L447.218 611.68L448.61 610.312L449.69 611.392L448.322 612.784L446.93 613.792L447.05 614.08L448.73 613.816H450.698V615.352H448.73L447.05 615.088L446.93 615.376L448.322 616.384L449.69 617.776L448.61 618.856L447.218 617.464L446.21 616.072L445.922 616.192L446.186 617.896V619.84H444.65V617.896L444.914 616.192L444.626 616.072L443.618 617.464L442.226 618.856L441.146 617.776L442.538 616.384L443.906 615.376L443.786 615.088L442.106 615.352H440.138ZM452.6 621.088V618.832H459.704V621.088H452.6ZM461.585 615.352V613.816H463.553L465.233 614.08L465.353 613.792L463.985 612.784L462.593 611.392L463.673 610.312L465.065 611.68L466.073 613.072L466.361 612.952L466.097 611.248V609.304H467.633V611.248L467.369 612.952L467.657 613.072L468.665 611.68L470.057 610.312L471.137 611.392L469.769 612.784L468.377 613.792L468.497 614.08L470.177 613.816H472.145V615.352H470.177L468.497 615.088L468.377 615.376L469.769 616.384L471.137 617.776L470.057 618.856L468.665 617.464L467.657 616.072L467.369 616.192L467.633 617.896V619.84H466.097V617.896L466.361 616.192L466.073 616.072L465.065 617.464L463.673 618.856L462.593 617.776L463.985 616.384L465.353 615.376L465.233 615.088L463.553 615.352H461.585ZM473.352 615.352V613.816H475.32L477 614.08L477.12 613.792L475.752 612.784L474.36 611.392L475.44 610.312L476.832 611.68L477.84 613.072L478.128 612.952L477.864 611.248V609.304H479.4V611.248L479.136 612.952L479.424 613.072L480.432 611.68L481.824 610.312L482.904 611.392L481.536 612.784L480.144 613.792L480.264 614.08L481.944 613.816H483.912V615.352H481.944L480.264 615.088L480.144 615.376L481.536 616.384L482.904 617.776L481.824 618.856L480.432 617.464L479.424 616.072L479.136 616.192L479.4 617.896V619.84H477.864V617.896L478.128 616.192L477.84 616.072L476.832 617.464L475.44 618.856L474.36 617.776L475.752 616.384L477.12 615.376L477 615.088L475.32 615.352H473.352ZM485.118 615.352V613.816H487.086L488.766 614.08L488.886 613.792L487.518 612.784L486.126 611.392L487.206 610.312L488.598 611.68L489.606 613.072L489.894 612.952L489.63 611.248V609.304H491.166V611.248L490.902 612.952L491.19 613.072L492.198 611.68L493.59 610.312L494.67 611.392L493.302 612.784L491.91 613.792L492.03 614.08L493.71 613.816H495.678V615.352H493.71L492.03 615.088L491.91 615.376L493.302 616.384L494.67 617.776L493.59 618.856L492.198 617.464L491.19 616.072L490.902 616.192L491.166 617.896V619.84H489.63V617.896L489.894 616.192L489.606 616.072L488.598 617.464L487.206 618.856L486.126 617.776L487.518 616.384L488.886 615.376L488.766 615.088L487.086 615.352H485.118ZM496.885 615.352V613.816H498.853L500.533 614.08L500.653 613.792L499.285 612.784L497.893 611.392L498.973 610.312L500.365 611.68L501.373 613.072L501.661 612.952L501.397 611.248V609.304H502.933V611.248L502.669 612.952L502.957 613.072L503.965 611.68L505.357 610.312L506.437 611.392L505.069 612.784L503.677 613.792L503.797 614.08L505.477 613.816H507.445V615.352H505.477L503.797 615.088L503.677 615.376L505.069 616.384L506.437 617.776L505.357 618.856L503.965 617.464L502.957 616.072L502.669 616.192L502.933 617.896V619.84H501.397V617.896L501.661 616.192L501.373 616.072L500.365 617.464L498.973 618.856L497.893 617.776L499.285 616.384L500.653 615.376L500.533 615.088L498.853 615.352H496.885ZM509.347 621.088V618.832H516.451V621.088H509.347ZM518.332 615.352V613.816H520.3L521.98 614.08L522.1 613.792L520.732 612.784L519.34 611.392L520.42 610.312L521.812 611.68L522.82 613.072L523.108 612.952L522.844 611.248V609.304H524.38V611.248L524.116 612.952L524.404 613.072L525.412 611.68L526.804 610.312L527.884 611.392L526.516 612.784L525.124 613.792L525.244 614.08L526.924 613.816H528.892V615.352H526.924L525.244 615.088L525.124 615.376L526.516 616.384L527.884 617.776L526.804 618.856L525.412 617.464L524.404 616.072L524.116 616.192L524.38 617.896V619.84H522.844V617.896L523.108 616.192L522.82 616.072L521.812 617.464L520.42 618.856L519.34 617.776L520.732 616.384L522.1 615.376L521.98 615.088L520.3 615.352H518.332ZM530.098 615.352V613.816H532.066L533.746 614.08L533.866 613.792L532.498 612.784L531.106 611.392L532.186 610.312L533.578 611.68L534.586 613.072L534.874 612.952L534.61 611.248V609.304H536.146V611.248L535.882 612.952L536.17 613.072L537.178 611.68L538.57 610.312L539.65 611.392L538.282 612.784L536.89 613.792L537.01 614.08L538.69 613.816H540.658V615.352H538.69L537.01 615.088L536.89 615.376L538.282 616.384L539.65 617.776L538.57 618.856L537.178 617.464L536.17 616.072L535.882 616.192L536.146 617.896V619.84H534.61V617.896L534.874 616.192L534.586 616.072L533.578 617.464L532.186 618.856L531.106 617.776L532.498 616.384L533.866 615.376L533.746 615.088L532.066 615.352H530.098ZM541.865 615.352V613.816H543.833L545.513 614.08L545.633 613.792L544.265 612.784L542.873 611.392L543.953 610.312L545.345 611.68L546.353 613.072L546.641 612.952L546.377 611.248V609.304H547.913V611.248L547.649 612.952L547.937 613.072L548.945 611.68L550.337 610.312L551.417 611.392L550.049 612.784L548.657 613.792L548.777 614.08L550.457 613.816H552.425V615.352H550.457L548.777 615.088L548.657 615.376L550.049 616.384L551.417 617.776L550.337 618.856L548.945 617.464L547.937 616.072L547.649 616.192L547.913 617.896V619.84H546.377V617.896L546.641 616.192L546.353 616.072L545.345 617.464L543.953 618.856L542.873 617.776L544.265 616.384L545.633 615.376L545.513 615.088L543.833 615.352H541.865ZM553.632 615.352V613.816H555.6L557.28 614.08L557.4 613.792L556.032 612.784L554.64 611.392L555.72 610.312L557.112 611.68L558.12 613.072L558.408 612.952L558.144 611.248V609.304H559.68V611.248L559.416 612.952L559.704 613.072L560.712 611.68L562.104 610.312L563.184 611.392L561.816 612.784L560.424 613.792L560.544 614.08L562.224 613.816H564.192V615.352H562.224L560.544 615.088L560.424 615.376L561.816 616.384L563.184 617.776L562.104 618.856L560.712 617.464L559.704 616.072L559.416 616.192L559.68 617.896V619.84H558.144V617.896L558.408 616.192L558.12 616.072L557.112 617.464L555.72 618.856L554.64 617.776L556.032 616.384L557.4 615.376L557.28 615.088L555.6 615.352H553.632ZM566.094 621.088V618.832H573.198V621.088H566.094ZM580.167 626.104V611.08H579.783L577.023 616.744H574.359L578.079 609.304H582.687V626.104H580.167ZM584.62 626.104V624.208C584.62 623.04 584.82 622.08 585.22 621.328C585.62 620.576 586.188 619.968 586.924 619.504C587.676 619.024 588.58 618.624 589.636 618.304L591.1 617.848C591.756 617.64 592.316 617.384 592.78 617.08C593.26 616.776 593.628 616.4 593.884 615.952C594.14 615.488 594.268 614.952 594.268 614.344V614.248C594.268 613.304 593.948 612.568 593.308 612.04C592.668 611.496 591.828 611.224 590.788 611.224C589.716 611.224 588.844 611.512 588.172 612.088C587.516 612.664 587.188 613.512 587.188 614.632V615.016H584.692V614.656C584.692 613.44 584.956 612.416 585.484 611.584C586.012 610.736 586.74 610.088 587.668 609.64C588.596 609.192 589.636 608.968 590.788 608.968C591.94 608.968 592.964 609.184 593.86 609.616C594.772 610.048 595.484 610.656 595.996 611.44C596.524 612.224 596.788 613.144 596.788 614.2V614.416C596.788 615.504 596.572 616.408 596.14 617.128C595.708 617.848 595.108 618.44 594.34 618.904C593.588 619.368 592.716 619.76 591.724 620.08L590.308 620.512C589.556 620.736 588.948 620.984 588.484 621.256C588.036 621.512 587.7 621.824 587.476 622.192C587.268 622.56 587.164 623.032 587.164 623.608V623.848H596.644V626.104H584.62ZM604.101 626.44C602.869 626.44 601.773 626.216 600.813 625.768C599.853 625.32 599.101 624.672 598.557 623.824C598.029 622.976 597.765 621.968 597.765 620.8V620.368H600.285V620.752C600.285 621.808 600.629 622.648 601.317 623.272C602.021 623.88 602.949 624.184 604.101 624.184C605.253 624.184 606.149 623.896 606.789 623.32C607.429 622.744 607.749 622.016 607.749 621.136V620.92C607.749 620.296 607.597 619.792 607.293 619.408C606.989 619.024 606.581 618.744 606.069 618.568C605.557 618.376 604.981 618.28 604.341 618.28H601.293V615.376L607.197 611.896V611.56H598.173V609.304H609.933V612.712L604.293 616.072V616.408H605.325C606.173 616.408 606.973 616.568 607.725 616.888C608.477 617.208 609.085 617.696 609.549 618.352C610.029 619.008 610.269 619.84 610.269 620.848V621.136C610.269 622.208 610.013 623.144 609.501 623.944C608.989 624.728 608.269 625.344 607.341 625.792C606.413 626.224 605.333 626.44 604.101 626.44ZM619.592 626.104V622.672H611.096V619.744L617.528 609.304H622.112V620.44H624.944V622.672H622.112V626.104H619.592ZM613.544 620.44H619.592V610.888H619.208L613.544 620.104V620.44Z" fill="white"/>
</g>
<mask id="mask0_0_1" style="mask-type:luminance" maskUnits="userSpaceOnUse" x="256" y="400" width="171" height="171">
<path d="M426.69 400H256V570.008H426.69V400Z" fill="white"/>
</mask>
<g mask="url(#mask0_0_1)">
<path d="M373.221 400.38L341.349 446.684L341.341 446.692" stroke="url(#paint1_linear_0_1)" stroke-miterlimit="10"/>
<path d="M341.341 446.692L347.941 456.267L386.413 400.38H399.605L354.533 465.85L354.556 465.887C356.337 468.467 358.645 470.679 361.344 472.386L362.652 473.214L412.783 400.38H425.975L371.853 479.013" stroke="url(#paint2_linear_0_1)" stroke-miterlimit="10"/>
<path d="M341.348 446.684L309.469 400.38" stroke="url(#paint3_linear_0_1)" stroke-miterlimit="10"/>
<path d="M310.844 479.005L256.714 400.38H269.899L320.023 473.206L321.368 472.356C324.059 470.656 326.367 468.452 328.141 465.873L328.156 465.842L283.084 400.38H296.276L334.748 456.267L341.341 446.692" stroke="url(#paint4_linear_0_1)" stroke-miterlimit="10"/>
<path d="M373.221 569.631L341.349 523.327L341.341 523.319" stroke="url(#paint5_linear_0_1)" stroke-miterlimit="10"/>
<path d="M371.845 491.008L425.968 569.633H412.776L362.644 496.815L361.321 497.65C358.615 499.357 356.307 501.568 354.526 504.156L399.598 569.633H386.406L347.933 513.746L341.341 523.329" stroke="url(#paint6_linear_0_1)" stroke-miterlimit="10"/>
<path d="M341.348 523.335L309.469 569.639" stroke="url(#paint7_linear_0_1)" stroke-miterlimit="10"/>
<path d="M310.844 491.008L256.714 569.633H269.899L320.03 496.815L321.368 497.657C324.074 499.365 326.382 501.576 328.163 504.163L283.091 569.633H296.284L334.756 513.746L341.348 523.322" stroke="url(#paint8_linear_0_1)" stroke-miterlimit="10"/>
</g>
</g>
</g>
<path d="M189.31 443.073H165.117M165.117 443.073V457.287M165.117 443.073V426.138M165.117 482.751V471.501M165.117 471.501V457.287M165.117 471.501H189.31M165.117 457.287H189.31" stroke="url(#paint9_angular_0_1)" stroke-width="1.4"/>
<rect x="112.424" y="426.838" width="76.0193" height="57.5862" rx="6.55" fill="url(#paint10_linear_0_1)" fill-opacity="0.9" stroke="url(#paint11_angular_0_1)" stroke-width="1.4"/>
<path d="M111.724 445.363H133.502C135.504 445.363 137.127 446.986 137.127 448.988V459.577M137.127 485.041V473.791M137.127 473.791V459.577M137.127 473.791H111.724M137.127 459.577H111.724" stroke="url(#paint12_angular_0_1)" stroke-width="1.4"/>
<mask id="mask1_0_1" style="mask-type:luminance" maskUnits="userSpaceOnUse" x="435" y="327" width="43" height="43">
<mask id="path-16-inside-1_0_1" fill="white">
<path d="M465.07 330.952C465.756 331.566 466.395 332.233 467.024 332.924C467.108 333.009 467.193 333.095 467.28 333.183C468.556 334.539 469.695 336.596 470.253 338.509C470.253 338.608 470.253 338.708 470.253 338.811C470.384 338.861 470.384 338.861 470.518 338.912C471.011 339.172 471.401 339.529 471.828 339.915C472.011 340.079 472.195 340.242 472.379 340.406C472.475 340.491 472.571 340.576 472.669 340.663C473.164 341.098 473.666 341.521 474.169 341.943C474.316 342.066 474.316 342.066 474.465 342.193C474.654 342.351 474.843 342.51 475.031 342.668C475.39 342.97 475.748 343.272 476.106 343.575C476.21 343.662 476.313 343.75 476.42 343.84C476.738 344.117 477.048 344.406 477.358 344.698C477.182 345.179 477.007 345.426 476.643 345.726C476.503 345.842 476.503 345.842 476.361 345.96C476.261 346.042 476.161 346.123 476.058 346.207C475.954 346.293 475.851 346.379 475.744 346.467C475.422 346.734 475.098 346.999 474.774 347.264C474.577 347.427 474.379 347.59 474.182 347.753C473.903 347.983 473.624 348.213 473.345 348.443C472.094 349.466 472.094 349.466 470.877 350.542C470.641 350.736 470.641 350.736 470.382 350.736C470.348 350.864 470.314 350.993 470.278 351.126C469.04 355.259 466.279 358.51 462.994 360.495C460.857 361.655 458.535 362.065 456.198 362.105C456.042 362.108 455.886 362.111 455.725 362.114C455.228 362.124 454.732 362.133 454.236 362.142C453.899 362.148 453.561 362.155 453.223 362.161C452.399 362.178 451.574 362.193 450.749 362.208C450.747 362.294 450.746 362.381 450.745 362.47C450.731 363.369 450.716 364.268 450.701 365.166C450.695 365.502 450.69 365.838 450.684 366.173C450.677 366.655 450.669 367.136 450.66 367.618C450.658 367.769 450.656 367.92 450.654 368.076C450.651 368.215 450.649 368.354 450.646 368.497C450.644 368.62 450.642 368.743 450.64 368.87C450.619 369.151 450.619 369.151 450.49 369.302C450.238 369.319 449.985 369.325 449.733 369.327C449.571 369.328 449.409 369.33 449.242 369.331C449.063 369.332 448.885 369.332 448.707 369.333C448.525 369.334 448.343 369.335 448.162 369.336C447.78 369.337 447.399 369.338 447.018 369.339C446.529 369.34 446.039 369.343 445.55 369.347C445.175 369.35 444.8 369.351 444.424 369.351C444.244 369.352 444.063 369.353 443.883 369.355C443.631 369.357 443.379 369.357 443.127 369.356C442.983 369.357 442.84 369.357 442.692 369.358C442.58 369.34 442.468 369.321 442.353 369.302C442.081 368.826 442.062 368.718 442.065 368.175C442.065 368.039 442.065 367.903 442.065 367.763C442.066 367.616 442.068 367.47 442.069 367.319C442.069 367.169 442.07 367.019 442.07 366.864C442.072 366.385 442.075 365.905 442.078 365.425C442.079 365.1 442.081 364.775 442.082 364.449C442.084 363.652 442.089 362.854 442.094 362.057C441.981 362.057 441.981 362.057 441.865 362.058C441.079 362.061 440.293 362.064 439.508 362.065C439.214 362.066 438.92 362.067 438.627 362.068C438.206 362.07 437.785 362.071 437.364 362.072C437.232 362.072 437.1 362.073 436.964 362.074C436.842 362.074 436.72 362.074 436.595 362.074C436.488 362.074 436.38 362.075 436.269 362.075C436.023 362.057 436.023 362.057 435.894 361.906C435.881 361.611 435.876 361.316 435.875 361.021C435.875 360.831 435.874 360.642 435.873 360.447C435.873 360.238 435.872 360.03 435.872 359.821C435.872 359.609 435.872 359.397 435.871 359.185C435.87 358.739 435.87 358.294 435.87 357.848C435.87 357.276 435.868 356.705 435.866 356.133C435.865 355.694 435.864 355.256 435.865 354.817C435.864 354.606 435.864 354.395 435.863 354.185C435.862 353.89 435.862 353.596 435.863 353.301C435.863 353.133 435.862 352.965 435.862 352.792C435.894 352.396 435.894 352.396 436.152 352.094C436.404 352.052 436.404 352.052 436.715 352.046C436.89 352.042 436.89 352.042 437.068 352.037C437.257 352.034 437.257 352.034 437.449 352.032C437.642 352.027 437.642 352.027 437.839 352.023C438.251 352.014 438.663 352.007 439.075 352C439.354 351.994 439.633 351.988 439.911 351.982C440.596 351.968 441.281 351.955 441.965 351.943C441.966 351.844 441.967 351.744 441.967 351.642C441.976 350.591 441.987 349.54 441.999 348.489C442.003 348.099 442.007 347.708 442.01 347.318C442.053 341.782 442.852 337.197 446.228 333.075C446.307 332.973 446.386 332.871 446.467 332.766C448.58 330.134 451.509 328.708 454.494 328.093C454.614 328.065 454.734 328.037 454.857 328.008C458.411 327.444 462.146 328.536 465.07 330.952ZM452.077 340.476C450.836 342.267 450.49 343.905 450.619 346.207C450.811 347.684 451.427 349.04 452.299 350.132C452.384 350.132 452.469 350.132 452.557 350.132C452.557 350.232 452.557 350.331 452.557 350.434C454.142 351.889 455.752 352.338 457.724 352.094C459.027 351.802 460.326 350.999 461.211 349.83C461.211 349.73 461.211 349.631 461.211 349.528C461.297 349.528 461.382 349.528 461.47 349.528C462.534 347.81 462.936 346.047 462.761 343.943C462.421 341.883 461.515 340.182 460.049 338.962C457.28 337.172 454.168 337.582 452.077 340.476Z"/>
</mask>
<path d="M465.07 330.952C465.756 331.566 466.395 332.233 467.024 332.924C467.108 333.009 467.193 333.095 467.28 333.183C468.556 334.539 469.695 336.596 470.253 338.509C470.253 338.608 470.253 338.708 470.253 338.811C470.384 338.861 470.384 338.861 470.518 338.912C471.011 339.172 471.401 339.529 471.828 339.915C472.011 340.079 472.195 340.242 472.379 340.406C472.475 340.491 472.571 340.576 472.669 340.663C473.164 341.098 473.666 341.521 474.169 341.943C474.316 342.066 474.316 342.066 474.465 342.193C474.654 342.351 474.843 342.51 475.031 342.668C475.39 342.97 475.748 343.272 476.106 343.575C476.21 343.662 476.313 343.75 476.42 343.84C476.738 344.117 477.048 344.406 477.358 344.698C477.182 345.179 477.007 345.426 476.643 345.726C476.503 345.842 476.503 345.842 476.361 345.96C476.261 346.042 476.161 346.123 476.058 346.207C475.954 346.293 475.851 346.379 475.744 346.467C475.422 346.734 475.098 346.999 474.774 347.264C474.577 347.427 474.379 347.59 474.182 347.753C473.903 347.983 473.624 348.213 473.345 348.443C472.094 349.466 472.094 349.466 470.877 350.542C470.641 350.736 470.641 350.736 470.382 350.736C470.348 350.864 470.314 350.993 470.278 351.126C469.04 355.259 466.279 358.51 462.994 360.495C460.857 361.655 458.535 362.065 456.198 362.105C456.042 362.108 455.886 362.111 455.725 362.114C455.228 362.124 454.732 362.133 454.236 362.142C453.899 362.148 453.561 362.155 453.223 362.161C452.399 362.178 451.574 362.193 450.749 362.208C450.747 362.294 450.746 362.381 450.745 362.47C450.731 363.369 450.716 364.268 450.701 365.166C450.695 365.502 450.69 365.838 450.684 366.173C450.677 366.655 450.669 367.136 450.66 367.618C450.658 367.769 450.656 367.92 450.654 368.076C450.651 368.215 450.649 368.354 450.646 368.497C450.644 368.62 450.642 368.743 450.64 368.87C450.619 369.151 450.619 369.151 450.49 369.302C450.238 369.319 449.985 369.325 449.733 369.327C449.571 369.328 449.409 369.33 449.242 369.331C449.063 369.332 448.885 369.332 448.707 369.333C448.525 369.334 448.343 369.335 448.162 369.336C447.78 369.337 447.399 369.338 447.018 369.339C446.529 369.34 446.039 369.343 445.55 369.347C445.175 369.35 444.8 369.351 444.424 369.351C444.244 369.352 444.063 369.353 443.883 369.355C443.631 369.357 443.379 369.357 443.127 369.356C442.983 369.357 442.84 369.357 442.692 369.358C442.58 369.34 442.468 369.321 442.353 369.302C442.081 368.826 442.062 368.718 442.065 368.175C442.065 368.039 442.065 367.903 442.065 367.763C442.066 367.616 442.068 367.47 442.069 367.319C442.069 367.169 442.07 367.019 442.07 366.864C442.072 366.385 442.075 365.905 442.078 365.425C442.079 365.1 442.081 364.775 442.082 364.449C442.084 363.652 442.089 362.854 442.094 362.057C441.981 362.057 441.981 362.057 441.865 362.058C441.079 362.061 440.293 362.064 439.508 362.065C439.214 362.066 438.92 362.067 438.627 362.068C438.206 362.07 437.785 362.071 437.364 362.072C437.232 362.072 437.1 362.073 436.964 362.074C436.842 362.074 436.72 362.074 436.595 362.074C436.488 362.074 436.38 362.075 436.269 362.075C436.023 362.057 436.023 362.057 435.894 361.906C435.881 361.611 435.876 361.316 435.875 361.021C435.875 360.831 435.874 360.642 435.873 360.447C435.873 360.238 435.872 360.03 435.872 359.821C435.872 359.609 435.872 359.397 435.871 359.185C435.87 358.739 435.87 358.294 435.87 357.848C435.87 357.276 435.868 356.705 435.866 356.133C435.865 355.694 435.864 355.256 435.865 354.817C435.864 354.606 435.864 354.395 435.863 354.185C435.862 353.89 435.862 353.596 435.863 353.301C435.863 353.133 435.862 352.965 435.862 352.792C435.894 352.396 435.894 352.396 436.152 352.094C436.404 352.052 436.404 352.052 436.715 352.046C436.89 352.042 436.89 352.042 437.068 352.037C437.257 352.034 437.257 352.034 437.449 352.032C437.642 352.027 437.642 352.027 437.839 352.023C438.251 352.014 438.663 352.007 439.075 352C439.354 351.994 439.633 351.988 439.911 351.982C440.596 351.968 441.281 351.955 441.965 351.943C441.966 351.844 441.967 351.744 441.967 351.642C441.976 350.591 441.987 349.54 441.999 348.489C442.003 348.099 442.007 347.708 442.01 347.318C442.053 341.782 442.852 337.197 446.228 333.075C446.307 332.973 446.386 332.871 446.467 332.766C448.58 330.134 451.509 328.708 454.494 328.093C454.614 328.065 454.734 328.037 454.857 328.008C458.411 327.444 462.146 328.536 465.07 330.952ZM452.077 340.476C450.836 342.267 450.49 343.905 450.619 346.207C450.811 347.684 451.427 349.04 452.299 350.132C452.384 350.132 452.469 350.132 452.557 350.132C452.557 350.232 452.557 350.331 452.557 350.434C454.142 351.889 455.752 352.338 457.724 352.094C459.027 351.802 460.326 350.999 461.211 349.83C461.211 349.73 461.211 349.631 461.211 349.528C461.297 349.528 461.382 349.528 461.47 349.528C462.534 347.81 462.936 346.047 462.761 343.943C462.421 341.883 461.515 340.182 460.049 338.962C457.28 337.172 454.168 337.582 452.077 340.476Z" fill="white" stroke="url(#paint13_linear_0_1)" stroke-opacity="0.55" stroke-width="2" mask="url(#path-16-inside-1_0_1)"/>
</mask>
<g mask="url(#mask1_0_1)">
<path d="M465.07 330.952C465.756 331.566 466.395 332.233 467.024 332.924C467.108 333.009 467.193 333.095 467.28 333.183C468.556 334.539 469.695 336.596 470.253 338.509C470.253 338.608 470.253 338.708 470.253 338.811C470.384 338.861 470.384 338.861 470.518 338.912C471.011 339.172 471.401 339.529 471.828 339.915C472.011 340.079 472.195 340.242 472.379 340.406C472.475 340.491 472.571 340.576 472.669 340.663C473.164 341.098 473.666 341.521 474.169 341.943C474.316 342.066 474.316 342.066 474.465 342.193C474.654 342.351 474.843 342.51 475.031 342.668C475.39 342.97 475.748 343.272 476.106 343.575C476.21 343.662 476.313 343.75 476.42 343.84C476.738 344.117 477.048 344.406 477.358 344.698C477.182 345.179 477.007 345.426 476.643 345.726C476.503 345.842 476.503 345.842 476.361 345.96C476.261 346.042 476.161 346.123 476.058 346.207C475.954 346.293 475.851 346.379 475.744 346.467C475.422 346.734 475.098 346.999 474.774 347.264C474.577 347.427 474.379 347.59 474.182 347.753C473.903 347.983 473.624 348.213 473.345 348.443C472.094 349.466 472.094 349.466 470.877 350.542C470.641 350.736 470.641 350.736 470.382 350.736C470.348 350.864 470.314 350.993 470.278 351.126C469.04 355.259 466.279 358.51 462.994 360.495C460.857 361.655 458.535 362.065 456.198 362.105C456.042 362.108 455.886 362.111 455.725 362.114C455.228 362.124 454.732 362.133 454.236 362.142C453.899 362.148 453.561 362.155 453.223 362.161C452.399 362.178 451.574 362.193 450.749 362.208C450.747 362.294 450.746 362.381 450.745 362.47C450.731 363.369 450.716 364.268 450.701 365.166C450.695 365.502 450.69 365.838 450.684 366.173C450.677 366.655 450.669 367.136 450.66 367.618C450.658 367.769 450.656 367.92 450.654 368.076C450.651 368.215 450.649 368.354 450.646 368.497C450.644 368.62 450.642 368.743 450.64 368.87C450.619 369.151 450.619 369.151 450.49 369.302C450.238 369.319 449.985 369.325 449.733 369.327C449.571 369.328 449.409 369.33 449.242 369.331C449.063 369.332 448.885 369.332 448.707 369.333C448.525 369.334 448.343 369.335 448.162 369.336C447.78 369.337 447.399 369.338 447.018 369.339C446.529 369.34 446.039 369.343 445.55 369.347C445.175 369.35 444.8 369.351 444.424 369.351C444.244 369.352 444.063 369.353 443.883 369.355C443.631 369.357 443.379 369.357 443.127 369.356C442.983 369.357 442.84 369.357 442.692 369.358C442.58 369.34 442.468 369.321 442.353 369.302C442.081 368.826 442.062 368.718 442.065 368.175C442.065 368.039 442.065 367.903 442.065 367.763C442.066 367.616 442.068 367.47 442.069 367.319C442.069 367.169 442.07 367.019 442.07 366.864C442.072 366.385 442.075 365.905 442.078 365.425C442.079 365.1 442.081 364.775 442.082 364.449C442.084 363.652 442.089 362.854 442.094 362.057C441.981 362.057 441.981 362.057 441.865 362.058C441.079 362.061 440.293 362.064 439.508 362.065C439.214 362.066 438.92 362.067 438.627 362.068C438.206 362.07 437.785 362.071 437.364 362.072C437.232 362.072 437.1 362.073 436.964 362.074C436.842 362.074 436.72 362.074 436.595 362.074C436.488 362.074 436.38 362.075 436.269 362.075C436.023 362.057 436.023 362.057 435.894 361.906C435.881 361.611 435.876 361.316 435.875 361.021C435.875 360.831 435.874 360.642 435.873 360.447C435.873 360.238 435.872 360.03 435.872 359.821C435.872 359.609 435.872 359.397 435.871 359.185C435.87 358.739 435.87 358.294 435.87 357.848C435.87 357.276 435.868 356.705 435.866 356.133C435.865 355.694 435.864 355.256 435.865 354.817C435.864 354.606 435.864 354.395 435.863 354.185C435.862 353.89 435.862 353.596 435.863 353.301C435.863 353.133 435.862 352.965 435.862 352.792C435.894 352.396 435.894 352.396 436.152 352.094C436.404 352.052 436.404 352.052 436.715 352.046C436.89 352.042 436.89 352.042 437.068 352.037C437.257 352.034 437.257 352.034 437.449 352.032C437.642 352.027 437.642 352.027 437.839 352.023C438.251 352.014 438.663 352.007 439.075 352C439.354 351.994 439.633 351.988 439.911 351.982C440.596 351.968 441.281 351.955 441.965 351.943C441.966 351.844 441.967 351.744 441.967 351.642C441.976 350.591 441.987 349.54 441.999 348.489C442.003 348.099 442.007 347.708 442.01 347.318C442.053 341.782 442.852 337.197 446.228 333.075C446.307 332.973 446.386 332.871 446.467 332.766C448.58 330.134 451.509 328.708 454.494 328.093C454.614 328.065 454.734 328.037 454.857 328.008C458.411 327.444 462.146 328.536 465.07 330.952ZM452.077 340.476C450.836 342.267 450.49 343.905 450.619 346.207C450.811 347.684 451.427 349.04 452.299 350.132C452.384 350.132 452.469 350.132 452.557 350.132C452.557 350.232 452.557 350.331 452.557 350.434C454.142 351.889 455.752 352.338 457.724 352.094C459.027 351.802 460.326 350.999 461.211 349.83C461.211 349.73 461.211 349.631 461.211 349.528C461.297 349.528 461.382 349.528 461.47 349.528C462.534 347.81 462.936 346.047 462.761 343.943C462.421 341.883 461.515 340.182 460.049 338.962C457.28 337.172 454.168 337.582 452.077 340.476Z" fill="url(#paint14_linear_0_1)" fill-opacity="0.55" stroke="url(#paint15_linear_0_1)" stroke-opacity="0.55"/>
</g>
<mask id="path-18-inside-2_0_1" fill="white">
<path d="M494.12 365.747H489.197V362.759C487.569 364.751 485.339 365.747 482.505 365.747C479.98 365.747 477.834 364.737 476.067 362.717C474.299 360.697 473.416 358.256 473.416 355.395C473.416 352.533 474.299 350.092 476.067 348.072C477.834 346.052 479.98 345.042 482.505 345.042C485.339 345.042 487.569 346.038 489.197 348.03V345.042H494.12V365.747ZM483.768 360.823C485.311 360.767 486.587 360.234 487.597 359.224C488.636 358.214 489.168 356.938 489.197 355.395C489.168 353.852 488.636 352.575 487.597 351.565C486.587 350.527 485.311 349.994 483.768 349.966C482.225 349.994 480.948 350.527 479.938 351.565C478.928 352.575 478.395 353.852 478.339 355.395C478.395 356.938 478.928 358.214 479.938 359.224C480.948 360.234 482.225 360.767 483.768 360.823ZM508.79 373.785H502.73V368.861H508.79C509.66 368.833 510.389 368.525 510.978 367.935C511.567 367.346 511.876 366.603 511.904 365.705V362.97C511.035 363.924 510.053 364.625 508.958 365.074C507.864 365.523 506.882 365.747 506.013 365.747C504.666 365.747 503.488 365.509 502.478 365.032C499.167 363.489 497.512 360.276 497.512 355.395V345.042H502.436V355.395C502.436 358.986 503.852 360.795 506.686 360.823C507.92 360.823 509.099 360.304 510.221 359.266C511.343 358.228 511.904 356.938 511.904 355.395V345.042H516.828V365.705C516.828 367.949 516.042 369.857 514.471 371.428C512.9 372.999 511.006 373.785 508.79 373.785ZM518.891 369.366L522.131 366.168L522.215 366.21C523.281 367.192 524.544 367.921 526.003 368.398C527.462 368.875 528.92 369.114 530.379 369.114C530.688 369.114 531.081 369.086 531.558 369.03C532.063 369.001 532.554 368.917 533.03 368.777C533.507 368.665 533.914 368.482 534.251 368.23C534.616 368.006 534.798 367.711 534.798 367.346C534.798 366.954 534.63 366.645 534.293 366.42C533.956 366.196 533.535 366.014 533.03 365.873C532.525 365.761 532.02 365.705 531.515 365.705C531.01 365.677 530.604 365.663 530.295 365.663C529.313 365.663 528.317 365.719 527.307 365.831C526.325 365.944 525.371 366.154 524.446 366.463H524.403L521.584 363.685L523.562 357.793C522.748 357.092 522.117 356.307 521.668 355.437C521.219 354.539 520.995 353.557 520.995 352.491C520.995 351.313 521.247 350.261 521.752 349.335C522.257 348.381 522.931 347.581 523.772 346.936C524.614 346.263 525.568 345.758 526.634 345.421C527.7 345.056 528.78 344.874 529.874 344.874C531.81 344.874 533.732 344.888 535.64 344.916C537.575 344.916 539.511 344.916 541.447 344.916H541.531V349.461L537.323 348.83C538.249 349.924 538.712 351.186 538.712 352.617C538.712 353.711 538.459 354.721 537.954 355.647C537.449 356.545 536.79 357.331 535.976 358.004C535.163 358.649 534.237 359.154 533.199 359.519C532.189 359.884 531.165 360.066 530.127 360.066C529.145 360.066 528.247 359.926 527.433 359.645L526.886 361.244C528.009 361.02 529.089 360.908 530.127 360.908C531.137 360.908 532.203 361.006 533.325 361.202C534.447 361.37 535.471 361.707 536.397 362.212C537.323 362.689 538.08 363.334 538.67 364.148C539.287 364.962 539.595 366 539.595 367.262C539.595 368.525 539.315 369.591 538.754 370.46C538.193 371.33 537.463 372.031 536.565 372.565C535.668 373.098 534.658 373.476 533.535 373.701C532.441 373.953 531.347 374.08 530.253 374.08C529.243 374.08 528.205 373.981 527.139 373.785C526.101 373.588 525.091 373.294 524.109 372.901C523.127 372.536 522.187 372.06 521.289 371.47C520.42 370.881 519.634 370.208 518.933 369.45L518.891 369.366ZM526.171 352.617C526.171 353.094 526.283 353.529 526.508 353.922C526.76 354.315 527.055 354.651 527.391 354.932C527.756 355.184 528.149 355.381 528.57 355.521C529.019 355.661 529.453 355.731 529.874 355.731C530.295 355.731 530.73 355.661 531.179 355.521C531.628 355.381 532.02 355.184 532.357 354.932C532.722 354.651 533.016 354.315 533.241 353.922C533.493 353.529 533.62 353.094 533.62 352.617C533.62 352.112 533.507 351.663 533.283 351.271C533.059 350.878 532.764 350.541 532.399 350.261C532.035 349.98 531.628 349.77 531.179 349.629C530.73 349.489 530.295 349.419 529.874 349.419C529.453 349.419 529.019 349.489 528.57 349.629C528.149 349.77 527.756 349.98 527.391 350.261C527.027 350.541 526.732 350.878 526.508 351.271C526.283 351.663 526.171 352.112 526.171 352.617ZM553.384 365.747C550.523 365.747 548.082 364.737 546.062 362.717C544.042 360.697 543.032 358.256 543.032 355.395C543.032 352.533 544.042 350.092 546.062 348.072C548.082 346.052 550.523 345.042 553.384 345.042C555.909 345.042 558.112 345.842 559.991 347.441C561.871 349.012 563.063 351.018 563.568 353.459C563.681 354.104 563.737 354.75 563.737 355.395V355.9C563.709 356.321 563.653 356.741 563.568 357.162H548.25L548.334 357.331C549.288 359.547 550.972 360.711 553.384 360.823C554.731 360.795 555.909 360.361 556.919 359.519H562.895C562.082 361.37 560.819 362.872 559.108 364.022C557.424 365.172 555.517 365.747 553.384 365.747ZM558.476 353.459C557.495 351.243 555.797 350.078 553.384 349.966C550.972 350.078 549.288 351.243 548.334 353.459H558.476ZM575.823 365.747C572.961 365.747 570.521 364.737 568.501 362.717C566.481 360.697 565.471 358.256 565.471 355.395C565.471 352.533 566.481 350.092 568.501 348.072C570.521 346.052 572.961 345.042 575.823 345.042C578.685 345.042 581.126 346.052 583.146 348.072C585.166 350.092 586.175 352.533 586.175 355.395C586.175 358.256 585.166 360.697 583.146 362.717C581.126 364.737 578.685 365.747 575.823 365.747ZM575.823 360.823C577.366 360.767 578.643 360.234 579.653 359.224C580.691 358.214 581.224 356.938 581.252 355.395C581.252 353.88 580.719 352.603 579.653 351.565C578.615 350.499 577.338 349.966 575.823 349.966C574.336 349.966 573.06 350.499 571.994 351.565C570.928 352.603 570.394 353.88 570.394 355.395C570.394 356.882 570.928 358.158 571.994 359.224C573.06 360.29 574.336 360.823 575.823 360.823ZM608.276 365.747H603.352V355.395C603.352 351.776 601.937 349.966 599.102 349.966C597.868 349.966 596.69 350.485 595.568 351.523C594.445 352.533 593.884 353.824 593.884 355.395V365.747H588.961V345.042H593.884V347.82C594.754 346.866 595.736 346.165 596.829 345.716C597.924 345.267 598.907 345.042 599.775 345.042C601.15 345.042 602.329 345.267 603.31 345.716C606.621 347.259 608.276 350.485 608.276 355.395V365.747Z"/>
</mask>
<path d="M494.12 365.747H489.197V362.759C487.569 364.751 485.339 365.747 482.505 365.747C479.98 365.747 477.834 364.737 476.067 362.717C474.299 360.697 473.416 358.256 473.416 355.395C473.416 352.533 474.299 350.092 476.067 348.072C477.834 346.052 479.98 345.042 482.505 345.042C485.339 345.042 487.569 346.038 489.197 348.03V345.042H494.12V365.747ZM483.768 360.823C485.311 360.767 486.587 360.234 487.597 359.224C488.636 358.214 489.168 356.938 489.197 355.395C489.168 353.852 488.636 352.575 487.597 351.565C486.587 350.527 485.311 349.994 483.768 349.966C482.225 349.994 480.948 350.527 479.938 351.565C478.928 352.575 478.395 353.852 478.339 355.395C478.395 356.938 478.928 358.214 479.938 359.224C480.948 360.234 482.225 360.767 483.768 360.823ZM508.79 373.785H502.73V368.861H508.79C509.66 368.833 510.389 368.525 510.978 367.935C511.567 367.346 511.876 366.603 511.904 365.705V362.97C511.035 363.924 510.053 364.625 508.958 365.074C507.864 365.523 506.882 365.747 506.013 365.747C504.666 365.747 503.488 365.509 502.478 365.032C499.167 363.489 497.512 360.276 497.512 355.395V345.042H502.436V355.395C502.436 358.986 503.852 360.795 506.686 360.823C507.92 360.823 509.099 360.304 510.221 359.266C511.343 358.228 511.904 356.938 511.904 355.395V345.042H516.828V365.705C516.828 367.949 516.042 369.857 514.471 371.428C512.9 372.999 511.006 373.785 508.79 373.785ZM518.891 369.366L522.131 366.168L522.215 366.21C523.281 367.192 524.544 367.921 526.003 368.398C527.462 368.875 528.92 369.114 530.379 369.114C530.688 369.114 531.081 369.086 531.558 369.03C532.063 369.001 532.554 368.917 533.03 368.777C533.507 368.665 533.914 368.482 534.251 368.23C534.616 368.006 534.798 367.711 534.798 367.346C534.798 366.954 534.63 366.645 534.293 366.42C533.956 366.196 533.535 366.014 533.03 365.873C532.525 365.761 532.02 365.705 531.515 365.705C531.01 365.677 530.604 365.663 530.295 365.663C529.313 365.663 528.317 365.719 527.307 365.831C526.325 365.944 525.371 366.154 524.446 366.463H524.403L521.584 363.685L523.562 357.793C522.748 357.092 522.117 356.307 521.668 355.437C521.219 354.539 520.995 353.557 520.995 352.491C520.995 351.313 521.247 350.261 521.752 349.335C522.257 348.381 522.931 347.581 523.772 346.936C524.614 346.263 525.568 345.758 526.634 345.421C527.7 345.056 528.78 344.874 529.874 344.874C531.81 344.874 533.732 344.888 535.64 344.916C537.575 344.916 539.511 344.916 541.447 344.916H541.531V349.461L537.323 348.83C538.249 349.924 538.712 351.186 538.712 352.617C538.712 353.711 538.459 354.721 537.954 355.647C537.449 356.545 536.79 357.331 535.976 358.004C535.163 358.649 534.237 359.154 533.199 359.519C532.189 359.884 531.165 360.066 530.127 360.066C529.145 360.066 528.247 359.926 527.433 359.645L526.886 361.244C528.009 361.02 529.089 360.908 530.127 360.908C531.137 360.908 532.203 361.006 533.325 361.202C534.447 361.37 535.471 361.707 536.397 362.212C537.323 362.689 538.08 363.334 538.67 364.148C539.287 364.962 539.595 366 539.595 367.262C539.595 368.525 539.315 369.591 538.754 370.46C538.193 371.33 537.463 372.031 536.565 372.565C535.668 373.098 534.658 373.476 533.535 373.701C532.441 373.953 531.347 374.08 530.253 374.08C529.243 374.08 528.205 373.981 527.139 373.785C526.101 373.588 525.091 373.294 524.109 372.901C523.127 372.536 522.187 372.06 521.289 371.47C520.42 370.881 519.634 370.208 518.933 369.45L518.891 369.366ZM526.171 352.617C526.171 353.094 526.283 353.529 526.508 353.922C526.76 354.315 527.055 354.651 527.391 354.932C527.756 355.184 528.149 355.381 528.57 355.521C529.019 355.661 529.453 355.731 529.874 355.731C530.295 355.731 530.73 355.661 531.179 355.521C531.628 355.381 532.02 355.184 532.357 354.932C532.722 354.651 533.016 354.315 533.241 353.922C533.493 353.529 533.62 353.094 533.62 352.617C533.62 352.112 533.507 351.663 533.283 351.271C533.059 350.878 532.764 350.541 532.399 350.261C532.035 349.98 531.628 349.77 531.179 349.629C530.73 349.489 530.295 349.419 529.874 349.419C529.453 349.419 529.019 349.489 528.57 349.629C528.149 349.77 527.756 349.98 527.391 350.261C527.027 350.541 526.732 350.878 526.508 351.271C526.283 351.663 526.171 352.112 526.171 352.617ZM553.384 365.747C550.523 365.747 548.082 364.737 546.062 362.717C544.042 360.697 543.032 358.256 543.032 355.395C543.032 352.533 544.042 350.092 546.062 348.072C548.082 346.052 550.523 345.042 553.384 345.042C555.909 345.042 558.112 345.842 559.991 347.441C561.871 349.012 563.063 351.018 563.568 353.459C563.681 354.104 563.737 354.75 563.737 355.395V355.9C563.709 356.321 563.653 356.741 563.568 357.162H548.25L548.334 357.331C549.288 359.547 550.972 360.711 553.384 360.823C554.731 360.795 555.909 360.361 556.919 359.519H562.895C562.082 361.37 560.819 362.872 559.108 364.022C557.424 365.172 555.517 365.747 553.384 365.747ZM558.476 353.459C557.495 351.243 555.797 350.078 553.384 349.966C550.972 350.078 549.288 351.243 548.334 353.459H558.476ZM575.823 365.747C572.961 365.747 570.521 364.737 568.501 362.717C566.481 360.697 565.471 358.256 565.471 355.395C565.471 352.533 566.481 350.092 568.501 348.072C570.521 346.052 572.961 345.042 575.823 345.042C578.685 345.042 581.126 346.052 583.146 348.072C585.166 350.092 586.175 352.533 586.175 355.395C586.175 358.256 585.166 360.697 583.146 362.717C581.126 364.737 578.685 365.747 575.823 365.747ZM575.823 360.823C577.366 360.767 578.643 360.234 579.653 359.224C580.691 358.214 581.224 356.938 581.252 355.395C581.252 353.88 580.719 352.603 579.653 351.565C578.615 350.499 577.338 349.966 575.823 349.966C574.336 349.966 573.06 350.499 571.994 351.565C570.928 352.603 570.394 353.88 570.394 355.395C570.394 356.882 570.928 358.158 571.994 359.224C573.06 360.29 574.336 360.823 575.823 360.823ZM608.276 365.747H603.352V355.395C603.352 351.776 601.937 349.966 599.102 349.966C597.868 349.966 596.69 350.485 595.568 351.523C594.445 352.533 593.884 353.824 593.884 355.395V365.747H588.961V345.042H593.884V347.82C594.754 346.866 595.736 346.165 596.829 345.716C597.924 345.267 598.907 345.042 599.775 345.042C601.15 345.042 602.329 345.267 603.31 345.716C606.621 347.259 608.276 350.485 608.276 355.395V365.747Z" fill="#D3D3D3" fill-opacity="0.55" stroke="url(#paint16_linear_0_1)" stroke-opacity="0.55" stroke-width="2" mask="url(#path-18-inside-2_0_1)"/>
<rect x="40" y="4" width="95.1797" height="30" rx="3" fill="white"/>
<rect x="40.5" y="4.5" width="94.1797" height="29" rx="2.5" stroke="black" stroke-opacity="0.14902"/>
<path d="M46.9688 22V14H49.6719C50.2995 14 50.8125 14.1133 51.2109 14.3398C51.612 14.5638 51.9089 14.8672 52.1016 15.25C52.2943 15.6328 52.3906 16.0599 52.3906 16.5312C52.3906 17.0026 52.2943 17.431 52.1016 17.8164C51.9115 18.2018 51.6172 18.5091 51.2188 18.7383C50.8203 18.9648 50.3099 19.0781 49.6875 19.0781H47.75V18.2188H49.6563C50.0859 18.2188 50.431 18.1445 50.6914 17.9961C50.9518 17.8477 51.1406 17.6471 51.2578 17.3945C51.3776 17.1393 51.4375 16.8516 51.4375 16.5312C51.4375 16.2109 51.3776 15.9245 51.2578 15.6719C51.1406 15.4193 50.9505 15.2214 50.6875 15.0781C50.4245 14.9323 50.0755 14.8594 49.6406 14.8594H47.9375V22H46.9688ZM55.5918 22.1406C55.2116 22.1406 54.8665 22.069 54.5566 21.9258C54.2467 21.7799 54.0007 21.5703 53.8184 21.2969C53.6361 21.0208 53.5449 20.6875 53.5449 20.2969C53.5449 19.9531 53.6126 19.6745 53.748 19.4609C53.8835 19.2448 54.0645 19.0755 54.291 18.9531C54.5176 18.8307 54.7676 18.7396 55.041 18.6797C55.3171 18.6172 55.5944 18.5677 55.873 18.5313C56.2376 18.4844 56.5332 18.4492 56.7598 18.4258C56.9889 18.3997 57.1556 18.3568 57.2598 18.2969C57.3665 18.237 57.4199 18.1328 57.4199 17.9844V17.9531C57.4199 17.5677 57.3145 17.2682 57.1035 17.0547C56.8952 16.8411 56.5788 16.7344 56.1543 16.7344C55.7142 16.7344 55.3691 16.8307 55.1191 17.0234C54.8691 17.2161 54.6934 17.4219 54.5918 17.6406L53.7168 17.3281C53.873 16.9635 54.0814 16.6797 54.3418 16.4766C54.6048 16.2708 54.8913 16.1276 55.2012 16.0469C55.5137 15.9635 55.821 15.9219 56.123 15.9219C56.3158 15.9219 56.5371 15.9453 56.7871 15.9922C57.0397 16.0365 57.2832 16.1289 57.5176 16.2695C57.7546 16.4102 57.9512 16.6224 58.1074 16.9062C58.2637 17.1901 58.3418 17.5703 58.3418 18.0469V22H57.4199V21.1875H57.373C57.3105 21.3177 57.2064 21.457 57.0605 21.6055C56.9147 21.7539 56.7207 21.8802 56.4785 21.9844C56.2363 22.0885 55.9408 22.1406 55.5918 22.1406ZM55.7324 21.3125C56.097 21.3125 56.4043 21.2409 56.6543 21.0977C56.9069 20.9544 57.097 20.7695 57.2246 20.543C57.3548 20.3164 57.4199 20.0781 57.4199 19.8281V18.9844C57.3809 19.0312 57.2949 19.0742 57.1621 19.1133C57.0319 19.1497 56.8809 19.1823 56.709 19.2109C56.5397 19.237 56.3743 19.2604 56.2129 19.2812C56.054 19.2995 55.9251 19.3151 55.8262 19.3281C55.5866 19.3594 55.3626 19.4102 55.1543 19.4805C54.9486 19.5482 54.7819 19.651 54.6543 19.7891C54.5293 19.9245 54.4668 20.1094 54.4668 20.3437C54.4668 20.6641 54.5853 20.9062 54.8223 21.0703C55.0618 21.2318 55.3652 21.3125 55.7324 21.3125ZM60.4033 24.25C60.2471 24.25 60.1077 24.237 59.9854 24.2109C59.863 24.1875 59.7783 24.1641 59.7314 24.1406L59.9658 23.3281C60.1898 23.3854 60.3877 23.4063 60.5596 23.3906C60.7314 23.375 60.8838 23.2982 61.0166 23.1602C61.152 23.0247 61.2757 22.8047 61.3877 22.5L61.5596 22.0313L59.3408 16H60.3408L61.9971 20.7812H62.0596L63.7158 16H64.7158L62.1689 22.875C62.0544 23.1849 61.9124 23.4414 61.7432 23.6445C61.5739 23.8503 61.3773 24.0026 61.1533 24.1016C60.932 24.2005 60.682 24.25 60.4033 24.25ZM68.1396 24.375C67.6943 24.375 67.3115 24.3177 66.9912 24.2031C66.6709 24.0911 66.404 23.9427 66.1904 23.7578C65.9795 23.5755 65.8115 23.3802 65.6865 23.1719L66.4209 22.6563C66.5042 22.7656 66.6097 22.8906 66.7373 23.0312C66.8649 23.1745 67.0394 23.2982 67.2607 23.4023C67.4847 23.5091 67.7777 23.5625 68.1396 23.5625C68.624 23.5625 69.0238 23.4453 69.3389 23.2109C69.654 22.9766 69.8115 22.6094 69.8115 22.1094V20.8906H69.7334C69.6657 21 69.5693 21.1354 69.4443 21.2969C69.3219 21.4557 69.1449 21.5977 68.9131 21.7227C68.6839 21.8451 68.374 21.9062 67.9834 21.9062C67.499 21.9062 67.0641 21.7917 66.6787 21.5625C66.2959 21.3333 65.9925 21 65.7686 20.5625C65.5472 20.125 65.4365 19.5937 65.4365 18.9687C65.4365 18.3542 65.5446 17.819 65.7607 17.3633C65.9769 16.9049 66.2777 16.5508 66.6631 16.3008C67.0485 16.0482 67.4938 15.9219 67.999 15.9219C68.3896 15.9219 68.6995 15.987 68.9287 16.1172C69.1605 16.2448 69.3376 16.3906 69.46 16.5547C69.585 16.7161 69.6813 16.849 69.749 16.9531H69.8428V16H70.7334V22.1719C70.7334 22.6875 70.6162 23.1068 70.3818 23.4297C70.1501 23.7552 69.8376 23.9935 69.4443 24.1445C69.0537 24.2982 68.6188 24.375 68.1396 24.375ZM68.1084 21.0781C68.4782 21.0781 68.7907 20.9935 69.0459 20.8242C69.3011 20.6549 69.4951 20.4115 69.6279 20.0938C69.7607 19.776 69.8271 19.3958 69.8271 18.9531C69.8271 18.5208 69.762 18.1393 69.6318 17.8086C69.5016 17.4779 69.3089 17.2187 69.0537 17.0312C68.7985 16.8437 68.4834 16.75 68.1084 16.75C67.7178 16.75 67.3923 16.849 67.1318 17.0469C66.874 17.2448 66.68 17.5104 66.5498 17.8438C66.4222 18.1771 66.3584 18.5469 66.3584 18.9531C66.3584 19.3698 66.4235 19.7383 66.5537 20.0586C66.6865 20.3763 66.8818 20.6263 67.1396 20.8086C67.4001 20.9883 67.723 21.0781 68.1084 21.0781ZM74.9365 22.125C74.3584 22.125 73.8597 21.9974 73.4404 21.7422C73.0238 21.4844 72.7021 21.125 72.4756 20.6641C72.2516 20.2005 72.1396 19.6615 72.1396 19.0469C72.1396 18.4323 72.2516 17.8906 72.4756 17.4219C72.7021 16.9505 73.0173 16.5833 73.4209 16.3203C73.8271 16.0547 74.3011 15.9219 74.8428 15.9219C75.1553 15.9219 75.4639 15.974 75.7686 16.0781C76.0732 16.1823 76.3506 16.3516 76.6006 16.5859C76.8506 16.8177 77.0498 17.125 77.1982 17.5078C77.3467 17.8906 77.4209 18.362 77.4209 18.9219V19.3125H72.7959V18.5156H76.4834C76.4834 18.1771 76.4157 17.875 76.2803 17.6094C76.1475 17.3437 75.9574 17.1341 75.71 16.9805C75.4652 16.8268 75.1761 16.75 74.8428 16.75C74.4756 16.75 74.1579 16.8411 73.8896 17.0234C73.624 17.2031 73.4196 17.4375 73.2764 17.7266C73.1331 18.0156 73.0615 18.3255 73.0615 18.6562V19.1875C73.0615 19.6406 73.1396 20.0247 73.2959 20.3398C73.4548 20.6523 73.6748 20.8906 73.9561 21.0547C74.2373 21.2161 74.5641 21.2969 74.9365 21.2969C75.1787 21.2969 75.3975 21.263 75.5928 21.1953C75.7907 21.125 75.9613 21.0208 76.1045 20.8828C76.2477 20.7422 76.3584 20.5677 76.4365 20.3594L77.3271 20.6094C77.2334 20.9115 77.0758 21.1771 76.8545 21.4062C76.6331 21.6328 76.3597 21.8099 76.0342 21.9375C75.7087 22.0625 75.3428 22.125 74.9365 22.125ZM81.2607 22.125C80.7191 22.125 80.2438 21.9961 79.835 21.7383C79.4287 21.4805 79.111 21.1198 78.8818 20.6562C78.6553 20.1927 78.542 19.651 78.542 19.0312C78.542 18.4062 78.6553 17.8607 78.8818 17.3945C79.111 16.9284 79.4287 16.5664 79.835 16.3086C80.2438 16.0508 80.7191 15.9219 81.2607 15.9219C81.8024 15.9219 82.2764 16.0508 82.6826 16.3086C83.0915 16.5664 83.4092 16.9284 83.6357 17.3945C83.8649 17.8607 83.9795 18.4062 83.9795 19.0312C83.9795 19.651 83.8649 20.1927 83.6357 20.6562C83.4092 21.1198 83.0915 21.4805 82.6826 21.7383C82.2764 21.9961 81.8024 22.125 81.2607 22.125ZM81.2607 21.2969C81.6722 21.2969 82.0107 21.1914 82.2764 20.9805C82.542 20.7695 82.7386 20.4922 82.8662 20.1484C82.9938 19.8047 83.0576 19.4323 83.0576 19.0312C83.0576 18.6302 82.9938 18.2565 82.8662 17.9102C82.7386 17.5638 82.542 17.2839 82.2764 17.0703C82.0107 16.8568 81.6722 16.75 81.2607 16.75C80.8493 16.75 80.5107 16.8568 80.2451 17.0703C79.9795 17.2839 79.7829 17.5638 79.6553 17.9102C79.5277 18.2565 79.4639 18.6302 79.4639 19.0312C79.4639 19.4323 79.5277 19.8047 79.6553 20.1484C79.7829 20.4922 79.9795 20.7695 80.2451 20.9805C80.5107 21.1914 80.8493 21.2969 81.2607 21.2969ZM86.3086 18.3906V22H85.3867V16H86.2773V16.9375H86.3555C86.4961 16.6328 86.7096 16.388 86.9961 16.2031C87.2826 16.0156 87.6523 15.9219 88.1055 15.9219C88.5117 15.9219 88.8672 16.0052 89.1719 16.1719C89.4766 16.3359 89.7135 16.5859 89.8828 16.9219C90.0521 17.2552 90.1367 17.6771 90.1367 18.1875V22H89.2148V18.25C89.2148 17.7786 89.0924 17.4115 88.8477 17.1484C88.6029 16.8828 88.2669 16.75 87.8398 16.75C87.5456 16.75 87.2826 16.8138 87.0508 16.9414C86.8216 17.069 86.6406 17.2552 86.5078 17.5C86.375 17.7448 86.3086 18.0417 86.3086 18.3906ZM101.478 16.5H100.509C100.451 16.2214 100.351 15.9766 100.208 15.7656C100.067 15.5547 99.8955 15.3776 99.6924 15.2344C99.4919 15.0885 99.2692 14.9792 99.0244 14.9062C98.7796 14.8333 98.5244 14.7969 98.2588 14.7969C97.7744 14.7969 97.3356 14.9193 96.9424 15.1641C96.5518 15.4089 96.2406 15.7695 96.0088 16.2461C95.7796 16.7227 95.665 17.3073 95.665 18C95.665 18.6927 95.7796 19.2773 96.0088 19.7539C96.2406 20.2305 96.5518 20.5911 96.9424 20.8359C97.3356 21.0807 97.7744 21.2031 98.2588 21.2031C98.5244 21.2031 98.7796 21.1667 99.0244 21.0937C99.2692 21.0208 99.4919 20.9128 99.6924 20.7695C99.8955 20.6237 100.067 20.4453 100.208 20.2344C100.351 20.0208 100.451 19.776 100.509 19.5H101.478C101.405 19.9089 101.272 20.2747 101.079 20.5977C100.886 20.9206 100.647 21.1953 100.36 21.4219C100.074 21.6458 99.7523 21.8164 99.3955 21.9336C99.0413 22.0508 98.6624 22.1094 98.2588 22.1094C97.5765 22.1094 96.9697 21.9427 96.4385 21.6094C95.9072 21.276 95.4893 20.8021 95.1846 20.1875C94.8799 19.5729 94.7275 18.8437 94.7275 18C94.7275 17.1562 94.8799 16.4271 95.1846 15.8125C95.4893 15.1979 95.9072 14.724 96.4385 14.3906C96.9697 14.0573 97.5765 13.8906 98.2588 13.8906C98.6624 13.8906 99.0413 13.9492 99.3955 14.0664C99.7523 14.1836 100.074 14.3555 100.36 14.582C100.647 14.806 100.886 15.0794 101.079 15.4023C101.272 15.7227 101.405 16.0885 101.478 16.5ZM104.684 22.1406C104.303 22.1406 103.958 22.069 103.648 21.9258C103.339 21.7799 103.092 21.5703 102.91 21.2969C102.728 21.0208 102.637 20.6875 102.637 20.2969C102.637 19.9531 102.704 19.6745 102.84 19.4609C102.975 19.2448 103.156 19.0755 103.383 18.9531C103.609 18.8307 103.859 18.7396 104.133 18.6797C104.409 18.6172 104.686 18.5677 104.965 18.5313C105.329 18.4844 105.625 18.4492 105.852 18.4258C106.081 18.3997 106.247 18.3568 106.352 18.2969C106.458 18.237 106.512 18.1328 106.512 17.9844V17.9531C106.512 17.5677 106.406 17.2682 106.195 17.0547C105.987 16.8411 105.671 16.7344 105.246 16.7344C104.806 16.7344 104.461 16.8307 104.211 17.0234C103.961 17.2161 103.785 17.4219 103.684 17.6406L102.809 17.3281C102.965 16.9635 103.173 16.6797 103.434 16.4766C103.697 16.2708 103.983 16.1276 104.293 16.0469C104.605 15.9635 104.913 15.9219 105.215 15.9219C105.408 15.9219 105.629 15.9453 105.879 15.9922C106.132 16.0365 106.375 16.1289 106.609 16.2695C106.846 16.4102 107.043 16.6224 107.199 16.9062C107.355 17.1901 107.434 17.5703 107.434 18.0469V22H106.512V21.1875H106.465C106.402 21.3177 106.298 21.457 106.152 21.6055C106.007 21.7539 105.813 21.8802 105.57 21.9844C105.328 22.0885 105.033 22.1406 104.684 22.1406ZM104.824 21.3125C105.189 21.3125 105.496 21.2409 105.746 21.0977C105.999 20.9544 106.189 20.7695 106.316 20.543C106.447 20.3164 106.512 20.0781 106.512 19.8281V18.9844C106.473 19.0312 106.387 19.0742 106.254 19.1133C106.124 19.1497 105.973 19.1823 105.801 19.2109C105.632 19.237 105.466 19.2604 105.305 19.2812C105.146 19.2995 105.017 19.3151 104.918 19.3281C104.678 19.3594 104.454 19.4102 104.246 19.4805C104.04 19.5482 103.874 19.651 103.746 19.7891C103.621 19.9245 103.559 20.1094 103.559 20.3437C103.559 20.6641 103.677 20.9062 103.914 21.0703C104.154 21.2318 104.457 21.3125 104.824 21.3125ZM109.116 22V16H110.007V16.9062H110.069C110.179 16.6094 110.377 16.3685 110.663 16.1836C110.95 15.9987 111.272 15.9062 111.632 15.9062C111.7 15.9062 111.784 15.9076 111.886 15.9102C111.987 15.9128 112.064 15.9167 112.116 15.9219V16.8594C112.085 16.8516 112.013 16.8398 111.901 16.8242C111.792 16.806 111.676 16.7969 111.554 16.7969C111.262 16.7969 111.002 16.8581 110.772 16.9805C110.546 17.1003 110.366 17.2669 110.233 17.4805C110.103 17.6914 110.038 17.9323 110.038 18.2031V22H109.116ZM115.292 22.125C114.792 22.125 114.351 21.9987 113.968 21.7461C113.585 21.4909 113.285 21.1315 113.069 20.668C112.853 20.2018 112.745 19.651 112.745 19.0156C112.745 18.3854 112.853 17.8385 113.069 17.375C113.285 16.9115 113.586 16.5534 113.972 16.3008C114.357 16.0482 114.802 15.9219 115.308 15.9219C115.698 15.9219 116.007 15.987 116.233 16.1172C116.463 16.2448 116.637 16.3906 116.757 16.5547C116.879 16.7161 116.974 16.849 117.042 16.9531H117.12V14H118.042V22H117.151V21.0781H117.042C116.974 21.1875 116.878 21.3255 116.753 21.4922C116.628 21.6562 116.45 21.8034 116.218 21.9336C115.986 22.0612 115.677 22.125 115.292 22.125ZM115.417 21.2969C115.787 21.2969 116.099 21.2005 116.354 21.0078C116.61 20.8125 116.804 20.543 116.937 20.1992C117.069 19.8529 117.136 19.4531 117.136 19C117.136 18.5521 117.071 18.1602 116.94 17.8242C116.81 17.4857 116.618 17.2227 116.362 17.0352C116.107 16.8451 115.792 16.75 115.417 16.75C115.026 16.75 114.701 16.8503 114.44 17.0508C114.183 17.2487 113.989 17.5182 113.858 17.8594C113.731 18.1979 113.667 18.5781 113.667 19C113.667 19.4271 113.732 19.8151 113.862 20.1641C113.995 20.5104 114.19 20.7865 114.448 20.9922C114.709 21.1953 115.032 21.2969 115.417 21.2969ZM123.546 14L125.608 17.3281H125.671L127.733 14H128.874L126.358 18L128.874 22H127.733L125.671 18.7344H125.608L123.546 22H122.405L124.983 18L122.405 14H123.546Z" fill="black"/>
<defs>
<filter id="filter0_d_0_1" x="403.838" y="608.968" width="222.106" height="20.4717" filterUnits="userSpaceOnUse" color-interpolation-filters="sRGB">
<feFlood flood-opacity="0" result="BackgroundImageFix"/>
<feColorMatrix in="SourceAlpha" type="matrix" values="0 0 0 0 0 0 0 0 0 0 0 0 0 0 0 0 0 0 127 0" result="hardAlpha"/>
<feOffset dy="2"/>
<feGaussianBlur stdDeviation="0.5"/>
<feComposite in2="hardAlpha" operator="out"/>
<feColorMatrix type="matrix" values="0 0 0 0 0 0 0 0 0 0 0 0 0 0 0 0 0 0 0.25 0"/>
<feBlend mode="normal" in2="BackgroundImageFix" result="effect1_dropShadow_0_1"/>
<feBlend mode="normal" in="SourceGraphic" in2="effect1_dropShadow_0_1" result="shape"/>
</filter>
<radialGradient id="paint0_radial_0_1" cx="0" cy="0" r="1" gradientUnits="userSpaceOnUse" gradientTransform="translate(360 484.759) rotate(90) scale(182.759 300)">
<stop stop-color="#023E62"/>
<stop offset="1" stop-color="#10253F"/>
</radialGradient>
<linearGradient id="paint1_linear_0_1" x1="357.281" y1="400.38" x2="357.281" y2="446.692" gradientUnits="userSpaceOnUse">
<stop stop-color="#B0B0B0"/>
<stop offset="0.48" stop-color="white"/>
<stop offset="1" stop-color="#4A4A4A"/>
</linearGradient>
<linearGradient id="paint2_linear_0_1" x1="383.658" y1="400.38" x2="383.658" y2="479.013" gradientUnits="userSpaceOnUse">
<stop stop-color="#B0B0B0"/>
<stop offset="0.48" stop-color="white"/>
<stop offset="1" stop-color="#4A4A4A"/>
</linearGradient>
<linearGradient id="paint3_linear_0_1" x1="325.408" y1="400.38" x2="325.408" y2="446.684" gradientUnits="userSpaceOnUse">
<stop stop-color="#B0B0B0"/>
<stop offset="0.48" stop-color="white"/>
<stop offset="1" stop-color="#4A4A4A"/>
</linearGradient>
<linearGradient id="paint4_linear_0_1" x1="299.027" y1="400.38" x2="299.027" y2="479.005" gradientUnits="userSpaceOnUse">
<stop stop-color="#B0B0B0"/>
<stop offset="0.48" stop-color="white"/>
<stop offset="1" stop-color="#4A4A4A"/>
</linearGradient>
<linearGradient id="paint5_linear_0_1" x1="357.281" y1="523.319" x2="357.281" y2="569.631" gradientUnits="userSpaceOnUse">
<stop stop-color="#B0B0B0"/>
<stop offset="0.48" stop-color="white"/>
<stop offset="1" stop-color="#4A4A4A"/>
</linearGradient>
<linearGradient id="paint6_linear_0_1" x1="383.654" y1="491.008" x2="383.654" y2="569.633" gradientUnits="userSpaceOnUse">
<stop stop-color="#B0B0B0"/>
<stop offset="0.48" stop-color="white"/>
<stop offset="1" stop-color="#4A4A4A"/>
</linearGradient>
<linearGradient id="paint7_linear_0_1" x1="325.408" y1="523.335" x2="325.408" y2="569.639" gradientUnits="userSpaceOnUse">
<stop stop-color="#B0B0B0"/>
<stop offset="0.48" stop-color="white"/>
<stop offset="1" stop-color="#4A4A4A"/>
</linearGradient>
<linearGradient id="paint8_linear_0_1" x1="299.031" y1="491.008" x2="299.031" y2="569.633" gradientUnits="userSpaceOnUse">
<stop stop-color="#B0B0B0"/>
<stop offset="0.48" stop-color="white"/>
<stop offset="1" stop-color="#4A4A4A"/>
</linearGradient>
<radialGradient id="paint9_angular_0_1" cx="0" cy="0" r="1" gradientUnits="userSpaceOnUse" gradientTransform="translate(177.214 454.444) rotate(90) scale(28.3065 12.0968)">
<stop stop-color="#C6C6C6"/>
<stop offset="0.575" stop-color="white"/>
<stop offset="0.94" stop-color="#424242"/>
</radialGradient>
<linearGradient id="paint10_linear_0_1" x1="150.434" y1="426.138" x2="150.434" y2="485.124" gradientUnits="userSpaceOnUse">
<stop stop-color="#B0B0B0"/>
<stop offset="0.49" stop-color="white"/>
<stop offset="0.98" stop-color="#090909" stop-opacity="0.99"/>
</linearGradient>
<radialGradient id="paint11_angular_0_1" cx="0" cy="0" r="1" gradientUnits="userSpaceOnUse" gradientTransform="translate(150.434 455.631) rotate(90) scale(29.4931 38.7097)">
<stop stop-color="#C6C6C6"/>
<stop offset="0.575" stop-color="white"/>
<stop offset="0.94" stop-color="#424242"/>
</radialGradient>
<radialGradient id="paint12_angular_0_1" cx="0" cy="0" r="1" gradientUnits="userSpaceOnUse" gradientTransform="translate(124.426 465.202) rotate(90) scale(19.8387 12.7016)">
<stop stop-color="#C6C6C6"/>
<stop offset="0.575" stop-color="white"/>
<stop offset="0.94" stop-color="#424242"/>
</radialGradient>
<linearGradient id="paint13_linear_0_1" x1="456.61" y1="327.862" x2="456.61" y2="369.358" gradientUnits="userSpaceOnUse">
<stop stop-color="#666666"/>
<stop offset="0.51" stop-color="white"/>
<stop offset="1" stop-color="#CCCCCC"/>
</linearGradient>
<linearGradient id="paint14_linear_0_1" x1="456.61" y1="327.862" x2="456.61" y2="369.358" gradientUnits="userSpaceOnUse">
<stop offset="0.155" stop-color="#EDEDED"/>
<stop offset="0.565" stop-color="#505050" stop-opacity="0.25"/>
<stop offset="0.9" stop-color="white"/>
</linearGradient>
<linearGradient id="paint15_linear_0_1" x1="456.61" y1="327.862" x2="456.61" y2="369.358" gradientUnits="userSpaceOnUse">
<stop stop-color="#666666"/>
<stop offset="0.51" stop-color="white"/>
<stop offset="1" stop-color="#CCCCCC"/>
</linearGradient>
<linearGradient id="paint16_linear_0_1" x1="540.846" y1="344.874" x2="540.846" y2="374.08" gradientUnits="userSpaceOnUse">
<stop stop-color="#666666"/>
<stop offset="0.51" stop-color="white"/>
<stop offset="1" stop-color="#CCCCCC"/>
</linearGradient>
<clipPath id="clip0_0_1">
<rect x="60" y="302" width="600" height="365.517" rx="16" fill="white"/>
</clipPath>
</defs>
</svg>
