<svg width="398" height="252" viewBox="0 0 398 252" fill="none" xmlns="http://www.w3.org/2000/svg">
<g style="mix-blend-mode:plus-darker">
<g clip-path="url(#clip0_109_3578)">
<rect x="20" y="20" width="348" height="212" rx="16" fill="url(#paint0_radial_109_3578)"/>
<g filter="url(#filter0_d_109_3578)">
<path d="M191.686 199.384V198.296H193.08L194.27 198.483L194.355 198.279L193.386 197.565L192.4 196.579L193.165 195.814L194.151 196.783L194.865 197.769L195.069 197.684L194.882 196.477V195.1H195.97V196.477L195.783 197.684L195.987 197.769L196.701 196.783L197.687 195.814L198.452 196.579L197.483 197.565L196.497 198.279L196.582 198.483L197.772 198.296H199.166V199.384H197.772L196.582 199.197L196.497 199.401L197.483 200.115L198.452 201.101L197.687 201.866L196.701 200.88L195.987 199.894L195.783 199.979L195.97 201.186V202.563H194.882V201.186L195.069 199.979L194.865 199.894L194.151 200.88L193.165 201.866L192.4 201.101L193.386 200.115L194.355 199.401L194.27 199.197L193.08 199.384H191.686ZM200.02 199.384V198.296H201.414L202.604 198.483L202.689 198.279L201.72 197.565L200.734 196.579L201.499 195.814L202.485 196.783L203.199 197.769L203.403 197.684L203.216 196.477V195.1H204.304V196.477L204.117 197.684L204.321 197.769L205.035 196.783L206.021 195.814L206.786 196.579L205.817 197.565L204.831 198.279L204.916 198.483L206.106 198.296H207.5V199.384H206.106L204.916 199.197L204.831 199.401L205.817 200.115L206.786 201.101L206.021 201.866L205.035 200.88L204.321 199.894L204.117 199.979L204.304 201.186V202.563H203.216V201.186L203.403 199.979L203.199 199.894L202.485 200.88L201.499 201.866L200.734 201.101L201.72 200.115L202.689 199.401L202.604 199.197L201.414 199.384H200.02ZM208.355 199.384V198.296H209.749L210.939 198.483L211.024 198.279L210.055 197.565L209.069 196.579L209.834 195.814L210.82 196.783L211.534 197.769L211.738 197.684L211.551 196.477V195.1H212.639V196.477L212.452 197.684L212.656 197.769L213.37 196.783L214.356 195.814L215.121 196.579L214.152 197.565L213.166 198.279L213.251 198.483L214.441 198.296H215.835V199.384H214.441L213.251 199.197L213.166 199.401L214.152 200.115L215.121 201.101L214.356 201.866L213.37 200.88L212.656 199.894L212.452 199.979L212.639 201.186V202.563H211.551V201.186L211.738 199.979L211.534 199.894L210.82 200.88L209.834 201.866L209.069 201.101L210.055 200.115L211.024 199.401L210.939 199.197L209.749 199.384H208.355ZM216.69 199.384V198.296H218.084L219.274 198.483L219.359 198.279L218.39 197.565L217.404 196.579L218.169 195.814L219.155 196.783L219.869 197.769L220.073 197.684L219.886 196.477V195.1H220.974V196.477L220.787 197.684L220.991 197.769L221.705 196.783L222.691 195.814L223.456 196.579L222.487 197.565L221.501 198.279L221.586 198.483L222.776 198.296H224.17V199.384H222.776L221.586 199.197L221.501 199.401L222.487 200.115L223.456 201.101L222.691 201.866L221.705 200.88L220.991 199.894L220.787 199.979L220.974 201.186V202.563H219.886V201.186L220.073 199.979L219.869 199.894L219.155 200.88L218.169 201.866L217.404 201.101L218.39 200.115L219.359 199.401L219.274 199.197L218.084 199.384H216.69ZM225.517 203.447V201.849H230.549V203.447H225.517ZM231.881 199.384V198.296H233.275L234.465 198.483L234.55 198.279L233.581 197.565L232.595 196.579L233.36 195.814L234.346 196.783L235.06 197.769L235.264 197.684L235.077 196.477V195.1H236.165V196.477L235.978 197.684L236.182 197.769L236.896 196.783L237.882 195.814L238.647 196.579L237.678 197.565L236.692 198.279L236.777 198.483L237.967 198.296H239.361V199.384H237.967L236.777 199.197L236.692 199.401L237.678 200.115L238.647 201.101L237.882 201.866L236.896 200.88L236.182 199.894L235.978 199.979L236.165 201.186V202.563H235.077V201.186L235.264 199.979L235.06 199.894L234.346 200.88L233.36 201.866L232.595 201.101L233.581 200.115L234.55 199.401L234.465 199.197L233.275 199.384H231.881ZM240.216 199.384V198.296H241.61L242.8 198.483L242.885 198.279L241.916 197.565L240.93 196.579L241.695 195.814L242.681 196.783L243.395 197.769L243.599 197.684L243.412 196.477V195.1H244.5V196.477L244.313 197.684L244.517 197.769L245.231 196.783L246.217 195.814L246.982 196.579L246.013 197.565L245.027 198.279L245.112 198.483L246.302 198.296H247.696V199.384H246.302L245.112 199.197L245.027 199.401L246.013 200.115L246.982 201.101L246.217 201.866L245.231 200.88L244.517 199.894L244.313 199.979L244.5 201.186V202.563H243.412V201.186L243.599 199.979L243.395 199.894L242.681 200.88L241.695 201.866L240.93 201.101L241.916 200.115L242.885 199.401L242.8 199.197L241.61 199.384H240.216ZM248.551 199.384V198.296H249.945L251.135 198.483L251.22 198.279L250.251 197.565L249.265 196.579L250.03 195.814L251.016 196.783L251.73 197.769L251.934 197.684L251.747 196.477V195.1H252.835V196.477L252.648 197.684L252.852 197.769L253.566 196.783L254.552 195.814L255.317 196.579L254.348 197.565L253.362 198.279L253.447 198.483L254.637 198.296H256.031V199.384H254.637L253.447 199.197L253.362 199.401L254.348 200.115L255.317 201.101L254.552 201.866L253.566 200.88L252.852 199.894L252.648 199.979L252.835 201.186V202.563H251.747V201.186L251.934 199.979L251.73 199.894L251.016 200.88L250.03 201.866L249.265 201.101L250.251 200.115L251.22 199.401L251.135 199.197L249.945 199.384H248.551ZM256.885 199.384V198.296H258.279L259.469 198.483L259.554 198.279L258.585 197.565L257.599 196.579L258.364 195.814L259.35 196.783L260.064 197.769L260.268 197.684L260.081 196.477V195.1H261.169V196.477L260.982 197.684L261.186 197.769L261.9 196.783L262.886 195.814L263.651 196.579L262.682 197.565L261.696 198.279L261.781 198.483L262.971 198.296H264.365V199.384H262.971L261.781 199.197L261.696 199.401L262.682 200.115L263.651 201.101L262.886 201.866L261.9 200.88L261.186 199.894L260.982 199.979L261.169 201.186V202.563H260.081V201.186L260.268 199.979L260.064 199.894L259.35 200.88L258.364 201.866L257.599 201.101L258.585 200.115L259.554 199.401L259.469 199.197L258.279 199.384H256.885ZM265.713 203.447V201.849H270.745V203.447H265.713ZM272.077 199.384V198.296H273.471L274.661 198.483L274.746 198.279L273.777 197.565L272.791 196.579L273.556 195.814L274.542 196.783L275.256 197.769L275.46 197.684L275.273 196.477V195.1H276.361V196.477L276.174 197.684L276.378 197.769L277.092 196.783L278.078 195.814L278.843 196.579L277.874 197.565L276.888 198.279L276.973 198.483L278.163 198.296H279.557V199.384H278.163L276.973 199.197L276.888 199.401L277.874 200.115L278.843 201.101L278.078 201.866L277.092 200.88L276.378 199.894L276.174 199.979L276.361 201.186V202.563H275.273V201.186L275.46 199.979L275.256 199.894L274.542 200.88L273.556 201.866L272.791 201.101L273.777 200.115L274.746 199.401L274.661 199.197L273.471 199.384H272.077ZM280.412 199.384V198.296H281.806L282.996 198.483L283.081 198.279L282.112 197.565L281.126 196.579L281.891 195.814L282.877 196.783L283.591 197.769L283.795 197.684L283.608 196.477V195.1H284.696V196.477L284.509 197.684L284.713 197.769L285.427 196.783L286.413 195.814L287.178 196.579L286.209 197.565L285.223 198.279L285.308 198.483L286.498 198.296H287.892V199.384H286.498L285.308 199.197L285.223 199.401L286.209 200.115L287.178 201.101L286.413 201.866L285.427 200.88L284.713 199.894L284.509 199.979L284.696 201.186V202.563H283.608V201.186L283.795 199.979L283.591 199.894L282.877 200.88L281.891 201.866L281.126 201.101L282.112 200.115L283.081 199.401L282.996 199.197L281.806 199.384H280.412ZM288.746 199.384V198.296H290.14L291.33 198.483L291.415 198.279L290.446 197.565L289.46 196.579L290.225 195.814L291.211 196.783L291.925 197.769L292.129 197.684L291.942 196.477V195.1H293.03V196.477L292.843 197.684L293.047 197.769L293.761 196.783L294.747 195.814L295.512 196.579L294.543 197.565L293.557 198.279L293.642 198.483L294.832 198.296H296.226V199.384H294.832L293.642 199.197L293.557 199.401L294.543 200.115L295.512 201.101L294.747 201.866L293.761 200.88L293.047 199.894L292.843 199.979L293.03 201.186V202.563H291.942V201.186L292.129 199.979L291.925 199.894L291.211 200.88L290.225 201.866L289.46 201.101L290.446 200.115L291.415 199.401L291.33 199.197L290.14 199.384H288.746ZM297.081 199.384V198.296H298.475L299.665 198.483L299.75 198.279L298.781 197.565L297.795 196.579L298.56 195.814L299.546 196.783L300.26 197.769L300.464 197.684L300.277 196.477V195.1H301.365V196.477L301.178 197.684L301.382 197.769L302.096 196.783L303.082 195.814L303.847 196.579L302.878 197.565L301.892 198.279L301.977 198.483L303.167 198.296H304.561V199.384H303.167L301.977 199.197L301.892 199.401L302.878 200.115L303.847 201.101L303.082 201.866L302.096 200.88L301.382 199.894L301.178 199.979L301.365 201.186V202.563H300.277V201.186L300.464 199.979L300.26 199.894L299.546 200.88L298.56 201.866L297.795 201.101L298.781 200.115L299.75 199.401L299.665 199.197L298.475 199.384H297.081ZM305.909 203.447V201.849H310.941V203.447H305.909ZM315.877 207V196.358H315.605L313.65 200.37H311.763L314.398 195.1H317.662V207H315.877ZM319.031 207V205.657C319.031 204.83 319.173 204.15 319.456 203.617C319.74 203.084 320.142 202.654 320.663 202.325C321.196 201.985 321.836 201.702 322.584 201.475L323.621 201.152C324.086 201.005 324.483 200.823 324.811 200.608C325.151 200.393 325.412 200.126 325.593 199.809C325.775 199.48 325.865 199.101 325.865 198.67V198.602C325.865 197.933 325.639 197.412 325.185 197.038C324.732 196.653 324.137 196.46 323.4 196.46C322.641 196.46 322.023 196.664 321.547 197.072C321.083 197.48 320.85 198.081 320.85 198.874V199.146H319.082V198.891C319.082 198.03 319.269 197.304 319.643 196.715C320.017 196.114 320.533 195.655 321.19 195.338C321.848 195.021 322.584 194.862 323.4 194.862C324.216 194.862 324.942 195.015 325.576 195.321C326.222 195.627 326.727 196.058 327.089 196.613C327.463 197.168 327.65 197.82 327.65 198.568V198.721C327.65 199.492 327.497 200.132 327.191 200.642C326.885 201.152 326.46 201.571 325.916 201.9C325.384 202.229 324.766 202.506 324.063 202.733L323.06 203.039C322.528 203.198 322.097 203.373 321.768 203.566C321.451 203.747 321.213 203.968 321.054 204.229C320.907 204.49 320.833 204.824 320.833 205.232V205.402H327.548V207H319.031ZM332.83 207.238C331.958 207.238 331.181 207.079 330.501 206.762C329.821 206.445 329.289 205.986 328.903 205.385C328.529 204.784 328.342 204.07 328.342 203.243V202.937H330.127V203.209C330.127 203.957 330.371 204.552 330.858 204.994C331.357 205.425 332.014 205.64 332.83 205.64C333.646 205.64 334.281 205.436 334.734 205.028C335.188 204.62 335.414 204.104 335.414 203.481V203.328C335.414 202.886 335.307 202.529 335.091 202.257C334.876 201.985 334.587 201.787 334.224 201.662C333.862 201.526 333.454 201.458 333 201.458H330.841V199.401L335.023 196.936V196.698H328.631V195.1H336.961V197.514L332.966 199.894V200.132H333.697C334.298 200.132 334.865 200.245 335.397 200.472C335.93 200.699 336.361 201.044 336.689 201.509C337.029 201.974 337.199 202.563 337.199 203.277V203.481C337.199 204.24 337.018 204.903 336.655 205.47C336.293 206.025 335.783 206.462 335.125 206.779C334.468 207.085 333.703 207.238 332.83 207.238ZM343.803 207V204.569H337.785V202.495L342.341 195.1H345.588V202.988H347.594V204.569H345.588V207H343.803ZM339.519 202.988H343.803V196.222H343.531L339.519 202.75V202.988Z" fill="white"/>
</g>
<mask id="mask0_109_3578" style="mask-type:luminance" maskUnits="userSpaceOnUse" x="108" y="60" width="99" height="99">
<path d="M207 60H108V158.605H207V60Z" fill="white"/>
</mask>
<g mask="url(#mask0_109_3578)">
<path d="M175.988 60.2207L157.502 87.0772L157.498 87.0816" stroke="url(#paint1_linear_109_3578)" stroke-width="0.5" stroke-miterlimit="10"/>
<path d="M157.498 87.0816L161.326 92.6353L183.64 60.2207H191.291L165.149 98.1933L165.162 98.215C166.196 99.7115 167.534 100.994 169.099 101.984L169.858 102.464L198.934 60.2207H206.586L175.195 105.828" stroke="url(#paint2_linear_109_3578)" stroke-width="0.5" stroke-miterlimit="10"/>
<path d="M157.502 87.0772L139.012 60.2207" stroke="url(#paint3_linear_109_3578)" stroke-width="0.5" stroke-miterlimit="10"/>
<path d="M139.81 105.824L108.414 60.2207H116.061L145.133 102.46L145.913 101.967C147.474 100.981 148.813 99.7027 149.842 98.2064L149.851 98.1888L123.709 60.2207H131.36L153.674 92.6353L157.498 87.0815" stroke="url(#paint4_linear_109_3578)" stroke-width="0.5" stroke-miterlimit="10"/>
<path d="M175.988 158.386L157.502 131.53L157.498 131.525" stroke="url(#paint5_linear_109_3578)" stroke-width="0.5" stroke-miterlimit="10"/>
<path d="M175.19 112.785L206.581 158.388H198.93L169.854 116.153L169.086 116.637C167.517 117.628 166.178 118.91 165.145 120.411L191.287 158.388H183.635L161.321 125.973L157.498 131.532" stroke="url(#paint6_linear_109_3578)" stroke-width="0.5" stroke-miterlimit="10"/>
<path d="M157.502 131.534L139.012 158.391" stroke="url(#paint7_linear_109_3578)" stroke-width="0.5" stroke-miterlimit="10"/>
<path d="M139.81 112.785L108.414 158.388H116.061L145.137 116.153L145.913 116.642C147.483 117.632 148.822 118.915 149.855 120.415L123.713 158.388H131.364L153.678 125.973L157.502 131.527" stroke="url(#paint8_linear_109_3578)" stroke-width="0.5" stroke-miterlimit="10"/>
</g>
</g>
</g>
<path d="M95 101.823H80.9677M80.9677 101.823V110.067M80.9677 101.823V92M80.9677 124.835V118.31M80.9677 118.31V110.067M80.9677 118.31H95M80.9677 110.067H95" stroke="url(#paint9_angular_109_3578)" stroke-width="1.4"/>
<rect x="50.7" y="92.7" width="43.5032" height="32.812" rx="6.55" fill="url(#paint10_linear_109_3578)" fill-opacity="0.9" stroke="url(#paint11_angular_109_3578)" stroke-width="1.4"/>
<path d="M50 103.151H61.1089C63.1109 103.151 64.7339 104.774 64.7339 106.776V111.395M64.7339 126.164V119.639M64.7339 119.639V111.395M64.7339 119.639H50M64.7339 111.395H50" stroke="url(#paint12_angular_109_3578)" stroke-width="1.4"/>
<mask id="mask1_109_3578" style="mask-type:luminance" maskUnits="userSpaceOnUse" x="238" y="35" width="25" height="25">
<mask id="path-16-inside-1_109_3578" fill="white">
<path d="M254.941 36.792C255.338 37.1481 255.709 37.535 256.074 37.9356C256.123 37.9852 256.172 38.0347 256.222 38.0858C256.963 38.8723 257.623 40.0657 257.947 41.175C257.947 41.2328 257.947 41.2906 257.947 41.3501C258.023 41.3791 258.023 41.3791 258.101 41.4086C258.387 41.5595 258.613 41.7664 258.86 41.9903C258.967 42.0854 259.073 42.1804 259.18 42.2752C259.236 42.3245 259.291 42.3739 259.348 42.4247C259.635 42.6769 259.926 42.9219 260.218 43.1668C260.303 43.2384 260.303 43.2384 260.39 43.3115C260.499 43.4036 260.609 43.4956 260.718 43.5876C260.926 43.7624 261.134 43.9377 261.342 44.1134C261.402 44.1641 261.462 44.2148 261.523 44.2669C261.708 44.4278 261.888 44.5952 262.067 44.7646C261.966 45.0434 261.864 45.1871 261.653 45.361C261.572 45.4283 261.572 45.4283 261.49 45.4969C261.431 45.5441 261.373 45.5914 261.314 45.6401C261.254 45.6897 261.194 45.7394 261.132 45.7906C260.945 45.9454 260.757 46.0992 260.569 46.2529C260.454 46.3474 260.34 46.4419 260.225 46.5364C260.064 46.67 259.902 46.8035 259.74 46.9367C259.015 47.5299 259.015 47.5299 258.309 48.1541C258.172 48.2666 258.172 48.2666 258.022 48.2666C258.002 48.3413 257.982 48.416 257.961 48.493C257.243 50.8904 255.642 52.7759 253.737 53.9269C252.497 54.5999 251.15 54.8377 249.795 54.8605C249.704 54.8623 249.614 54.8642 249.52 54.866C249.233 54.8717 248.945 54.877 248.657 54.882C248.461 54.8859 248.265 54.8897 248.07 54.8935C247.591 54.9029 247.113 54.9118 246.634 54.9204C246.633 54.9706 246.633 55.0209 246.632 55.0727C246.624 55.5939 246.615 56.1151 246.606 56.6362C246.603 56.831 246.6 57.0257 246.597 57.2204C246.593 57.4997 246.588 57.7789 246.583 58.0582C246.582 58.1458 246.58 58.2335 246.579 58.3237C246.578 58.4044 246.576 58.485 246.575 58.5681C246.574 58.6394 246.572 58.7108 246.571 58.7842C246.559 58.9477 246.559 58.9477 246.484 59.0353C246.338 59.0449 246.192 59.0483 246.045 59.0494C245.951 59.0502 245.857 59.051 245.76 59.0519C245.657 59.0523 245.553 59.0527 245.45 59.053C245.344 59.0536 245.239 59.0541 245.134 59.0545C244.913 59.0555 244.692 59.056 244.47 59.0563C244.187 59.0568 243.903 59.0589 243.619 59.0613C243.401 59.063 243.184 59.0634 242.966 59.0636C242.861 59.0639 242.757 59.0646 242.652 59.0657C242.506 59.0672 242.36 59.0669 242.214 59.0664C242.13 59.0668 242.047 59.0671 241.961 59.0674C241.896 59.0568 241.831 59.0462 241.765 59.0353C241.607 58.7589 241.596 58.6961 241.598 58.3812C241.598 58.3023 241.598 58.2234 241.598 58.1422C241.598 58.0573 241.599 57.9725 241.6 57.8851C241.6 57.7981 241.6 57.711 241.601 57.6212C241.602 57.3429 241.603 57.0646 241.605 56.7863C241.606 56.5977 241.607 56.4091 241.607 56.2205C241.609 55.7579 241.612 55.2954 241.615 54.8328C241.549 54.8331 241.549 54.8331 241.481 54.8335C241.026 54.8354 240.57 54.8367 240.114 54.8377C239.944 54.8381 239.774 54.8387 239.604 54.8394C239.359 54.8405 239.115 54.841 238.871 54.8414C238.794 54.8419 238.718 54.8423 238.639 54.8427C238.568 54.8427 238.498 54.8427 238.425 54.8428C238.363 54.843 238.3 54.8432 238.236 54.8434C238.093 54.8328 238.093 54.8328 238.019 54.7453C238.011 54.5743 238.008 54.4031 238.008 54.2318C238.007 54.1219 238.007 54.0121 238.006 53.8989C238.006 53.778 238.006 53.6572 238.006 53.5363C238.006 53.4132 238.006 53.2901 238.005 53.167C238.005 52.9086 238.005 52.6501 238.005 52.3918C238.005 52.0601 238.004 51.7286 238.002 51.3969C238.002 51.1425 238.001 50.8882 238.001 50.6338C238.001 50.5115 238.001 50.3892 238 50.2669C238 50.0961 238 49.9253 238 49.7544C238 49.6571 238 49.5598 238 49.4594C238.019 49.2296 238.019 49.2296 238.168 49.0545C238.314 49.0302 238.314 49.0302 238.495 49.0266C238.596 49.024 238.596 49.024 238.699 49.0213C238.809 49.0199 238.809 49.0199 238.921 49.0183C239.032 49.0157 239.032 49.0157 239.147 49.0131C239.386 49.0079 239.625 49.0038 239.863 48.9998C240.025 48.9965 240.187 48.9931 240.349 48.9896C240.746 48.9812 241.143 48.9737 241.54 48.967C241.54 48.9093 241.541 48.8515 241.541 48.7921C241.546 48.1825 241.552 47.5731 241.559 46.9637C241.562 46.7372 241.564 46.5108 241.566 46.2844C241.591 43.0732 242.054 40.4142 244.012 38.0232C244.058 37.9642 244.104 37.9051 244.151 37.8443C245.376 36.3179 247.075 35.4906 248.807 35.134C248.876 35.1177 248.945 35.1013 249.017 35.0845C251.078 34.7575 253.245 35.3908 254.941 36.792ZM247.405 42.3159C246.685 43.3548 246.484 44.3045 246.559 45.6401C246.671 46.4967 247.027 47.283 247.533 47.9164C247.583 47.9164 247.632 47.9164 247.683 47.9164C247.683 47.9742 247.683 48.0319 247.683 48.0915C248.603 48.9354 249.536 49.1959 250.68 49.0545C251.436 48.8849 252.189 48.4193 252.703 47.7413C252.703 47.6835 252.703 47.6257 252.703 47.5662C252.752 47.5662 252.801 47.5662 252.852 47.5662C253.47 46.5699 253.703 45.5471 253.602 44.3268C253.404 43.1321 252.878 42.1453 252.028 41.4377C250.422 40.3998 248.617 40.6376 247.405 42.3159Z"/>
</mask>
<path d="M254.941 36.792C255.338 37.1481 255.709 37.535 256.074 37.9356C256.123 37.9852 256.172 38.0347 256.222 38.0858C256.963 38.8723 257.623 40.0657 257.947 41.175C257.947 41.2328 257.947 41.2906 257.947 41.3501C258.023 41.3791 258.023 41.3791 258.101 41.4086C258.387 41.5595 258.613 41.7664 258.86 41.9903C258.967 42.0854 259.073 42.1804 259.18 42.2752C259.236 42.3245 259.291 42.3739 259.348 42.4247C259.635 42.6769 259.926 42.9219 260.218 43.1668C260.303 43.2384 260.303 43.2384 260.39 43.3115C260.499 43.4036 260.609 43.4956 260.718 43.5876C260.926 43.7624 261.134 43.9377 261.342 44.1134C261.402 44.1641 261.462 44.2148 261.523 44.2669C261.708 44.4278 261.888 44.5952 262.067 44.7646C261.966 45.0434 261.864 45.1871 261.653 45.361C261.572 45.4283 261.572 45.4283 261.49 45.4969C261.431 45.5441 261.373 45.5914 261.314 45.6401C261.254 45.6897 261.194 45.7394 261.132 45.7906C260.945 45.9454 260.757 46.0992 260.569 46.2529C260.454 46.3474 260.34 46.4419 260.225 46.5364C260.064 46.67 259.902 46.8035 259.74 46.9367C259.015 47.5299 259.015 47.5299 258.309 48.1541C258.172 48.2666 258.172 48.2666 258.022 48.2666C258.002 48.3413 257.982 48.416 257.961 48.493C257.243 50.8904 255.642 52.7759 253.737 53.9269C252.497 54.5999 251.15 54.8377 249.795 54.8605C249.704 54.8623 249.614 54.8642 249.52 54.866C249.233 54.8717 248.945 54.877 248.657 54.882C248.461 54.8859 248.265 54.8897 248.07 54.8935C247.591 54.9029 247.113 54.9118 246.634 54.9204C246.633 54.9706 246.633 55.0209 246.632 55.0727C246.624 55.5939 246.615 56.1151 246.606 56.6362C246.603 56.831 246.6 57.0257 246.597 57.2204C246.593 57.4997 246.588 57.7789 246.583 58.0582C246.582 58.1458 246.58 58.2335 246.579 58.3237C246.578 58.4044 246.576 58.485 246.575 58.5681C246.574 58.6394 246.572 58.7108 246.571 58.7842C246.559 58.9477 246.559 58.9477 246.484 59.0353C246.338 59.0449 246.192 59.0483 246.045 59.0494C245.951 59.0502 245.857 59.051 245.76 59.0519C245.657 59.0523 245.553 59.0527 245.45 59.053C245.344 59.0536 245.239 59.0541 245.134 59.0545C244.913 59.0555 244.692 59.056 244.47 59.0563C244.187 59.0568 243.903 59.0589 243.619 59.0613C243.401 59.063 243.184 59.0634 242.966 59.0636C242.861 59.0639 242.757 59.0646 242.652 59.0657C242.506 59.0672 242.36 59.0669 242.214 59.0664C242.13 59.0668 242.047 59.0671 241.961 59.0674C241.896 59.0568 241.831 59.0462 241.765 59.0353C241.607 58.7589 241.596 58.6961 241.598 58.3812C241.598 58.3023 241.598 58.2234 241.598 58.1422C241.598 58.0573 241.599 57.9725 241.6 57.8851C241.6 57.7981 241.6 57.711 241.601 57.6212C241.602 57.3429 241.603 57.0646 241.605 56.7863C241.606 56.5977 241.607 56.4091 241.607 56.2205C241.609 55.7579 241.612 55.2954 241.615 54.8328C241.549 54.8331 241.549 54.8331 241.481 54.8335C241.026 54.8354 240.57 54.8367 240.114 54.8377C239.944 54.8381 239.774 54.8387 239.604 54.8394C239.359 54.8405 239.115 54.841 238.871 54.8414C238.794 54.8419 238.718 54.8423 238.639 54.8427C238.568 54.8427 238.498 54.8427 238.425 54.8428C238.363 54.843 238.3 54.8432 238.236 54.8434C238.093 54.8328 238.093 54.8328 238.019 54.7453C238.011 54.5743 238.008 54.4031 238.008 54.2318C238.007 54.1219 238.007 54.0121 238.006 53.8989C238.006 53.778 238.006 53.6572 238.006 53.5363C238.006 53.4132 238.006 53.2901 238.005 53.167C238.005 52.9086 238.005 52.6501 238.005 52.3918C238.005 52.0601 238.004 51.7286 238.002 51.3969C238.002 51.1425 238.001 50.8882 238.001 50.6338C238.001 50.5115 238.001 50.3892 238 50.2669C238 50.0961 238 49.9253 238 49.7544C238 49.6571 238 49.5598 238 49.4594C238.019 49.2296 238.019 49.2296 238.168 49.0545C238.314 49.0302 238.314 49.0302 238.495 49.0266C238.596 49.024 238.596 49.024 238.699 49.0213C238.809 49.0199 238.809 49.0199 238.921 49.0183C239.032 49.0157 239.032 49.0157 239.147 49.0131C239.386 49.0079 239.625 49.0038 239.863 48.9998C240.025 48.9965 240.187 48.9931 240.349 48.9896C240.746 48.9812 241.143 48.9737 241.54 48.967C241.54 48.9093 241.541 48.8515 241.541 48.7921C241.546 48.1825 241.552 47.5731 241.559 46.9637C241.562 46.7372 241.564 46.5108 241.566 46.2844C241.591 43.0732 242.054 40.4142 244.012 38.0232C244.058 37.9642 244.104 37.9051 244.151 37.8443C245.376 36.3179 247.075 35.4906 248.807 35.134C248.876 35.1177 248.945 35.1013 249.017 35.0845C251.078 34.7575 253.245 35.3908 254.941 36.792ZM247.405 42.3159C246.685 43.3548 246.484 44.3045 246.559 45.6401C246.671 46.4967 247.027 47.283 247.533 47.9164C247.583 47.9164 247.632 47.9164 247.683 47.9164C247.683 47.9742 247.683 48.0319 247.683 48.0915C248.603 48.9354 249.536 49.1959 250.68 49.0545C251.436 48.8849 252.189 48.4193 252.703 47.7413C252.703 47.6835 252.703 47.6257 252.703 47.5662C252.752 47.5662 252.801 47.5662 252.852 47.5662C253.47 46.5699 253.703 45.5471 253.602 44.3268C253.404 43.1321 252.878 42.1453 252.028 41.4377C250.422 40.3998 248.617 40.6376 247.405 42.3159Z" fill="white" stroke="url(#paint13_linear_109_3578)" stroke-opacity="0.55" stroke-width="2" mask="url(#path-16-inside-1_109_3578)"/>
</mask>
<g mask="url(#mask1_109_3578)">
<path d="M254.941 36.792C255.338 37.1481 255.709 37.535 256.074 37.9356C256.123 37.9852 256.172 38.0347 256.222 38.0858C256.963 38.8723 257.623 40.0657 257.947 41.175C257.947 41.2328 257.947 41.2906 257.947 41.3501C258.023 41.3791 258.023 41.3791 258.101 41.4086C258.387 41.5595 258.613 41.7664 258.86 41.9903C258.967 42.0854 259.073 42.1804 259.18 42.2752C259.236 42.3245 259.291 42.3739 259.348 42.4247C259.635 42.6769 259.926 42.9219 260.218 43.1668C260.303 43.2384 260.303 43.2384 260.39 43.3115C260.499 43.4036 260.609 43.4956 260.718 43.5876C260.926 43.7624 261.134 43.9377 261.342 44.1134C261.402 44.1641 261.462 44.2148 261.523 44.2669C261.708 44.4278 261.888 44.5952 262.067 44.7646C261.966 45.0434 261.864 45.1871 261.653 45.361C261.572 45.4283 261.572 45.4283 261.49 45.4969C261.431 45.5441 261.373 45.5914 261.314 45.6401C261.254 45.6897 261.194 45.7394 261.132 45.7906C260.945 45.9454 260.757 46.0992 260.569 46.2529C260.454 46.3474 260.34 46.4419 260.225 46.5364C260.064 46.67 259.902 46.8035 259.74 46.9367C259.015 47.5299 259.015 47.5299 258.309 48.1541C258.172 48.2666 258.172 48.2666 258.022 48.2666C258.002 48.3413 257.982 48.416 257.961 48.493C257.243 50.8904 255.642 52.7759 253.737 53.9269C252.497 54.5999 251.15 54.8377 249.795 54.8605C249.704 54.8623 249.614 54.8642 249.52 54.866C249.233 54.8717 248.945 54.877 248.657 54.882C248.461 54.8859 248.265 54.8897 248.07 54.8935C247.591 54.9029 247.113 54.9118 246.634 54.9204C246.633 54.9706 246.633 55.0209 246.632 55.0727C246.624 55.5939 246.615 56.1151 246.606 56.6362C246.603 56.831 246.6 57.0257 246.597 57.2204C246.593 57.4997 246.588 57.7789 246.583 58.0582C246.582 58.1458 246.58 58.2335 246.579 58.3237C246.578 58.4044 246.576 58.485 246.575 58.5681C246.574 58.6394 246.572 58.7108 246.571 58.7842C246.559 58.9477 246.559 58.9477 246.484 59.0353C246.338 59.0449 246.192 59.0483 246.045 59.0494C245.951 59.0502 245.857 59.051 245.76 59.0519C245.657 59.0523 245.553 59.0527 245.45 59.053C245.344 59.0536 245.239 59.0541 245.134 59.0545C244.913 59.0555 244.692 59.056 244.47 59.0563C244.187 59.0568 243.903 59.0589 243.619 59.0613C243.401 59.063 243.184 59.0634 242.966 59.0636C242.861 59.0639 242.757 59.0646 242.652 59.0657C242.506 59.0672 242.36 59.0669 242.214 59.0664C242.13 59.0668 242.047 59.0671 241.961 59.0674C241.896 59.0568 241.831 59.0462 241.765 59.0353C241.607 58.7589 241.596 58.6961 241.598 58.3812C241.598 58.3023 241.598 58.2234 241.598 58.1422C241.598 58.0573 241.599 57.9725 241.6 57.8851C241.6 57.7981 241.6 57.711 241.601 57.6212C241.602 57.3429 241.603 57.0646 241.605 56.7863C241.606 56.5977 241.607 56.4091 241.607 56.2205C241.609 55.7579 241.612 55.2954 241.615 54.8328C241.549 54.8331 241.549 54.8331 241.481 54.8335C241.026 54.8354 240.57 54.8367 240.114 54.8377C239.944 54.8381 239.774 54.8387 239.604 54.8394C239.359 54.8405 239.115 54.841 238.871 54.8414C238.794 54.8419 238.718 54.8423 238.639 54.8427C238.568 54.8427 238.498 54.8427 238.425 54.8428C238.363 54.843 238.3 54.8432 238.236 54.8434C238.093 54.8328 238.093 54.8328 238.019 54.7453C238.011 54.5743 238.008 54.4031 238.008 54.2318C238.007 54.1219 238.007 54.0121 238.006 53.8989C238.006 53.778 238.006 53.6572 238.006 53.5363C238.006 53.4132 238.006 53.2901 238.005 53.167C238.005 52.9086 238.005 52.6501 238.005 52.3918C238.005 52.0601 238.004 51.7286 238.002 51.3969C238.002 51.1425 238.001 50.8882 238.001 50.6338C238.001 50.5115 238.001 50.3892 238 50.2669C238 50.0961 238 49.9253 238 49.7544C238 49.6571 238 49.5598 238 49.4594C238.019 49.2296 238.019 49.2296 238.168 49.0545C238.314 49.0302 238.314 49.0302 238.495 49.0266C238.596 49.024 238.596 49.024 238.699 49.0213C238.809 49.0199 238.809 49.0199 238.921 49.0183C239.032 49.0157 239.032 49.0157 239.147 49.0131C239.386 49.0079 239.625 49.0038 239.863 48.9998C240.025 48.9965 240.187 48.9931 240.349 48.9896C240.746 48.9812 241.143 48.9737 241.54 48.967C241.54 48.9093 241.541 48.8515 241.541 48.7921C241.546 48.1825 241.552 47.5731 241.559 46.9637C241.562 46.7372 241.564 46.5108 241.566 46.2844C241.591 43.0732 242.054 40.4142 244.012 38.0232C244.058 37.9642 244.104 37.9051 244.151 37.8443C245.376 36.3179 247.075 35.4906 248.807 35.134C248.876 35.1177 248.945 35.1013 249.017 35.0845C251.078 34.7575 253.245 35.3908 254.941 36.792ZM247.405 42.3159C246.685 43.3548 246.484 44.3045 246.559 45.6401C246.671 46.4967 247.027 47.283 247.533 47.9164C247.583 47.9164 247.632 47.9164 247.683 47.9164C247.683 47.9742 247.683 48.0319 247.683 48.0915C248.603 48.9354 249.536 49.1959 250.68 49.0545C251.436 48.8849 252.189 48.4193 252.703 47.7413C252.703 47.6835 252.703 47.6257 252.703 47.5662C252.752 47.5662 252.801 47.5662 252.852 47.5662C253.47 46.5699 253.703 45.5471 253.602 44.3268C253.404 43.1321 252.878 42.1453 252.028 41.4377C250.422 40.3998 248.617 40.6376 247.405 42.3159Z" fill="url(#paint14_linear_109_3578)" fill-opacity="0.55" stroke="url(#paint15_linear_109_3578)" stroke-opacity="0.55"/>
</g>
<mask id="path-18-inside-2_109_3578" fill="white">
<path d="M271.79 56.9736H268.934V55.2406C267.99 56.3959 266.697 56.9736 265.053 56.9736C263.589 56.9736 262.344 56.3878 261.319 55.2162C260.294 54.0446 259.781 52.6289 259.781 50.9692C259.781 49.3095 260.294 47.8938 261.319 46.7222C262.344 45.5506 263.589 44.9648 265.053 44.9648C266.697 44.9648 267.99 45.5425 268.934 46.6978V44.9648H271.79V56.9736ZM265.785 54.1178C266.68 54.0853 267.421 53.7761 268.007 53.1903C268.609 52.6045 268.918 51.8642 268.934 50.9692C268.918 50.0742 268.609 49.3339 268.007 48.7481C267.421 48.146 266.68 47.8369 265.785 47.8206C264.89 47.8369 264.15 48.146 263.564 48.7481C262.978 49.3339 262.669 50.0742 262.637 50.9692C262.669 51.8642 262.978 52.6045 263.564 53.1903C264.15 53.7761 264.89 54.0853 265.785 54.1178ZM280.298 61.6355H276.783V58.7798H280.298C280.803 58.7635 281.226 58.5845 281.567 58.2428C281.909 57.9011 282.088 57.4698 282.104 56.9492V55.3626C281.6 55.9159 281.03 56.3227 280.396 56.5831C279.761 56.8434 279.192 56.9736 278.687 56.9736C277.906 56.9736 277.223 56.8352 276.637 56.5586C274.717 55.6636 273.757 53.8005 273.757 50.9692V44.9648H276.613V50.9692C276.613 53.052 277.434 54.1015 279.078 54.1178C279.794 54.1178 280.477 53.8168 281.128 53.2147C281.779 52.6126 282.104 51.8642 282.104 50.9692V44.9648H284.96V56.9492C284.96 58.2509 284.505 59.3575 283.593 60.2687C282.682 61.1799 281.584 61.6355 280.298 61.6355ZM286.157 59.0727L288.036 57.2177L288.085 57.2421C288.703 57.8116 289.435 58.2347 290.281 58.5113C291.128 58.7879 291.974 58.9262 292.82 58.9262C292.999 58.9262 293.227 58.9099 293.503 58.8774C293.796 58.8611 294.081 58.8123 294.358 58.731C294.634 58.6658 294.87 58.5601 295.065 58.4137C295.277 58.2835 295.383 58.1127 295.383 57.9011C295.383 57.6733 295.285 57.4943 295.09 57.3641C294.895 57.234 294.651 57.1281 294.358 57.0468C294.065 56.9817 293.772 56.9492 293.479 56.9492C293.186 56.9329 292.95 56.9248 292.771 56.9248C292.202 56.9248 291.624 56.9573 291.038 57.0224C290.469 57.0875 289.915 57.2096 289.378 57.3885H289.354L287.719 55.7776L288.866 52.3605C288.394 51.9536 288.028 51.4981 287.767 50.9936C287.507 50.4729 287.377 49.9033 287.377 49.285C287.377 48.6016 287.523 47.9914 287.816 47.4544C288.109 46.9012 288.5 46.4374 288.988 46.0632C289.476 45.6727 290.029 45.3798 290.648 45.1845C291.266 44.9729 291.892 44.8672 292.527 44.8672C293.65 44.8672 294.764 44.8753 295.871 44.8916C296.994 44.8916 298.116 44.8916 299.239 44.8916H299.288V47.5277L296.847 47.1615C297.384 47.7962 297.653 48.5284 297.653 49.3583C297.653 49.9929 297.506 50.5787 297.213 51.1156C296.92 51.6363 296.538 52.092 296.066 52.4825C295.594 52.8567 295.057 53.1496 294.455 53.3612C293.869 53.5728 293.276 53.6785 292.673 53.6785C292.104 53.6785 291.583 53.5972 291.111 53.4344L290.794 54.3619C291.445 54.2318 292.071 54.1667 292.673 54.1667C293.259 54.1667 293.878 54.2236 294.528 54.3375C295.179 54.4351 295.773 54.6304 296.31 54.9233C296.847 55.1999 297.287 55.5742 297.628 56.0461C297.986 56.5179 298.165 57.12 298.165 57.8523C298.165 58.5845 298.003 59.2028 297.677 59.7073C297.352 60.2117 296.929 60.6185 296.408 60.9277C295.887 61.2369 295.301 61.4566 294.651 61.5867C294.016 61.7331 293.381 61.8064 292.747 61.8064C292.161 61.8064 291.559 61.7495 290.941 61.6355C290.339 61.5216 289.753 61.3507 289.183 61.1229C288.614 60.9114 288.069 60.6348 287.548 60.2931C287.043 59.9514 286.588 59.5608 286.181 59.1215L286.157 59.0727ZM290.379 49.3583C290.379 49.6349 290.444 49.8871 290.574 50.1149C290.721 50.3427 290.892 50.538 291.087 50.7007C291.299 50.8472 291.526 50.9611 291.77 51.0424C292.031 51.1238 292.283 51.1645 292.527 51.1645C292.771 51.1645 293.023 51.1238 293.284 51.0424C293.544 50.9611 293.772 50.8472 293.967 50.7007C294.179 50.538 294.35 50.3427 294.48 50.1149C294.626 49.8871 294.699 49.6349 294.699 49.3583C294.699 49.0654 294.634 48.805 294.504 48.5772C294.374 48.3494 294.203 48.1542 293.992 47.9914C293.78 47.8287 293.544 47.7066 293.284 47.6253C293.023 47.544 292.771 47.5033 292.527 47.5033C292.283 47.5033 292.031 47.544 291.77 47.6253C291.526 47.7066 291.299 47.8287 291.087 47.9914C290.875 48.1542 290.705 48.3494 290.574 48.5772C290.444 48.805 290.379 49.0654 290.379 49.3583ZM306.163 56.9736C304.503 56.9736 303.088 56.3878 301.916 55.2162C300.744 54.0446 300.159 52.6289 300.159 50.9692C300.159 49.3095 300.744 47.8938 301.916 46.7222C303.088 45.5506 304.503 44.9648 306.163 44.9648C307.627 44.9648 308.905 45.4286 309.995 46.3561C311.085 47.2673 311.777 48.4308 312.07 49.8464C312.135 50.2207 312.167 50.595 312.167 50.9692V51.2621C312.151 51.5062 312.119 51.7503 312.07 51.9943H303.185L303.234 52.092C303.787 53.3775 304.764 54.0527 306.163 54.1178C306.944 54.1015 307.627 53.8493 308.213 53.3612H311.679C311.207 54.4351 310.475 55.3057 309.482 55.9729C308.506 56.64 307.4 56.9736 306.163 56.9736ZM309.116 49.8464C308.547 48.5609 307.562 47.8857 306.163 47.8206C304.764 47.8857 303.787 48.5609 303.234 49.8464H309.116ZM319.177 56.9736C317.518 56.9736 316.102 56.3878 314.93 55.2162C313.759 54.0446 313.173 52.6289 313.173 50.9692C313.173 49.3095 313.759 47.8938 314.93 46.7222C316.102 45.5506 317.518 44.9648 319.177 44.9648C320.837 44.9648 322.253 45.5506 323.424 46.7222C324.596 47.8938 325.182 49.3095 325.182 50.9692C325.182 52.6289 324.596 54.0446 323.424 55.2162C322.253 56.3878 320.837 56.9736 319.177 56.9736ZM319.177 54.1178C320.072 54.0853 320.813 53.7761 321.399 53.1903C322.001 52.6045 322.31 51.8642 322.326 50.9692C322.326 50.0905 322.017 49.3502 321.399 48.7481C320.796 48.1298 320.056 47.8206 319.177 47.8206C318.315 47.8206 317.575 48.1298 316.956 48.7481C316.338 49.3502 316.029 50.0905 316.029 50.9692C316.029 51.8316 316.338 52.572 316.956 53.1903C317.575 53.8086 318.315 54.1178 319.177 54.1178ZM338 56.9736H335.144V50.9692C335.144 48.8701 334.323 47.8206 332.679 47.8206C331.963 47.8206 331.28 48.1216 330.629 48.7237C329.978 49.3095 329.653 50.058 329.653 50.9692V56.9736H326.797V44.9648H329.653V46.5758C330.157 46.0225 330.727 45.6157 331.361 45.3553C331.996 45.095 332.566 44.9648 333.07 44.9648C333.867 44.9648 334.551 45.095 335.12 45.3553C337.04 46.2503 338 48.1216 338 50.9692V56.9736Z"/>
</mask>
<path d="M271.79 56.9736H268.934V55.2406C267.99 56.3959 266.697 56.9736 265.053 56.9736C263.589 56.9736 262.344 56.3878 261.319 55.2162C260.294 54.0446 259.781 52.6289 259.781 50.9692C259.781 49.3095 260.294 47.8938 261.319 46.7222C262.344 45.5506 263.589 44.9648 265.053 44.9648C266.697 44.9648 267.99 45.5425 268.934 46.6978V44.9648H271.79V56.9736ZM265.785 54.1178C266.68 54.0853 267.421 53.7761 268.007 53.1903C268.609 52.6045 268.918 51.8642 268.934 50.9692C268.918 50.0742 268.609 49.3339 268.007 48.7481C267.421 48.146 266.68 47.8369 265.785 47.8206C264.89 47.8369 264.15 48.146 263.564 48.7481C262.978 49.3339 262.669 50.0742 262.637 50.9692C262.669 51.8642 262.978 52.6045 263.564 53.1903C264.15 53.7761 264.89 54.0853 265.785 54.1178ZM280.298 61.6355H276.783V58.7798H280.298C280.803 58.7635 281.226 58.5845 281.567 58.2428C281.909 57.9011 282.088 57.4698 282.104 56.9492V55.3626C281.6 55.9159 281.03 56.3227 280.396 56.5831C279.761 56.8434 279.192 56.9736 278.687 56.9736C277.906 56.9736 277.223 56.8352 276.637 56.5586C274.717 55.6636 273.757 53.8005 273.757 50.9692V44.9648H276.613V50.9692C276.613 53.052 277.434 54.1015 279.078 54.1178C279.794 54.1178 280.477 53.8168 281.128 53.2147C281.779 52.6126 282.104 51.8642 282.104 50.9692V44.9648H284.96V56.9492C284.96 58.2509 284.505 59.3575 283.593 60.2687C282.682 61.1799 281.584 61.6355 280.298 61.6355ZM286.157 59.0727L288.036 57.2177L288.085 57.2421C288.703 57.8116 289.435 58.2347 290.281 58.5113C291.128 58.7879 291.974 58.9262 292.82 58.9262C292.999 58.9262 293.227 58.9099 293.503 58.8774C293.796 58.8611 294.081 58.8123 294.358 58.731C294.634 58.6658 294.87 58.5601 295.065 58.4137C295.277 58.2835 295.383 58.1127 295.383 57.9011C295.383 57.6733 295.285 57.4943 295.09 57.3641C294.895 57.234 294.651 57.1281 294.358 57.0468C294.065 56.9817 293.772 56.9492 293.479 56.9492C293.186 56.9329 292.95 56.9248 292.771 56.9248C292.202 56.9248 291.624 56.9573 291.038 57.0224C290.469 57.0875 289.915 57.2096 289.378 57.3885H289.354L287.719 55.7776L288.866 52.3605C288.394 51.9536 288.028 51.4981 287.767 50.9936C287.507 50.4729 287.377 49.9033 287.377 49.285C287.377 48.6016 287.523 47.9914 287.816 47.4544C288.109 46.9012 288.5 46.4374 288.988 46.0632C289.476 45.6727 290.029 45.3798 290.648 45.1845C291.266 44.9729 291.892 44.8672 292.527 44.8672C293.65 44.8672 294.764 44.8753 295.871 44.8916C296.994 44.8916 298.116 44.8916 299.239 44.8916H299.288V47.5277L296.847 47.1615C297.384 47.7962 297.653 48.5284 297.653 49.3583C297.653 49.9929 297.506 50.5787 297.213 51.1156C296.92 51.6363 296.538 52.092 296.066 52.4825C295.594 52.8567 295.057 53.1496 294.455 53.3612C293.869 53.5728 293.276 53.6785 292.673 53.6785C292.104 53.6785 291.583 53.5972 291.111 53.4344L290.794 54.3619C291.445 54.2318 292.071 54.1667 292.673 54.1667C293.259 54.1667 293.878 54.2236 294.528 54.3375C295.179 54.4351 295.773 54.6304 296.31 54.9233C296.847 55.1999 297.287 55.5742 297.628 56.0461C297.986 56.5179 298.165 57.12 298.165 57.8523C298.165 58.5845 298.003 59.2028 297.677 59.7073C297.352 60.2117 296.929 60.6185 296.408 60.9277C295.887 61.2369 295.301 61.4566 294.651 61.5867C294.016 61.7331 293.381 61.8064 292.747 61.8064C292.161 61.8064 291.559 61.7495 290.941 61.6355C290.339 61.5216 289.753 61.3507 289.183 61.1229C288.614 60.9114 288.069 60.6348 287.548 60.2931C287.043 59.9514 286.588 59.5608 286.181 59.1215L286.157 59.0727ZM290.379 49.3583C290.379 49.6349 290.444 49.8871 290.574 50.1149C290.721 50.3427 290.892 50.538 291.087 50.7007C291.299 50.8472 291.526 50.9611 291.77 51.0424C292.031 51.1238 292.283 51.1645 292.527 51.1645C292.771 51.1645 293.023 51.1238 293.284 51.0424C293.544 50.9611 293.772 50.8472 293.967 50.7007C294.179 50.538 294.35 50.3427 294.48 50.1149C294.626 49.8871 294.699 49.6349 294.699 49.3583C294.699 49.0654 294.634 48.805 294.504 48.5772C294.374 48.3494 294.203 48.1542 293.992 47.9914C293.78 47.8287 293.544 47.7066 293.284 47.6253C293.023 47.544 292.771 47.5033 292.527 47.5033C292.283 47.5033 292.031 47.544 291.77 47.6253C291.526 47.7066 291.299 47.8287 291.087 47.9914C290.875 48.1542 290.705 48.3494 290.574 48.5772C290.444 48.805 290.379 49.0654 290.379 49.3583ZM306.163 56.9736C304.503 56.9736 303.088 56.3878 301.916 55.2162C300.744 54.0446 300.159 52.6289 300.159 50.9692C300.159 49.3095 300.744 47.8938 301.916 46.7222C303.088 45.5506 304.503 44.9648 306.163 44.9648C307.627 44.9648 308.905 45.4286 309.995 46.3561C311.085 47.2673 311.777 48.4308 312.07 49.8464C312.135 50.2207 312.167 50.595 312.167 50.9692V51.2621C312.151 51.5062 312.119 51.7503 312.07 51.9943H303.185L303.234 52.092C303.787 53.3775 304.764 54.0527 306.163 54.1178C306.944 54.1015 307.627 53.8493 308.213 53.3612H311.679C311.207 54.4351 310.475 55.3057 309.482 55.9729C308.506 56.64 307.4 56.9736 306.163 56.9736ZM309.116 49.8464C308.547 48.5609 307.562 47.8857 306.163 47.8206C304.764 47.8857 303.787 48.5609 303.234 49.8464H309.116ZM319.177 56.9736C317.518 56.9736 316.102 56.3878 314.93 55.2162C313.759 54.0446 313.173 52.6289 313.173 50.9692C313.173 49.3095 313.759 47.8938 314.93 46.7222C316.102 45.5506 317.518 44.9648 319.177 44.9648C320.837 44.9648 322.253 45.5506 323.424 46.7222C324.596 47.8938 325.182 49.3095 325.182 50.9692C325.182 52.6289 324.596 54.0446 323.424 55.2162C322.253 56.3878 320.837 56.9736 319.177 56.9736ZM319.177 54.1178C320.072 54.0853 320.813 53.7761 321.399 53.1903C322.001 52.6045 322.31 51.8642 322.326 50.9692C322.326 50.0905 322.017 49.3502 321.399 48.7481C320.796 48.1298 320.056 47.8206 319.177 47.8206C318.315 47.8206 317.575 48.1298 316.956 48.7481C316.338 49.3502 316.029 50.0905 316.029 50.9692C316.029 51.8316 316.338 52.572 316.956 53.1903C317.575 53.8086 318.315 54.1178 319.177 54.1178ZM338 56.9736H335.144V50.9692C335.144 48.8701 334.323 47.8206 332.679 47.8206C331.963 47.8206 331.28 48.1216 330.629 48.7237C329.978 49.3095 329.653 50.058 329.653 50.9692V56.9736H326.797V44.9648H329.653V46.5758C330.157 46.0225 330.727 45.6157 331.361 45.3553C331.996 45.095 332.566 44.9648 333.07 44.9648C333.867 44.9648 334.551 45.095 335.12 45.3553C337.04 46.2503 338 48.1216 338 50.9692V56.9736Z" fill="#D3D3D3" fill-opacity="0.55" stroke="url(#paint16_linear_109_3578)" stroke-opacity="0.55" stroke-width="2" mask="url(#path-18-inside-2_109_3578)"/>
<defs>
<filter id="filter0_d_109_3578" x="190.686" y="194.862" width="157.908" height="15.376" filterUnits="userSpaceOnUse" color-interpolation-filters="sRGB">
<feFlood flood-opacity="0" result="BackgroundImageFix"/>
<feColorMatrix in="SourceAlpha" type="matrix" values="0 0 0 0 0 0 0 0 0 0 0 0 0 0 0 0 0 0 127 0" result="hardAlpha"/>
<feOffset dy="2"/>
<feGaussianBlur stdDeviation="0.5"/>
<feComposite in2="hardAlpha" operator="out"/>
<feColorMatrix type="matrix" values="0 0 0 0 0 0 0 0 0 0 0 0 0 0 0 0 0 0 0.25 0"/>
<feBlend mode="normal" in2="BackgroundImageFix" result="effect1_dropShadow_109_3578"/>
<feBlend mode="normal" in="SourceGraphic" in2="effect1_dropShadow_109_3578" result="shape"/>
</filter>
<radialGradient id="paint0_radial_109_3578" cx="0" cy="0" r="1" gradientUnits="userSpaceOnUse" gradientTransform="translate(194 126) rotate(90) scale(106 174)">
<stop stop-color="#023E62"/>
<stop offset="1" stop-color="#10253F"/>
</radialGradient>
<linearGradient id="paint1_linear_109_3578" x1="166.743" y1="60.2207" x2="166.743" y2="87.0816" gradientUnits="userSpaceOnUse">
<stop stop-color="#B0B0B0"/>
<stop offset="0.48" stop-color="white"/>
<stop offset="1" stop-color="#4A4A4A"/>
</linearGradient>
<linearGradient id="paint2_linear_109_3578" x1="182.042" y1="60.2207" x2="182.042" y2="105.828" gradientUnits="userSpaceOnUse">
<stop stop-color="#B0B0B0"/>
<stop offset="0.48" stop-color="white"/>
<stop offset="1" stop-color="#4A4A4A"/>
</linearGradient>
<linearGradient id="paint3_linear_109_3578" x1="148.257" y1="60.2207" x2="148.257" y2="87.0772" gradientUnits="userSpaceOnUse">
<stop stop-color="#B0B0B0"/>
<stop offset="0.48" stop-color="white"/>
<stop offset="1" stop-color="#4A4A4A"/>
</linearGradient>
<linearGradient id="paint4_linear_109_3578" x1="132.956" y1="60.2207" x2="132.956" y2="105.824" gradientUnits="userSpaceOnUse">
<stop stop-color="#B0B0B0"/>
<stop offset="0.48" stop-color="white"/>
<stop offset="1" stop-color="#4A4A4A"/>
</linearGradient>
<linearGradient id="paint5_linear_109_3578" x1="166.743" y1="131.525" x2="166.743" y2="158.386" gradientUnits="userSpaceOnUse">
<stop stop-color="#B0B0B0"/>
<stop offset="0.48" stop-color="white"/>
<stop offset="1" stop-color="#4A4A4A"/>
</linearGradient>
<linearGradient id="paint6_linear_109_3578" x1="182.04" y1="112.785" x2="182.04" y2="158.388" gradientUnits="userSpaceOnUse">
<stop stop-color="#B0B0B0"/>
<stop offset="0.48" stop-color="white"/>
<stop offset="1" stop-color="#4A4A4A"/>
</linearGradient>
<linearGradient id="paint7_linear_109_3578" x1="148.257" y1="131.534" x2="148.257" y2="158.391" gradientUnits="userSpaceOnUse">
<stop stop-color="#B0B0B0"/>
<stop offset="0.48" stop-color="white"/>
<stop offset="1" stop-color="#4A4A4A"/>
</linearGradient>
<linearGradient id="paint8_linear_109_3578" x1="132.958" y1="112.785" x2="132.958" y2="158.388" gradientUnits="userSpaceOnUse">
<stop stop-color="#B0B0B0"/>
<stop offset="0.48" stop-color="white"/>
<stop offset="1" stop-color="#4A4A4A"/>
</linearGradient>
<radialGradient id="paint9_angular_109_3578" cx="0" cy="0" r="1" gradientUnits="userSpaceOnUse" gradientTransform="translate(87.9839 108.418) rotate(90) scale(16.4177 7.01613)">
<stop stop-color="#C6C6C6"/>
<stop offset="0.575" stop-color="white"/>
<stop offset="0.94" stop-color="#424242"/>
</radialGradient>
<linearGradient id="paint10_linear_109_3578" x1="72.4516" y1="92" x2="72.4516" y2="126.212" gradientUnits="userSpaceOnUse">
<stop stop-color="#B0B0B0"/>
<stop offset="0.49" stop-color="white"/>
<stop offset="0.98" stop-color="#090909" stop-opacity="0.99"/>
</linearGradient>
<radialGradient id="paint11_angular_109_3578" cx="0" cy="0" r="1" gradientUnits="userSpaceOnUse" gradientTransform="translate(72.4516 109.106) rotate(90) scale(17.106 22.4516)">
<stop stop-color="#C6C6C6"/>
<stop offset="0.575" stop-color="white"/>
<stop offset="0.94" stop-color="#424242"/>
</radialGradient>
<radialGradient id="paint12_angular_109_3578" cx="0" cy="0" r="1" gradientUnits="userSpaceOnUse" gradientTransform="translate(57.3669 114.658) rotate(90) scale(11.5065 7.36694)">
<stop stop-color="#C6C6C6"/>
<stop offset="0.575" stop-color="white"/>
<stop offset="0.94" stop-color="#424242"/>
</radialGradient>
<linearGradient id="paint13_linear_109_3578" x1="250.034" y1="35" x2="250.034" y2="59.0674" gradientUnits="userSpaceOnUse">
<stop stop-color="#666666"/>
<stop offset="0.51" stop-color="white"/>
<stop offset="1" stop-color="#CCCCCC"/>
</linearGradient>
<linearGradient id="paint14_linear_109_3578" x1="250.034" y1="35" x2="250.034" y2="59.0674" gradientUnits="userSpaceOnUse">
<stop offset="0.155" stop-color="#EDEDED"/>
<stop offset="0.565" stop-color="#505050" stop-opacity="0.25"/>
<stop offset="0.9" stop-color="white"/>
</linearGradient>
<linearGradient id="paint15_linear_109_3578" x1="250.034" y1="35" x2="250.034" y2="59.0674" gradientUnits="userSpaceOnUse">
<stop stop-color="#666666"/>
<stop offset="0.51" stop-color="white"/>
<stop offset="1" stop-color="#CCCCCC"/>
</linearGradient>
<linearGradient id="paint16_linear_109_3578" x1="298.891" y1="44.8672" x2="298.891" y2="61.8064" gradientUnits="userSpaceOnUse">
<stop stop-color="#666666"/>
<stop offset="0.51" stop-color="white"/>
<stop offset="1" stop-color="#CCCCCC"/>
</linearGradient>
<clipPath id="clip0_109_3578">
<rect x="20" y="20" width="348" height="212" rx="16" fill="white"/>
</clipPath>
</defs>
</svg>
