<svg width="81" height="151" viewBox="0 0 81 151" fill="none" xmlns="http://www.w3.org/2000/svg">
<path d="M80.4792 59.2112C80.4792 26.5619 54.8345 0 23.3124 0H0V77.569H4.79181C12.9783 77.569 20.6799 80.8698 26.4704 86.8676C31.701 92.2852 34.7839 99.3231 35.3324 106.882C31.4181 107.94 27.3884 108.478 23.3124 108.478H0V150.994H4.79181C15.5416 150.994 25.6448 146.659 33.2482 138.784C39.7201 132.08 43.7324 123.41 44.7542 114.087C51.8092 111.127 58.3217 106.666 63.737 101.057C74.533 89.8873 80.4792 75.0217 80.4792 59.2112ZM9.58939 67.9297V43.0539C15.8938 42.3604 27.7174 42.3423 36.2734 50.0861C46.1398 59.0199 50.2215 77.5272 42.855 95.7952C40.8921 89.8574 37.659 84.4098 33.2482 79.8414C26.788 73.162 18.5206 69.024 9.58939 67.9297ZM26.4704 131.769C21.8229 136.577 15.9573 139.656 9.58939 140.685V118.411H23.3124C27.0766 118.411 30.8119 118.034 34.4722 117.28C33.1212 122.722 30.3847 127.715 26.4704 131.769ZM52.1961 98.3186C59.9956 77.7724 56.7167 55.4082 42.5778 42.6174C31.7876 32.8466 17.9202 32.2786 9.58939 33.0679V9.93231H23.3124C49.552 9.93231 70.8956 32.0395 70.8956 59.2173C70.8956 72.3727 65.948 84.7448 56.9592 94.0552C55.4697 95.5918 53.8647 96.9972 52.1961 98.3186Z" fill="white" fill-opacity="0.6"/>
</svg>
