<svg width="478" height="574" viewBox="0 0 478 574" fill="none" xmlns="http://www.w3.org/2000/svg">
<g style="mix-blend-mode:plus-darker">
<g clip-path="url(#clip0_0_1)">
<rect x="60" y="302" width="348" height="212" rx="16" fill="url(#paint0_radial_0_1)"/>
<g filter="url(#filter0_d_0_1)">
<path d="M231.686 481.384V480.296H233.08L234.27 480.483L234.355 480.279L233.386 479.565L232.4 478.579L233.165 477.814L234.151 478.783L234.865 479.769L235.069 479.684L234.882 478.477V477.1H235.97V478.477L235.783 479.684L235.987 479.769L236.701 478.783L237.687 477.814L238.452 478.579L237.483 479.565L236.497 480.279L236.582 480.483L237.772 480.296H239.166V481.384H237.772L236.582 481.197L236.497 481.401L237.483 482.115L238.452 483.101L237.687 483.866L236.701 482.88L235.987 481.894L235.783 481.979L235.97 483.186V484.563H234.882V483.186L235.069 481.979L234.865 481.894L234.151 482.88L233.165 483.866L232.4 483.101L233.386 482.115L234.355 481.401L234.27 481.197L233.08 481.384H231.686ZM240.02 481.384V480.296H241.414L242.604 480.483L242.689 480.279L241.72 479.565L240.734 478.579L241.499 477.814L242.485 478.783L243.199 479.769L243.403 479.684L243.216 478.477V477.1H244.304V478.477L244.117 479.684L244.321 479.769L245.035 478.783L246.021 477.814L246.786 478.579L245.817 479.565L244.831 480.279L244.916 480.483L246.106 480.296H247.5V481.384H246.106L244.916 481.197L244.831 481.401L245.817 482.115L246.786 483.101L246.021 483.866L245.035 482.88L244.321 481.894L244.117 481.979L244.304 483.186V484.563H243.216V483.186L243.403 481.979L243.199 481.894L242.485 482.88L241.499 483.866L240.734 483.101L241.72 482.115L242.689 481.401L242.604 481.197L241.414 481.384H240.02ZM248.355 481.384V480.296H249.749L250.939 480.483L251.024 480.279L250.055 479.565L249.069 478.579L249.834 477.814L250.82 478.783L251.534 479.769L251.738 479.684L251.551 478.477V477.1H252.639V478.477L252.452 479.684L252.656 479.769L253.37 478.783L254.356 477.814L255.121 478.579L254.152 479.565L253.166 480.279L253.251 480.483L254.441 480.296H255.835V481.384H254.441L253.251 481.197L253.166 481.401L254.152 482.115L255.121 483.101L254.356 483.866L253.37 482.88L252.656 481.894L252.452 481.979L252.639 483.186V484.563H251.551V483.186L251.738 481.979L251.534 481.894L250.82 482.88L249.834 483.866L249.069 483.101L250.055 482.115L251.024 481.401L250.939 481.197L249.749 481.384H248.355ZM256.69 481.384V480.296H258.084L259.274 480.483L259.359 480.279L258.39 479.565L257.404 478.579L258.169 477.814L259.155 478.783L259.869 479.769L260.073 479.684L259.886 478.477V477.1H260.974V478.477L260.787 479.684L260.991 479.769L261.705 478.783L262.691 477.814L263.456 478.579L262.487 479.565L261.501 480.279L261.586 480.483L262.776 480.296H264.17V481.384H262.776L261.586 481.197L261.501 481.401L262.487 482.115L263.456 483.101L262.691 483.866L261.705 482.88L260.991 481.894L260.787 481.979L260.974 483.186V484.563H259.886V483.186L260.073 481.979L259.869 481.894L259.155 482.88L258.169 483.866L257.404 483.101L258.39 482.115L259.359 481.401L259.274 481.197L258.084 481.384H256.69ZM265.517 485.447V483.849H270.549V485.447H265.517ZM271.881 481.384V480.296H273.275L274.465 480.483L274.55 480.279L273.581 479.565L272.595 478.579L273.36 477.814L274.346 478.783L275.06 479.769L275.264 479.684L275.077 478.477V477.1H276.165V478.477L275.978 479.684L276.182 479.769L276.896 478.783L277.882 477.814L278.647 478.579L277.678 479.565L276.692 480.279L276.777 480.483L277.967 480.296H279.361V481.384H277.967L276.777 481.197L276.692 481.401L277.678 482.115L278.647 483.101L277.882 483.866L276.896 482.88L276.182 481.894L275.978 481.979L276.165 483.186V484.563H275.077V483.186L275.264 481.979L275.06 481.894L274.346 482.88L273.36 483.866L272.595 483.101L273.581 482.115L274.55 481.401L274.465 481.197L273.275 481.384H271.881ZM280.216 481.384V480.296H281.61L282.8 480.483L282.885 480.279L281.916 479.565L280.93 478.579L281.695 477.814L282.681 478.783L283.395 479.769L283.599 479.684L283.412 478.477V477.1H284.5V478.477L284.313 479.684L284.517 479.769L285.231 478.783L286.217 477.814L286.982 478.579L286.013 479.565L285.027 480.279L285.112 480.483L286.302 480.296H287.696V481.384H286.302L285.112 481.197L285.027 481.401L286.013 482.115L286.982 483.101L286.217 483.866L285.231 482.88L284.517 481.894L284.313 481.979L284.5 483.186V484.563H283.412V483.186L283.599 481.979L283.395 481.894L282.681 482.88L281.695 483.866L280.93 483.101L281.916 482.115L282.885 481.401L282.8 481.197L281.61 481.384H280.216ZM288.551 481.384V480.296H289.945L291.135 480.483L291.22 480.279L290.251 479.565L289.265 478.579L290.03 477.814L291.016 478.783L291.73 479.769L291.934 479.684L291.747 478.477V477.1H292.835V478.477L292.648 479.684L292.852 479.769L293.566 478.783L294.552 477.814L295.317 478.579L294.348 479.565L293.362 480.279L293.447 480.483L294.637 480.296H296.031V481.384H294.637L293.447 481.197L293.362 481.401L294.348 482.115L295.317 483.101L294.552 483.866L293.566 482.88L292.852 481.894L292.648 481.979L292.835 483.186V484.563H291.747V483.186L291.934 481.979L291.73 481.894L291.016 482.88L290.03 483.866L289.265 483.101L290.251 482.115L291.22 481.401L291.135 481.197L289.945 481.384H288.551ZM296.885 481.384V480.296H298.279L299.469 480.483L299.554 480.279L298.585 479.565L297.599 478.579L298.364 477.814L299.35 478.783L300.064 479.769L300.268 479.684L300.081 478.477V477.1H301.169V478.477L300.982 479.684L301.186 479.769L301.9 478.783L302.886 477.814L303.651 478.579L302.682 479.565L301.696 480.279L301.781 480.483L302.971 480.296H304.365V481.384H302.971L301.781 481.197L301.696 481.401L302.682 482.115L303.651 483.101L302.886 483.866L301.9 482.88L301.186 481.894L300.982 481.979L301.169 483.186V484.563H300.081V483.186L300.268 481.979L300.064 481.894L299.35 482.88L298.364 483.866L297.599 483.101L298.585 482.115L299.554 481.401L299.469 481.197L298.279 481.384H296.885ZM305.713 485.447V483.849H310.745V485.447H305.713ZM312.077 481.384V480.296H313.471L314.661 480.483L314.746 480.279L313.777 479.565L312.791 478.579L313.556 477.814L314.542 478.783L315.256 479.769L315.46 479.684L315.273 478.477V477.1H316.361V478.477L316.174 479.684L316.378 479.769L317.092 478.783L318.078 477.814L318.843 478.579L317.874 479.565L316.888 480.279L316.973 480.483L318.163 480.296H319.557V481.384H318.163L316.973 481.197L316.888 481.401L317.874 482.115L318.843 483.101L318.078 483.866L317.092 482.88L316.378 481.894L316.174 481.979L316.361 483.186V484.563H315.273V483.186L315.46 481.979L315.256 481.894L314.542 482.88L313.556 483.866L312.791 483.101L313.777 482.115L314.746 481.401L314.661 481.197L313.471 481.384H312.077ZM320.412 481.384V480.296H321.806L322.996 480.483L323.081 480.279L322.112 479.565L321.126 478.579L321.891 477.814L322.877 478.783L323.591 479.769L323.795 479.684L323.608 478.477V477.1H324.696V478.477L324.509 479.684L324.713 479.769L325.427 478.783L326.413 477.814L327.178 478.579L326.209 479.565L325.223 480.279L325.308 480.483L326.498 480.296H327.892V481.384H326.498L325.308 481.197L325.223 481.401L326.209 482.115L327.178 483.101L326.413 483.866L325.427 482.88L324.713 481.894L324.509 481.979L324.696 483.186V484.563H323.608V483.186L323.795 481.979L323.591 481.894L322.877 482.88L321.891 483.866L321.126 483.101L322.112 482.115L323.081 481.401L322.996 481.197L321.806 481.384H320.412ZM328.746 481.384V480.296H330.14L331.33 480.483L331.415 480.279L330.446 479.565L329.46 478.579L330.225 477.814L331.211 478.783L331.925 479.769L332.129 479.684L331.942 478.477V477.1H333.03V478.477L332.843 479.684L333.047 479.769L333.761 478.783L334.747 477.814L335.512 478.579L334.543 479.565L333.557 480.279L333.642 480.483L334.832 480.296H336.226V481.384H334.832L333.642 481.197L333.557 481.401L334.543 482.115L335.512 483.101L334.747 483.866L333.761 482.88L333.047 481.894L332.843 481.979L333.03 483.186V484.563H331.942V483.186L332.129 481.979L331.925 481.894L331.211 482.88L330.225 483.866L329.46 483.101L330.446 482.115L331.415 481.401L331.33 481.197L330.14 481.384H328.746ZM337.081 481.384V480.296H338.475L339.665 480.483L339.75 480.279L338.781 479.565L337.795 478.579L338.56 477.814L339.546 478.783L340.26 479.769L340.464 479.684L340.277 478.477V477.1H341.365V478.477L341.178 479.684L341.382 479.769L342.096 478.783L343.082 477.814L343.847 478.579L342.878 479.565L341.892 480.279L341.977 480.483L343.167 480.296H344.561V481.384H343.167L341.977 481.197L341.892 481.401L342.878 482.115L343.847 483.101L343.082 483.866L342.096 482.88L341.382 481.894L341.178 481.979L341.365 483.186V484.563H340.277V483.186L340.464 481.979L340.26 481.894L339.546 482.88L338.56 483.866L337.795 483.101L338.781 482.115L339.75 481.401L339.665 481.197L338.475 481.384H337.081ZM345.909 485.447V483.849H350.941V485.447H345.909ZM355.877 489V478.358H355.605L353.65 482.37H351.763L354.398 477.1H357.662V489H355.877ZM359.031 489V487.657C359.031 486.83 359.173 486.15 359.456 485.617C359.74 485.084 360.142 484.654 360.663 484.325C361.196 483.985 361.836 483.702 362.584 483.475L363.621 483.152C364.086 483.005 364.483 482.823 364.811 482.608C365.151 482.393 365.412 482.126 365.593 481.809C365.775 481.48 365.865 481.101 365.865 480.67V480.602C365.865 479.933 365.639 479.412 365.185 479.038C364.732 478.653 364.137 478.46 363.4 478.46C362.641 478.46 362.023 478.664 361.547 479.072C361.083 479.48 360.85 480.081 360.85 480.874V481.146H359.082V480.891C359.082 480.03 359.269 479.304 359.643 478.715C360.017 478.114 360.533 477.655 361.19 477.338C361.848 477.021 362.584 476.862 363.4 476.862C364.216 476.862 364.942 477.015 365.576 477.321C366.222 477.627 366.727 478.058 367.089 478.613C367.463 479.168 367.65 479.82 367.65 480.568V480.721C367.65 481.492 367.497 482.132 367.191 482.642C366.885 483.152 366.46 483.571 365.916 483.9C365.384 484.229 364.766 484.506 364.063 484.733L363.06 485.039C362.528 485.198 362.097 485.373 361.768 485.566C361.451 485.747 361.213 485.968 361.054 486.229C360.907 486.49 360.833 486.824 360.833 487.232V487.402H367.548V489H359.031ZM372.83 489.238C371.958 489.238 371.181 489.079 370.501 488.762C369.821 488.445 369.289 487.986 368.903 487.385C368.529 486.784 368.342 486.07 368.342 485.243V484.937H370.127V485.209C370.127 485.957 370.371 486.552 370.858 486.994C371.357 487.425 372.014 487.64 372.83 487.64C373.646 487.64 374.281 487.436 374.734 487.028C375.188 486.62 375.414 486.104 375.414 485.481V485.328C375.414 484.886 375.307 484.529 375.091 484.257C374.876 483.985 374.587 483.787 374.224 483.662C373.862 483.526 373.454 483.458 373 483.458H370.841V481.401L375.023 478.936V478.698H368.631V477.1H376.961V479.514L372.966 481.894V482.132H373.697C374.298 482.132 374.865 482.245 375.397 482.472C375.93 482.699 376.361 483.044 376.689 483.509C377.029 483.974 377.199 484.563 377.199 485.277V485.481C377.199 486.24 377.018 486.903 376.655 487.47C376.293 488.025 375.783 488.462 375.125 488.779C374.468 489.085 373.703 489.238 372.83 489.238ZM383.803 489V486.569H377.785V484.495L382.341 477.1H385.588V484.988H387.594V486.569H385.588V489H383.803ZM379.519 484.988H383.803V478.222H383.531L379.519 484.75V484.988Z" fill="white"/>
</g>
<mask id="mask0_0_1" style="mask-type:luminance" maskUnits="userSpaceOnUse" x="148" y="342" width="99" height="99">
<path d="M247 342H148V440.605H247V342Z" fill="white"/>
</mask>
<g mask="url(#mask0_0_1)">
<path d="M215.988 342.221L197.502 369.077L197.498 369.082" stroke="url(#paint1_linear_0_1)" stroke-width="0.5" stroke-miterlimit="10"/>
<path d="M197.498 369.082L201.326 374.635L223.64 342.221H231.291L205.149 380.193L205.162 380.215C206.196 381.712 207.534 382.994 209.099 383.984L209.858 384.464L238.934 342.221H246.586L215.195 387.828" stroke="url(#paint2_linear_0_1)" stroke-width="0.5" stroke-miterlimit="10"/>
<path d="M197.502 369.077L179.012 342.221" stroke="url(#paint3_linear_0_1)" stroke-width="0.5" stroke-miterlimit="10"/>
<path d="M179.81 387.824L148.414 342.221H156.061L185.133 384.46L185.913 383.967C187.474 382.981 188.813 381.703 189.842 380.206L189.851 380.189L163.709 342.221H171.36L193.674 374.635L197.498 369.082" stroke="url(#paint4_linear_0_1)" stroke-width="0.5" stroke-miterlimit="10"/>
<path d="M215.988 440.386L197.502 413.53L197.498 413.525" stroke="url(#paint5_linear_0_1)" stroke-width="0.5" stroke-miterlimit="10"/>
<path d="M215.19 394.785L246.581 440.388H238.93L209.854 398.153L209.086 398.637C207.517 399.628 206.178 400.91 205.145 402.411L231.287 440.388H223.635L201.321 407.973L197.498 413.532" stroke="url(#paint6_linear_0_1)" stroke-width="0.5" stroke-miterlimit="10"/>
<path d="M197.502 413.534L179.012 440.391" stroke="url(#paint7_linear_0_1)" stroke-width="0.5" stroke-miterlimit="10"/>
<path d="M179.81 394.785L148.414 440.388H156.061L185.137 398.153L185.913 398.642C187.483 399.632 188.822 400.915 189.855 402.415L163.713 440.388H171.364L193.678 407.973L197.502 413.527" stroke="url(#paint8_linear_0_1)" stroke-width="0.5" stroke-miterlimit="10"/>
</g>
</g>
</g>
<path d="M135 383.823H120.968M120.968 383.823V392.067M120.968 383.823V374M120.968 406.835V400.31M120.968 400.31V392.067M120.968 400.31H135M120.968 392.067H135" stroke="url(#paint9_angular_0_1)" stroke-width="1.4"/>
<rect x="90.7" y="374.7" width="43.5032" height="32.812" rx="6.55" fill="url(#paint10_linear_0_1)" fill-opacity="0.9" stroke="url(#paint11_angular_0_1)" stroke-width="1.4"/>
<path d="M90 385.151H101.109C103.111 385.151 104.734 386.774 104.734 388.776V393.395M104.734 408.164V401.639M104.734 401.639V393.395M104.734 401.639H90M104.734 393.395H90" stroke="url(#paint12_angular_0_1)" stroke-width="1.4"/>
<mask id="mask1_0_1" style="mask-type:luminance" maskUnits="userSpaceOnUse" x="278" y="317" width="25" height="25">
<mask id="path-16-inside-1_0_1" fill="white">
<path d="M294.941 318.792C295.338 319.148 295.709 319.535 296.074 319.936C296.123 319.985 296.172 320.035 296.222 320.086C296.963 320.872 297.623 322.066 297.947 323.175C297.947 323.233 297.947 323.291 297.947 323.35C298.023 323.379 298.023 323.379 298.101 323.409C298.387 323.56 298.613 323.766 298.86 323.99C298.967 324.085 299.073 324.18 299.18 324.275C299.236 324.325 299.291 324.374 299.348 324.425C299.635 324.677 299.926 324.922 300.218 325.167C300.303 325.238 300.303 325.238 300.39 325.312C300.499 325.404 300.609 325.496 300.718 325.588C300.926 325.762 301.134 325.938 301.342 326.113C301.402 326.164 301.462 326.215 301.523 326.267C301.708 326.428 301.888 326.595 302.067 326.765C301.966 327.043 301.864 327.187 301.653 327.361C301.572 327.428 301.572 327.428 301.49 327.497C301.431 327.544 301.373 327.591 301.314 327.64C301.254 327.69 301.194 327.739 301.132 327.791C300.945 327.945 300.757 328.099 300.569 328.253C300.454 328.347 300.34 328.442 300.225 328.536C300.064 328.67 299.902 328.804 299.74 328.937C299.015 329.53 299.015 329.53 298.309 330.154C298.172 330.267 298.172 330.267 298.022 330.267C298.002 330.341 297.982 330.416 297.961 330.493C297.243 332.89 295.642 334.776 293.737 335.927C292.497 336.6 291.15 336.838 289.795 336.861C289.704 336.862 289.614 336.864 289.52 336.866C289.233 336.872 288.945 336.877 288.657 336.882C288.461 336.886 288.265 336.89 288.07 336.894C287.591 336.903 287.113 336.912 286.634 336.92C286.633 336.971 286.633 337.021 286.632 337.073C286.624 337.594 286.615 338.115 286.606 338.636C286.603 338.831 286.6 339.026 286.597 339.22C286.593 339.5 286.588 339.779 286.583 340.058C286.582 340.146 286.58 340.233 286.579 340.324C286.578 340.404 286.576 340.485 286.575 340.568C286.574 340.639 286.572 340.711 286.571 340.784C286.559 340.948 286.559 340.948 286.484 341.035C286.338 341.045 286.192 341.048 286.045 341.049C285.951 341.05 285.857 341.051 285.76 341.052C285.657 341.052 285.553 341.053 285.45 341.053C285.344 341.054 285.239 341.054 285.134 341.055C284.913 341.055 284.692 341.056 284.47 341.056C284.187 341.057 283.903 341.059 283.619 341.061C283.401 341.063 283.184 341.063 282.966 341.064C282.861 341.064 282.757 341.065 282.652 341.066C282.506 341.067 282.36 341.067 282.214 341.066C282.13 341.067 282.047 341.067 281.961 341.067C281.896 341.057 281.831 341.046 281.765 341.035C281.607 340.759 281.596 340.696 281.598 340.381C281.598 340.302 281.598 340.223 281.598 340.142C281.598 340.057 281.599 339.972 281.6 339.885C281.6 339.798 281.6 339.711 281.601 339.621C281.602 339.343 281.603 339.065 281.605 338.786C281.606 338.598 281.607 338.409 281.607 338.221C281.609 337.758 281.612 337.295 281.615 336.833C281.549 336.833 281.549 336.833 281.481 336.833C281.026 336.835 280.57 336.837 280.114 336.838C279.944 336.838 279.774 336.839 279.604 336.839C279.359 336.84 279.115 336.841 278.871 336.841C278.794 336.842 278.718 336.842 278.639 336.843C278.568 336.843 278.498 336.843 278.425 336.843C278.363 336.843 278.3 336.843 278.236 336.843C278.093 336.833 278.093 336.833 278.019 336.745C278.011 336.574 278.008 336.403 278.008 336.232C278.007 336.122 278.007 336.012 278.006 335.899C278.006 335.778 278.006 335.657 278.006 335.536C278.006 335.413 278.006 335.29 278.005 335.167C278.005 334.909 278.005 334.65 278.005 334.392C278.005 334.06 278.004 333.729 278.002 333.397C278.002 333.143 278.001 332.888 278.001 332.634C278.001 332.512 278.001 332.389 278 332.267C278 332.096 278 331.925 278 331.754C278 331.657 278 331.56 278 331.459C278.019 331.23 278.019 331.23 278.168 331.055C278.314 331.03 278.314 331.03 278.495 331.027C278.596 331.024 278.596 331.024 278.699 331.021C278.809 331.02 278.809 331.02 278.921 331.018C279.032 331.016 279.032 331.016 279.147 331.013C279.386 331.008 279.625 331.004 279.863 331C280.025 330.996 280.187 330.993 280.349 330.99C280.746 330.981 281.143 330.974 281.54 330.967C281.54 330.909 281.541 330.851 281.541 330.792C281.546 330.183 281.552 329.573 281.559 328.964C281.562 328.737 281.564 328.511 281.566 328.284C281.591 325.073 282.054 322.414 284.012 320.023C284.058 319.964 284.104 319.905 284.151 319.844C285.376 318.318 287.075 317.491 288.807 317.134C288.876 317.118 288.945 317.101 289.017 317.084C291.078 316.758 293.245 317.391 294.941 318.792ZM287.405 324.316C286.685 325.355 286.484 326.304 286.559 327.64C286.671 328.497 287.027 329.283 287.533 329.916C287.583 329.916 287.632 329.916 287.683 329.916C287.683 329.974 287.683 330.032 287.683 330.091C288.603 330.935 289.536 331.196 290.68 331.055C291.436 330.885 292.189 330.419 292.703 329.741C292.703 329.683 292.703 329.626 292.703 329.566C292.752 329.566 292.801 329.566 292.852 329.566C293.47 328.57 293.703 327.547 293.602 326.327C293.404 325.132 292.878 324.145 292.028 323.438C290.422 322.4 288.617 322.638 287.405 324.316Z"/>
</mask>
<path d="M294.941 318.792C295.338 319.148 295.709 319.535 296.074 319.936C296.123 319.985 296.172 320.035 296.222 320.086C296.963 320.872 297.623 322.066 297.947 323.175C297.947 323.233 297.947 323.291 297.947 323.35C298.023 323.379 298.023 323.379 298.101 323.409C298.387 323.56 298.613 323.766 298.86 323.99C298.967 324.085 299.073 324.18 299.18 324.275C299.236 324.325 299.291 324.374 299.348 324.425C299.635 324.677 299.926 324.922 300.218 325.167C300.303 325.238 300.303 325.238 300.39 325.312C300.499 325.404 300.609 325.496 300.718 325.588C300.926 325.762 301.134 325.938 301.342 326.113C301.402 326.164 301.462 326.215 301.523 326.267C301.708 326.428 301.888 326.595 302.067 326.765C301.966 327.043 301.864 327.187 301.653 327.361C301.572 327.428 301.572 327.428 301.49 327.497C301.431 327.544 301.373 327.591 301.314 327.64C301.254 327.69 301.194 327.739 301.132 327.791C300.945 327.945 300.757 328.099 300.569 328.253C300.454 328.347 300.34 328.442 300.225 328.536C300.064 328.67 299.902 328.804 299.74 328.937C299.015 329.53 299.015 329.53 298.309 330.154C298.172 330.267 298.172 330.267 298.022 330.267C298.002 330.341 297.982 330.416 297.961 330.493C297.243 332.89 295.642 334.776 293.737 335.927C292.497 336.6 291.15 336.838 289.795 336.861C289.704 336.862 289.614 336.864 289.52 336.866C289.233 336.872 288.945 336.877 288.657 336.882C288.461 336.886 288.265 336.89 288.07 336.894C287.591 336.903 287.113 336.912 286.634 336.92C286.633 336.971 286.633 337.021 286.632 337.073C286.624 337.594 286.615 338.115 286.606 338.636C286.603 338.831 286.6 339.026 286.597 339.22C286.593 339.5 286.588 339.779 286.583 340.058C286.582 340.146 286.58 340.233 286.579 340.324C286.578 340.404 286.576 340.485 286.575 340.568C286.574 340.639 286.572 340.711 286.571 340.784C286.559 340.948 286.559 340.948 286.484 341.035C286.338 341.045 286.192 341.048 286.045 341.049C285.951 341.05 285.857 341.051 285.76 341.052C285.657 341.052 285.553 341.053 285.45 341.053C285.344 341.054 285.239 341.054 285.134 341.055C284.913 341.055 284.692 341.056 284.47 341.056C284.187 341.057 283.903 341.059 283.619 341.061C283.401 341.063 283.184 341.063 282.966 341.064C282.861 341.064 282.757 341.065 282.652 341.066C282.506 341.067 282.36 341.067 282.214 341.066C282.13 341.067 282.047 341.067 281.961 341.067C281.896 341.057 281.831 341.046 281.765 341.035C281.607 340.759 281.596 340.696 281.598 340.381C281.598 340.302 281.598 340.223 281.598 340.142C281.598 340.057 281.599 339.972 281.6 339.885C281.6 339.798 281.6 339.711 281.601 339.621C281.602 339.343 281.603 339.065 281.605 338.786C281.606 338.598 281.607 338.409 281.607 338.221C281.609 337.758 281.612 337.295 281.615 336.833C281.549 336.833 281.549 336.833 281.481 336.833C281.026 336.835 280.57 336.837 280.114 336.838C279.944 336.838 279.774 336.839 279.604 336.839C279.359 336.84 279.115 336.841 278.871 336.841C278.794 336.842 278.718 336.842 278.639 336.843C278.568 336.843 278.498 336.843 278.425 336.843C278.363 336.843 278.3 336.843 278.236 336.843C278.093 336.833 278.093 336.833 278.019 336.745C278.011 336.574 278.008 336.403 278.008 336.232C278.007 336.122 278.007 336.012 278.006 335.899C278.006 335.778 278.006 335.657 278.006 335.536C278.006 335.413 278.006 335.29 278.005 335.167C278.005 334.909 278.005 334.65 278.005 334.392C278.005 334.06 278.004 333.729 278.002 333.397C278.002 333.143 278.001 332.888 278.001 332.634C278.001 332.512 278.001 332.389 278 332.267C278 332.096 278 331.925 278 331.754C278 331.657 278 331.56 278 331.459C278.019 331.23 278.019 331.23 278.168 331.055C278.314 331.03 278.314 331.03 278.495 331.027C278.596 331.024 278.596 331.024 278.699 331.021C278.809 331.02 278.809 331.02 278.921 331.018C279.032 331.016 279.032 331.016 279.147 331.013C279.386 331.008 279.625 331.004 279.863 331C280.025 330.996 280.187 330.993 280.349 330.99C280.746 330.981 281.143 330.974 281.54 330.967C281.54 330.909 281.541 330.851 281.541 330.792C281.546 330.183 281.552 329.573 281.559 328.964C281.562 328.737 281.564 328.511 281.566 328.284C281.591 325.073 282.054 322.414 284.012 320.023C284.058 319.964 284.104 319.905 284.151 319.844C285.376 318.318 287.075 317.491 288.807 317.134C288.876 317.118 288.945 317.101 289.017 317.084C291.078 316.758 293.245 317.391 294.941 318.792ZM287.405 324.316C286.685 325.355 286.484 326.304 286.559 327.64C286.671 328.497 287.027 329.283 287.533 329.916C287.583 329.916 287.632 329.916 287.683 329.916C287.683 329.974 287.683 330.032 287.683 330.091C288.603 330.935 289.536 331.196 290.68 331.055C291.436 330.885 292.189 330.419 292.703 329.741C292.703 329.683 292.703 329.626 292.703 329.566C292.752 329.566 292.801 329.566 292.852 329.566C293.47 328.57 293.703 327.547 293.602 326.327C293.404 325.132 292.878 324.145 292.028 323.438C290.422 322.4 288.617 322.638 287.405 324.316Z" fill="white" stroke="url(#paint13_linear_0_1)" stroke-opacity="0.55" stroke-width="2" mask="url(#path-16-inside-1_0_1)"/>
</mask>
<g mask="url(#mask1_0_1)">
<path d="M294.941 318.792C295.338 319.148 295.709 319.535 296.074 319.936C296.123 319.985 296.172 320.035 296.222 320.086C296.963 320.872 297.623 322.066 297.947 323.175C297.947 323.233 297.947 323.291 297.947 323.35C298.023 323.379 298.023 323.379 298.101 323.409C298.387 323.56 298.613 323.766 298.86 323.99C298.967 324.085 299.073 324.18 299.18 324.275C299.236 324.325 299.291 324.374 299.348 324.425C299.635 324.677 299.926 324.922 300.218 325.167C300.303 325.238 300.303 325.238 300.39 325.312C300.499 325.404 300.609 325.496 300.718 325.588C300.926 325.762 301.134 325.938 301.342 326.113C301.402 326.164 301.462 326.215 301.523 326.267C301.708 326.428 301.888 326.595 302.067 326.765C301.966 327.043 301.864 327.187 301.653 327.361C301.572 327.428 301.572 327.428 301.49 327.497C301.431 327.544 301.373 327.591 301.314 327.64C301.254 327.69 301.194 327.739 301.132 327.791C300.945 327.945 300.757 328.099 300.569 328.253C300.454 328.347 300.34 328.442 300.225 328.536C300.064 328.67 299.902 328.804 299.74 328.937C299.015 329.53 299.015 329.53 298.309 330.154C298.172 330.267 298.172 330.267 298.022 330.267C298.002 330.341 297.982 330.416 297.961 330.493C297.243 332.89 295.642 334.776 293.737 335.927C292.497 336.6 291.15 336.838 289.795 336.861C289.704 336.862 289.614 336.864 289.52 336.866C289.233 336.872 288.945 336.877 288.657 336.882C288.461 336.886 288.265 336.89 288.07 336.894C287.591 336.903 287.113 336.912 286.634 336.92C286.633 336.971 286.633 337.021 286.632 337.073C286.624 337.594 286.615 338.115 286.606 338.636C286.603 338.831 286.6 339.026 286.597 339.22C286.593 339.5 286.588 339.779 286.583 340.058C286.582 340.146 286.58 340.233 286.579 340.324C286.578 340.404 286.576 340.485 286.575 340.568C286.574 340.639 286.572 340.711 286.571 340.784C286.559 340.948 286.559 340.948 286.484 341.035C286.338 341.045 286.192 341.048 286.045 341.049C285.951 341.05 285.857 341.051 285.76 341.052C285.657 341.052 285.553 341.053 285.45 341.053C285.344 341.054 285.239 341.054 285.134 341.055C284.913 341.055 284.692 341.056 284.47 341.056C284.187 341.057 283.903 341.059 283.619 341.061C283.401 341.063 283.184 341.063 282.966 341.064C282.861 341.064 282.757 341.065 282.652 341.066C282.506 341.067 282.36 341.067 282.214 341.066C282.13 341.067 282.047 341.067 281.961 341.067C281.896 341.057 281.831 341.046 281.765 341.035C281.607 340.759 281.596 340.696 281.598 340.381C281.598 340.302 281.598 340.223 281.598 340.142C281.598 340.057 281.599 339.972 281.6 339.885C281.6 339.798 281.6 339.711 281.601 339.621C281.602 339.343 281.603 339.065 281.605 338.786C281.606 338.598 281.607 338.409 281.607 338.221C281.609 337.758 281.612 337.295 281.615 336.833C281.549 336.833 281.549 336.833 281.481 336.833C281.026 336.835 280.57 336.837 280.114 336.838C279.944 336.838 279.774 336.839 279.604 336.839C279.359 336.84 279.115 336.841 278.871 336.841C278.794 336.842 278.718 336.842 278.639 336.843C278.568 336.843 278.498 336.843 278.425 336.843C278.363 336.843 278.3 336.843 278.236 336.843C278.093 336.833 278.093 336.833 278.019 336.745C278.011 336.574 278.008 336.403 278.008 336.232C278.007 336.122 278.007 336.012 278.006 335.899C278.006 335.778 278.006 335.657 278.006 335.536C278.006 335.413 278.006 335.29 278.005 335.167C278.005 334.909 278.005 334.65 278.005 334.392C278.005 334.06 278.004 333.729 278.002 333.397C278.002 333.143 278.001 332.888 278.001 332.634C278.001 332.512 278.001 332.389 278 332.267C278 332.096 278 331.925 278 331.754C278 331.657 278 331.56 278 331.459C278.019 331.23 278.019 331.23 278.168 331.055C278.314 331.03 278.314 331.03 278.495 331.027C278.596 331.024 278.596 331.024 278.699 331.021C278.809 331.02 278.809 331.02 278.921 331.018C279.032 331.016 279.032 331.016 279.147 331.013C279.386 331.008 279.625 331.004 279.863 331C280.025 330.996 280.187 330.993 280.349 330.99C280.746 330.981 281.143 330.974 281.54 330.967C281.54 330.909 281.541 330.851 281.541 330.792C281.546 330.183 281.552 329.573 281.559 328.964C281.562 328.737 281.564 328.511 281.566 328.284C281.591 325.073 282.054 322.414 284.012 320.023C284.058 319.964 284.104 319.905 284.151 319.844C285.376 318.318 287.075 317.491 288.807 317.134C288.876 317.118 288.945 317.101 289.017 317.084C291.078 316.758 293.245 317.391 294.941 318.792ZM287.405 324.316C286.685 325.355 286.484 326.304 286.559 327.64C286.671 328.497 287.027 329.283 287.533 329.916C287.583 329.916 287.632 329.916 287.683 329.916C287.683 329.974 287.683 330.032 287.683 330.091C288.603 330.935 289.536 331.196 290.68 331.055C291.436 330.885 292.189 330.419 292.703 329.741C292.703 329.683 292.703 329.626 292.703 329.566C292.752 329.566 292.801 329.566 292.852 329.566C293.47 328.57 293.703 327.547 293.602 326.327C293.404 325.132 292.878 324.145 292.028 323.438C290.422 322.4 288.617 322.638 287.405 324.316Z" fill="url(#paint14_linear_0_1)" fill-opacity="0.55" stroke="url(#paint15_linear_0_1)" stroke-opacity="0.55"/>
</g>
<mask id="path-18-inside-2_0_1" fill="white">
<path d="M311.79 338.974H308.934V337.241C307.99 338.396 306.697 338.974 305.053 338.974C303.589 338.974 302.344 338.388 301.319 337.216C300.294 336.045 299.781 334.629 299.781 332.969C299.781 331.309 300.294 329.894 301.319 328.722C302.344 327.551 303.589 326.965 305.053 326.965C306.697 326.965 307.99 327.543 308.934 328.698V326.965H311.79V338.974ZM305.785 336.118C306.68 336.085 307.421 335.776 308.007 335.19C308.609 334.605 308.918 333.864 308.934 332.969C308.918 332.074 308.609 331.334 308.007 330.748C307.421 330.146 306.68 329.837 305.785 329.821C304.89 329.837 304.15 330.146 303.564 330.748C302.978 331.334 302.669 332.074 302.637 332.969C302.669 333.864 302.978 334.605 303.564 335.19C304.15 335.776 304.89 336.085 305.785 336.118ZM320.298 343.636H316.783V340.78H320.298C320.803 340.763 321.226 340.585 321.567 340.243C321.909 339.901 322.088 339.47 322.104 338.949V337.363C321.6 337.916 321.03 338.323 320.396 338.583C319.761 338.843 319.192 338.974 318.687 338.974C317.906 338.974 317.223 338.835 316.637 338.559C314.717 337.664 313.757 335.801 313.757 332.969V326.965H316.613V332.969C316.613 335.052 317.434 336.102 319.078 336.118C319.794 336.118 320.477 335.817 321.128 335.215C321.779 334.613 322.104 333.864 322.104 332.969V326.965H324.96V338.949C324.96 340.251 324.505 341.357 323.593 342.269C322.682 343.18 321.584 343.636 320.298 343.636ZM326.157 341.073L328.036 339.218L328.085 339.242C328.703 339.812 329.435 340.235 330.281 340.511C331.128 340.788 331.974 340.926 332.82 340.926C332.999 340.926 333.227 340.91 333.503 340.877C333.796 340.861 334.081 340.812 334.358 340.731C334.634 340.666 334.87 340.56 335.065 340.414C335.277 340.284 335.383 340.113 335.383 339.901C335.383 339.673 335.285 339.494 335.09 339.364C334.895 339.234 334.651 339.128 334.358 339.047C334.065 338.982 333.772 338.949 333.479 338.949C333.186 338.933 332.95 338.925 332.771 338.925C332.202 338.925 331.624 338.957 331.038 339.022C330.469 339.088 329.915 339.21 329.378 339.389H329.354L327.719 337.778L328.866 334.36C328.394 333.954 328.028 333.498 327.767 332.994C327.507 332.473 327.377 331.903 327.377 331.285C327.377 330.602 327.523 329.991 327.816 329.454C328.109 328.901 328.5 328.437 328.988 328.063C329.476 327.673 330.029 327.38 330.648 327.184C331.266 326.973 331.892 326.867 332.527 326.867C333.65 326.867 334.764 326.875 335.871 326.892C336.994 326.892 338.116 326.892 339.239 326.892H339.288V329.528L336.847 329.162C337.384 329.796 337.653 330.528 337.653 331.358C337.653 331.993 337.506 332.579 337.213 333.116C336.92 333.636 336.538 334.092 336.066 334.482C335.594 334.857 335.057 335.15 334.455 335.361C333.869 335.573 333.276 335.678 332.673 335.678C332.104 335.678 331.583 335.597 331.111 335.434L330.794 336.362C331.445 336.232 332.071 336.167 332.673 336.167C333.259 336.167 333.878 336.224 334.528 336.338C335.179 336.435 335.773 336.63 336.31 336.923C336.847 337.2 337.287 337.574 337.628 338.046C337.986 338.518 338.165 339.12 338.165 339.852C338.165 340.585 338.003 341.203 337.677 341.707C337.352 342.212 336.929 342.618 336.408 342.928C335.887 343.237 335.301 343.457 334.651 343.587C334.016 343.733 333.381 343.806 332.747 343.806C332.161 343.806 331.559 343.749 330.941 343.636C330.339 343.522 329.753 343.351 329.183 343.123C328.614 342.911 328.069 342.635 327.548 342.293C327.043 341.951 326.588 341.561 326.181 341.121L326.157 341.073ZM330.379 331.358C330.379 331.635 330.444 331.887 330.574 332.115C330.721 332.343 330.892 332.538 331.087 332.701C331.299 332.847 331.526 332.961 331.77 333.042C332.031 333.124 332.283 333.164 332.527 333.164C332.771 333.164 333.023 333.124 333.284 333.042C333.544 332.961 333.772 332.847 333.967 332.701C334.179 332.538 334.35 332.343 334.48 332.115C334.626 331.887 334.699 331.635 334.699 331.358C334.699 331.065 334.634 330.805 334.504 330.577C334.374 330.349 334.203 330.154 333.992 329.991C333.78 329.829 333.544 329.707 333.284 329.625C333.023 329.544 332.771 329.503 332.527 329.503C332.283 329.503 332.031 329.544 331.77 329.625C331.526 329.707 331.299 329.829 331.087 329.991C330.875 330.154 330.705 330.349 330.574 330.577C330.444 330.805 330.379 331.065 330.379 331.358ZM346.163 338.974C344.503 338.974 343.088 338.388 341.916 337.216C340.744 336.045 340.159 334.629 340.159 332.969C340.159 331.309 340.744 329.894 341.916 328.722C343.088 327.551 344.503 326.965 346.163 326.965C347.627 326.965 348.905 327.429 349.995 328.356C351.085 329.267 351.777 330.431 352.07 331.846C352.135 332.221 352.167 332.595 352.167 332.969V333.262C352.151 333.506 352.119 333.75 352.07 333.994H343.185L343.234 334.092C343.787 335.377 344.764 336.053 346.163 336.118C346.944 336.102 347.627 335.849 348.213 335.361H351.679C351.207 336.435 350.475 337.306 349.482 337.973C348.506 338.64 347.4 338.974 346.163 338.974ZM349.116 331.846C348.547 330.561 347.562 329.886 346.163 329.821C344.764 329.886 343.787 330.561 343.234 331.846H349.116ZM359.177 338.974C357.518 338.974 356.102 338.388 354.93 337.216C353.759 336.045 353.173 334.629 353.173 332.969C353.173 331.309 353.759 329.894 354.93 328.722C356.102 327.551 357.518 326.965 359.177 326.965C360.837 326.965 362.253 327.551 363.424 328.722C364.596 329.894 365.182 331.309 365.182 332.969C365.182 334.629 364.596 336.045 363.424 337.216C362.253 338.388 360.837 338.974 359.177 338.974ZM359.177 336.118C360.072 336.085 360.813 335.776 361.399 335.19C362.001 334.605 362.31 333.864 362.326 332.969C362.326 332.091 362.017 331.35 361.399 330.748C360.796 330.13 360.056 329.821 359.177 329.821C358.315 329.821 357.575 330.13 356.956 330.748C356.338 331.35 356.029 332.091 356.029 332.969C356.029 333.832 356.338 334.572 356.956 335.19C357.575 335.809 358.315 336.118 359.177 336.118ZM378 338.974H375.144V332.969C375.144 330.87 374.323 329.821 372.679 329.821C371.963 329.821 371.28 330.122 370.629 330.724C369.978 331.309 369.653 332.058 369.653 332.969V338.974H366.797V326.965H369.653V328.576C370.157 328.022 370.727 327.616 371.361 327.355C371.996 327.095 372.566 326.965 373.07 326.965C373.867 326.965 374.551 327.095 375.12 327.355C377.04 328.25 378 330.122 378 332.969V338.974Z"/>
</mask>
<path d="M311.79 338.974H308.934V337.241C307.99 338.396 306.697 338.974 305.053 338.974C303.589 338.974 302.344 338.388 301.319 337.216C300.294 336.045 299.781 334.629 299.781 332.969C299.781 331.309 300.294 329.894 301.319 328.722C302.344 327.551 303.589 326.965 305.053 326.965C306.697 326.965 307.99 327.543 308.934 328.698V326.965H311.79V338.974ZM305.785 336.118C306.68 336.085 307.421 335.776 308.007 335.19C308.609 334.605 308.918 333.864 308.934 332.969C308.918 332.074 308.609 331.334 308.007 330.748C307.421 330.146 306.68 329.837 305.785 329.821C304.89 329.837 304.15 330.146 303.564 330.748C302.978 331.334 302.669 332.074 302.637 332.969C302.669 333.864 302.978 334.605 303.564 335.19C304.15 335.776 304.89 336.085 305.785 336.118ZM320.298 343.636H316.783V340.78H320.298C320.803 340.763 321.226 340.585 321.567 340.243C321.909 339.901 322.088 339.47 322.104 338.949V337.363C321.6 337.916 321.03 338.323 320.396 338.583C319.761 338.843 319.192 338.974 318.687 338.974C317.906 338.974 317.223 338.835 316.637 338.559C314.717 337.664 313.757 335.801 313.757 332.969V326.965H316.613V332.969C316.613 335.052 317.434 336.102 319.078 336.118C319.794 336.118 320.477 335.817 321.128 335.215C321.779 334.613 322.104 333.864 322.104 332.969V326.965H324.96V338.949C324.96 340.251 324.505 341.357 323.593 342.269C322.682 343.18 321.584 343.636 320.298 343.636ZM326.157 341.073L328.036 339.218L328.085 339.242C328.703 339.812 329.435 340.235 330.281 340.511C331.128 340.788 331.974 340.926 332.82 340.926C332.999 340.926 333.227 340.91 333.503 340.877C333.796 340.861 334.081 340.812 334.358 340.731C334.634 340.666 334.87 340.56 335.065 340.414C335.277 340.284 335.383 340.113 335.383 339.901C335.383 339.673 335.285 339.494 335.09 339.364C334.895 339.234 334.651 339.128 334.358 339.047C334.065 338.982 333.772 338.949 333.479 338.949C333.186 338.933 332.95 338.925 332.771 338.925C332.202 338.925 331.624 338.957 331.038 339.022C330.469 339.088 329.915 339.21 329.378 339.389H329.354L327.719 337.778L328.866 334.36C328.394 333.954 328.028 333.498 327.767 332.994C327.507 332.473 327.377 331.903 327.377 331.285C327.377 330.602 327.523 329.991 327.816 329.454C328.109 328.901 328.5 328.437 328.988 328.063C329.476 327.673 330.029 327.38 330.648 327.184C331.266 326.973 331.892 326.867 332.527 326.867C333.65 326.867 334.764 326.875 335.871 326.892C336.994 326.892 338.116 326.892 339.239 326.892H339.288V329.528L336.847 329.162C337.384 329.796 337.653 330.528 337.653 331.358C337.653 331.993 337.506 332.579 337.213 333.116C336.92 333.636 336.538 334.092 336.066 334.482C335.594 334.857 335.057 335.15 334.455 335.361C333.869 335.573 333.276 335.678 332.673 335.678C332.104 335.678 331.583 335.597 331.111 335.434L330.794 336.362C331.445 336.232 332.071 336.167 332.673 336.167C333.259 336.167 333.878 336.224 334.528 336.338C335.179 336.435 335.773 336.63 336.31 336.923C336.847 337.2 337.287 337.574 337.628 338.046C337.986 338.518 338.165 339.12 338.165 339.852C338.165 340.585 338.003 341.203 337.677 341.707C337.352 342.212 336.929 342.618 336.408 342.928C335.887 343.237 335.301 343.457 334.651 343.587C334.016 343.733 333.381 343.806 332.747 343.806C332.161 343.806 331.559 343.749 330.941 343.636C330.339 343.522 329.753 343.351 329.183 343.123C328.614 342.911 328.069 342.635 327.548 342.293C327.043 341.951 326.588 341.561 326.181 341.121L326.157 341.073ZM330.379 331.358C330.379 331.635 330.444 331.887 330.574 332.115C330.721 332.343 330.892 332.538 331.087 332.701C331.299 332.847 331.526 332.961 331.77 333.042C332.031 333.124 332.283 333.164 332.527 333.164C332.771 333.164 333.023 333.124 333.284 333.042C333.544 332.961 333.772 332.847 333.967 332.701C334.179 332.538 334.35 332.343 334.48 332.115C334.626 331.887 334.699 331.635 334.699 331.358C334.699 331.065 334.634 330.805 334.504 330.577C334.374 330.349 334.203 330.154 333.992 329.991C333.78 329.829 333.544 329.707 333.284 329.625C333.023 329.544 332.771 329.503 332.527 329.503C332.283 329.503 332.031 329.544 331.77 329.625C331.526 329.707 331.299 329.829 331.087 329.991C330.875 330.154 330.705 330.349 330.574 330.577C330.444 330.805 330.379 331.065 330.379 331.358ZM346.163 338.974C344.503 338.974 343.088 338.388 341.916 337.216C340.744 336.045 340.159 334.629 340.159 332.969C340.159 331.309 340.744 329.894 341.916 328.722C343.088 327.551 344.503 326.965 346.163 326.965C347.627 326.965 348.905 327.429 349.995 328.356C351.085 329.267 351.777 330.431 352.07 331.846C352.135 332.221 352.167 332.595 352.167 332.969V333.262C352.151 333.506 352.119 333.75 352.07 333.994H343.185L343.234 334.092C343.787 335.377 344.764 336.053 346.163 336.118C346.944 336.102 347.627 335.849 348.213 335.361H351.679C351.207 336.435 350.475 337.306 349.482 337.973C348.506 338.64 347.4 338.974 346.163 338.974ZM349.116 331.846C348.547 330.561 347.562 329.886 346.163 329.821C344.764 329.886 343.787 330.561 343.234 331.846H349.116ZM359.177 338.974C357.518 338.974 356.102 338.388 354.93 337.216C353.759 336.045 353.173 334.629 353.173 332.969C353.173 331.309 353.759 329.894 354.93 328.722C356.102 327.551 357.518 326.965 359.177 326.965C360.837 326.965 362.253 327.551 363.424 328.722C364.596 329.894 365.182 331.309 365.182 332.969C365.182 334.629 364.596 336.045 363.424 337.216C362.253 338.388 360.837 338.974 359.177 338.974ZM359.177 336.118C360.072 336.085 360.813 335.776 361.399 335.19C362.001 334.605 362.31 333.864 362.326 332.969C362.326 332.091 362.017 331.35 361.399 330.748C360.796 330.13 360.056 329.821 359.177 329.821C358.315 329.821 357.575 330.13 356.956 330.748C356.338 331.35 356.029 332.091 356.029 332.969C356.029 333.832 356.338 334.572 356.956 335.19C357.575 335.809 358.315 336.118 359.177 336.118ZM378 338.974H375.144V332.969C375.144 330.87 374.323 329.821 372.679 329.821C371.963 329.821 371.28 330.122 370.629 330.724C369.978 331.309 369.653 332.058 369.653 332.969V338.974H366.797V326.965H369.653V328.576C370.157 328.022 370.727 327.616 371.361 327.355C371.996 327.095 372.566 326.965 373.07 326.965C373.867 326.965 374.551 327.095 375.12 327.355C377.04 328.25 378 330.122 378 332.969V338.974Z" fill="#D3D3D3" fill-opacity="0.55" stroke="url(#paint16_linear_0_1)" stroke-opacity="0.55" stroke-width="2" mask="url(#path-18-inside-2_0_1)"/>
<rect x="40" y="4" width="41.7812" height="30" rx="3" fill="white"/>
<rect x="40.5" y="4.5" width="40.7812" height="29" rx="2.5" stroke="black" stroke-opacity="0.14902"/>
<path d="M46.8438 24.25V16H47.7344V16.9531H47.8438C47.9115 16.849 48.0052 16.7161 48.125 16.5547C48.2474 16.3906 48.4219 16.2448 48.6484 16.1172C48.8776 15.987 49.1875 15.9219 49.5781 15.9219C50.0833 15.9219 50.5286 16.0482 50.9141 16.3008C51.2995 16.5534 51.6003 16.9115 51.8164 17.375C52.0326 17.8385 52.1406 18.3854 52.1406 19.0156C52.1406 19.651 52.0326 20.2018 51.8164 20.668C51.6003 21.1315 51.3008 21.4909 50.918 21.7461C50.5352 21.9987 50.0938 22.125 49.5938 22.125C49.2083 22.125 48.8997 22.0612 48.668 21.9336C48.4362 21.8034 48.2578 21.6562 48.1328 21.4922C48.0078 21.3255 47.9115 21.1875 47.8438 21.0781H47.7656V24.25H46.8438ZM47.75 19C47.75 19.4531 47.8164 19.8529 47.9492 20.1992C48.082 20.543 48.276 20.8125 48.5313 21.0078C48.7865 21.2005 49.099 21.2969 49.4687 21.2969C49.8542 21.2969 50.1758 21.1953 50.4336 20.9922C50.694 20.7865 50.8893 20.5104 51.0195 20.1641C51.1523 19.8151 51.2188 19.4271 51.2188 19C51.2188 18.5781 51.1536 18.1979 51.0234 17.8594C50.8958 17.5182 50.7018 17.2487 50.4414 17.0508C50.1836 16.8503 49.8594 16.75 49.4687 16.75C49.0938 16.75 48.7786 16.8451 48.5234 17.0352C48.2682 17.2227 48.0755 17.4857 47.9453 17.8242C47.8151 18.1602 47.75 18.5521 47.75 19ZM55.9844 22.125C55.4219 22.125 54.9375 21.9922 54.5313 21.7266C54.125 21.4609 53.8125 21.0951 53.5938 20.6289C53.375 20.1628 53.2656 19.6302 53.2656 19.0312C53.2656 18.4219 53.3776 17.8841 53.6016 17.418C53.8281 16.9492 54.1432 16.5833 54.5469 16.3203C54.9531 16.0547 55.4271 15.9219 55.9688 15.9219C56.3906 15.9219 56.7708 16 57.1094 16.1562C57.4479 16.3125 57.7253 16.5312 57.9414 16.8125C58.1576 17.0937 58.2917 17.4219 58.3438 17.7969H57.4219C57.3516 17.5234 57.1953 17.2812 56.9531 17.0703C56.7135 16.8568 56.3906 16.75 55.9844 16.75C55.625 16.75 55.3099 16.8437 55.0391 17.0312C54.7708 17.2161 54.5612 17.4779 54.4102 17.8164C54.2617 18.1523 54.1875 18.5469 54.1875 19C54.1875 19.4635 54.2604 19.8672 54.4063 20.2109C54.5547 20.5547 54.763 20.8216 55.0313 21.0117C55.3021 21.2018 55.6198 21.2969 55.9844 21.2969C56.224 21.2969 56.4414 21.2552 56.6367 21.1719C56.832 21.0885 56.9974 20.9688 57.1328 20.8125C57.2682 20.6562 57.3646 20.4687 57.4219 20.25H58.3438C58.2917 20.6042 58.1628 20.9232 57.957 21.207C57.7539 21.4883 57.4844 21.7122 57.1484 21.8789C56.8151 22.043 56.4271 22.125 55.9844 22.125ZM61.457 22.1406C61.0768 22.1406 60.7318 22.069 60.4219 21.9258C60.112 21.7799 59.8659 21.5703 59.6836 21.2969C59.5013 21.0208 59.4102 20.6875 59.4102 20.2969C59.4102 19.9531 59.4779 19.6745 59.6133 19.4609C59.7487 19.2448 59.9297 19.0755 60.1563 18.9531C60.3828 18.8307 60.6328 18.7396 60.9063 18.6797C61.1823 18.6172 61.4596 18.5677 61.7383 18.5313C62.1029 18.4844 62.3984 18.4492 62.625 18.4258C62.8542 18.3997 63.0208 18.3568 63.125 18.2969C63.2318 18.237 63.2852 18.1328 63.2852 17.9844V17.9531C63.2852 17.5677 63.1797 17.2682 62.9688 17.0547C62.7604 16.8411 62.444 16.7344 62.0195 16.7344C61.5794 16.7344 61.2344 16.8307 60.9844 17.0234C60.7344 17.2161 60.5586 17.4219 60.457 17.6406L59.582 17.3281C59.7383 16.9635 59.9466 16.6797 60.207 16.4766C60.4701 16.2708 60.7565 16.1276 61.0664 16.0469C61.3789 15.9635 61.6862 15.9219 61.9883 15.9219C62.181 15.9219 62.4023 15.9453 62.6523 15.9922C62.9049 16.0365 63.1484 16.1289 63.3828 16.2695C63.6198 16.4102 63.8164 16.6224 63.9727 16.9062C64.1289 17.1901 64.207 17.5703 64.207 18.0469V22H63.2852V21.1875H63.2383C63.1758 21.3177 63.0716 21.457 62.9258 21.6055C62.7799 21.7539 62.5859 21.8802 62.3438 21.9844C62.1016 22.0885 61.806 22.1406 61.457 22.1406ZM61.5977 21.3125C61.9622 21.3125 62.2695 21.2409 62.5195 21.0977C62.7721 20.9544 62.9622 20.7695 63.0898 20.543C63.2201 20.3164 63.2852 20.0781 63.2852 19.8281V18.9844C63.2461 19.0312 63.1602 19.0742 63.0273 19.1133C62.8971 19.1497 62.7461 19.1823 62.5742 19.2109C62.4049 19.237 62.2396 19.2604 62.0781 19.2812C61.9193 19.2995 61.7904 19.3151 61.6914 19.3281C61.4518 19.3594 61.2279 19.4102 61.0195 19.4805C60.8138 19.5482 60.6471 19.651 60.5195 19.7891C60.3945 19.9245 60.332 20.1094 60.332 20.3437C60.332 20.6641 60.4505 20.9062 60.6875 21.0703C60.9271 21.2318 61.2305 21.3125 61.5977 21.3125ZM65.8896 22V16H66.7803V16.9062H66.8428C66.9521 16.6094 67.1501 16.3685 67.4365 16.1836C67.723 15.9987 68.0459 15.9062 68.4053 15.9062C68.473 15.9062 68.5576 15.9076 68.6592 15.9102C68.7607 15.9128 68.8376 15.9167 68.8896 15.9219V16.8594C68.8584 16.8516 68.7868 16.8398 68.6748 16.8242C68.5654 16.806 68.4495 16.7969 68.3271 16.7969C68.0355 16.7969 67.7751 16.8581 67.5459 16.9805C67.3193 17.1003 67.1396 17.2669 67.0068 17.4805C66.8766 17.6914 66.8115 17.9323 66.8115 18.2031V22H65.8896ZM72.0654 22.125C71.5654 22.125 71.124 21.9987 70.7412 21.7461C70.3584 21.4909 70.0589 21.1315 69.8428 20.668C69.6266 20.2018 69.5186 19.651 69.5186 19.0156C69.5186 18.3854 69.6266 17.8385 69.8428 17.375C70.0589 16.9115 70.3597 16.5534 70.7451 16.3008C71.1305 16.0482 71.5758 15.9219 72.0811 15.9219C72.4717 15.9219 72.7803 15.987 73.0068 16.1172C73.236 16.2448 73.4105 16.3906 73.5303 16.5547C73.6527 16.7161 73.7477 16.849 73.8154 16.9531H73.8936V14H74.8154V22H73.9248V21.0781H73.8154C73.7477 21.1875 73.6514 21.3255 73.5264 21.4922C73.4014 21.6562 73.223 21.8034 72.9912 21.9336C72.7594 22.0612 72.4508 22.125 72.0654 22.125ZM72.1904 21.2969C72.5602 21.2969 72.8727 21.2005 73.1279 21.0078C73.3831 20.8125 73.5771 20.543 73.71 20.1992C73.8428 19.8529 73.9092 19.4531 73.9092 19C73.9092 18.5521 73.8441 18.1602 73.7139 17.8242C73.5837 17.4857 73.391 17.2227 73.1357 17.0352C72.8805 16.8451 72.5654 16.75 72.1904 16.75C71.7998 16.75 71.4743 16.8503 71.2139 17.0508C70.9561 17.2487 70.762 17.5182 70.6318 17.8594C70.5042 18.1979 70.4404 18.5781 70.4404 19C70.4404 19.4271 70.5055 19.8151 70.6357 20.1641C70.7686 20.5104 70.9639 20.7865 71.2217 20.9922C71.4821 21.1953 71.805 21.2969 72.1904 21.2969Z" fill="black"/>
<defs>
<filter id="filter0_d_0_1" x="230.686" y="476.862" width="157.908" height="15.376" filterUnits="userSpaceOnUse" color-interpolation-filters="sRGB">
<feFlood flood-opacity="0" result="BackgroundImageFix"/>
<feColorMatrix in="SourceAlpha" type="matrix" values="0 0 0 0 0 0 0 0 0 0 0 0 0 0 0 0 0 0 127 0" result="hardAlpha"/>
<feOffset dy="2"/>
<feGaussianBlur stdDeviation="0.5"/>
<feComposite in2="hardAlpha" operator="out"/>
<feColorMatrix type="matrix" values="0 0 0 0 0 0 0 0 0 0 0 0 0 0 0 0 0 0 0.25 0"/>
<feBlend mode="normal" in2="BackgroundImageFix" result="effect1_dropShadow_0_1"/>
<feBlend mode="normal" in="SourceGraphic" in2="effect1_dropShadow_0_1" result="shape"/>
</filter>
<radialGradient id="paint0_radial_0_1" cx="0" cy="0" r="1" gradientUnits="userSpaceOnUse" gradientTransform="translate(234 408) rotate(90) scale(106 174)">
<stop stop-color="#023E62"/>
<stop offset="1" stop-color="#10253F"/>
</radialGradient>
<linearGradient id="paint1_linear_0_1" x1="206.743" y1="342.221" x2="206.743" y2="369.082" gradientUnits="userSpaceOnUse">
<stop stop-color="#B0B0B0"/>
<stop offset="0.48" stop-color="white"/>
<stop offset="1" stop-color="#4A4A4A"/>
</linearGradient>
<linearGradient id="paint2_linear_0_1" x1="222.042" y1="342.221" x2="222.042" y2="387.828" gradientUnits="userSpaceOnUse">
<stop stop-color="#B0B0B0"/>
<stop offset="0.48" stop-color="white"/>
<stop offset="1" stop-color="#4A4A4A"/>
</linearGradient>
<linearGradient id="paint3_linear_0_1" x1="188.257" y1="342.221" x2="188.257" y2="369.077" gradientUnits="userSpaceOnUse">
<stop stop-color="#B0B0B0"/>
<stop offset="0.48" stop-color="white"/>
<stop offset="1" stop-color="#4A4A4A"/>
</linearGradient>
<linearGradient id="paint4_linear_0_1" x1="172.956" y1="342.221" x2="172.956" y2="387.824" gradientUnits="userSpaceOnUse">
<stop stop-color="#B0B0B0"/>
<stop offset="0.48" stop-color="white"/>
<stop offset="1" stop-color="#4A4A4A"/>
</linearGradient>
<linearGradient id="paint5_linear_0_1" x1="206.743" y1="413.525" x2="206.743" y2="440.386" gradientUnits="userSpaceOnUse">
<stop stop-color="#B0B0B0"/>
<stop offset="0.48" stop-color="white"/>
<stop offset="1" stop-color="#4A4A4A"/>
</linearGradient>
<linearGradient id="paint6_linear_0_1" x1="222.04" y1="394.785" x2="222.04" y2="440.388" gradientUnits="userSpaceOnUse">
<stop stop-color="#B0B0B0"/>
<stop offset="0.48" stop-color="white"/>
<stop offset="1" stop-color="#4A4A4A"/>
</linearGradient>
<linearGradient id="paint7_linear_0_1" x1="188.257" y1="413.534" x2="188.257" y2="440.391" gradientUnits="userSpaceOnUse">
<stop stop-color="#B0B0B0"/>
<stop offset="0.48" stop-color="white"/>
<stop offset="1" stop-color="#4A4A4A"/>
</linearGradient>
<linearGradient id="paint8_linear_0_1" x1="172.958" y1="394.785" x2="172.958" y2="440.388" gradientUnits="userSpaceOnUse">
<stop stop-color="#B0B0B0"/>
<stop offset="0.48" stop-color="white"/>
<stop offset="1" stop-color="#4A4A4A"/>
</linearGradient>
<radialGradient id="paint9_angular_0_1" cx="0" cy="0" r="1" gradientUnits="userSpaceOnUse" gradientTransform="translate(127.984 390.418) rotate(90) scale(16.4177 7.01613)">
<stop stop-color="#C6C6C6"/>
<stop offset="0.575" stop-color="white"/>
<stop offset="0.94" stop-color="#424242"/>
</radialGradient>
<linearGradient id="paint10_linear_0_1" x1="112.452" y1="374" x2="112.452" y2="408.212" gradientUnits="userSpaceOnUse">
<stop stop-color="#B0B0B0"/>
<stop offset="0.49" stop-color="white"/>
<stop offset="0.98" stop-color="#090909" stop-opacity="0.99"/>
</linearGradient>
<radialGradient id="paint11_angular_0_1" cx="0" cy="0" r="1" gradientUnits="userSpaceOnUse" gradientTransform="translate(112.452 391.106) rotate(90) scale(17.106 22.4516)">
<stop stop-color="#C6C6C6"/>
<stop offset="0.575" stop-color="white"/>
<stop offset="0.94" stop-color="#424242"/>
</radialGradient>
<radialGradient id="paint12_angular_0_1" cx="0" cy="0" r="1" gradientUnits="userSpaceOnUse" gradientTransform="translate(97.3669 396.658) rotate(90) scale(11.5065 7.36694)">
<stop stop-color="#C6C6C6"/>
<stop offset="0.575" stop-color="white"/>
<stop offset="0.94" stop-color="#424242"/>
</radialGradient>
<linearGradient id="paint13_linear_0_1" x1="290.034" y1="317" x2="290.034" y2="341.067" gradientUnits="userSpaceOnUse">
<stop stop-color="#666666"/>
<stop offset="0.51" stop-color="white"/>
<stop offset="1" stop-color="#CCCCCC"/>
</linearGradient>
<linearGradient id="paint14_linear_0_1" x1="290.034" y1="317" x2="290.034" y2="341.067" gradientUnits="userSpaceOnUse">
<stop offset="0.155" stop-color="#EDEDED"/>
<stop offset="0.565" stop-color="#505050" stop-opacity="0.25"/>
<stop offset="0.9" stop-color="white"/>
</linearGradient>
<linearGradient id="paint15_linear_0_1" x1="290.034" y1="317" x2="290.034" y2="341.067" gradientUnits="userSpaceOnUse">
<stop stop-color="#666666"/>
<stop offset="0.51" stop-color="white"/>
<stop offset="1" stop-color="#CCCCCC"/>
</linearGradient>
<linearGradient id="paint16_linear_0_1" x1="338.891" y1="326.867" x2="338.891" y2="343.806" gradientUnits="userSpaceOnUse">
<stop stop-color="#666666"/>
<stop offset="0.51" stop-color="white"/>
<stop offset="1" stop-color="#CCCCCC"/>
</linearGradient>
<clipPath id="clip0_0_1">
<rect x="60" y="302" width="348" height="212" rx="16" fill="white"/>
</clipPath>
</defs>
</svg>
